M48
METRIC,LZ,000.000
;FILE_FORMAT=3:3
;TYPE=PLATED
;Layer: PTH_Through
;EasyEDA v6.5.40, 2024-02-16 14:27:15
;e6df629b51dc495ebfef8267a6aecd5e,cfde26286956488f8bb48462f070ee61,10
;Gerber Generator version 0.2
;Holesize 1 = 0.305 mm
T01C0.305
;Holesize 2 = 0.712 mm
T02C0.712
;Holesize 3 = 0.798 mm
T03C0.798
;Holesize 4 = 0.900 mm
T04C0.900
;Holesize 5 = 0.901 mm
T05C0.901
;Holesize 6 = 0.915 mm
T06C0.915
;Holesize 7 = 1.000 mm
T07C1.000
;Holesize 8 = 1.021 mm
T08C1.021
;Holesize 9 = 1.022 mm
T09C1.022
;Holesize 10 = 1.301 mm
T10C1.301
;Holesize 11 = 1.400 mm
T11C1.400
;Holesize 12 = 1.501 mm
T12C1.501
;Holesize 13 = 1.778 mm
T13C1.778
%
G05
G90
T01
X083947Y029718
X034036Y047117
X074295Y031115
X075565Y052959
X085606Y052705
X115146Y053467
X118532Y053467
X082423Y043053
X082677Y040132
X082296Y047498
T02
X038557Y018009
X038557Y020549
X107518Y067412
X107518Y069952
X074498Y066904
X074498Y069444
X041605Y068047
X041605Y070587
T03
X102743Y040183
X102743Y042189
X102743Y044171
X102743Y046177
T04
X050038Y043307
X042418Y043307
X042418Y046863
X050038Y046863
X050038Y052705
X042418Y052705
X042418Y049784
X050038Y049784
X050038Y034798
X042418Y034798
X042418Y031623
X050038Y031623
X050038Y040513
X042418Y040513
X042418Y037592
X050038Y037592
T05
X123711Y034359G85X124701Y034359
X123711Y038059G85X124701Y038059
X123711Y042459G85X124701Y042459
X123711Y046159G85X124701Y046159
X050800Y060833
X050800Y063332
X050800Y065913
X116840Y060833
X116840Y063332
X116840Y065913
X083947Y060706
X083947Y063205
X083947Y065786
T06
X078740Y037592
X078740Y035052
X078740Y032512
X078740Y029972
X078740Y027432
X078740Y024892
X078740Y040132
X078740Y042672
X078740Y045212
X078740Y047752
T07
X011938Y018669
X011938Y015621
X011938Y021717
T08
X011430Y043307
X036830Y038227
X036830Y035687
X011430Y035687
X011430Y038227
X011430Y040767
X036830Y040767
T09
X036830Y081407
X036830Y078867
X036830Y076327
X036830Y073787
X036830Y071247
X036830Y068707
X036830Y066167
X036830Y063627
X011430Y063627
X011430Y066167
X011430Y068707
X011430Y071247
X011430Y073787
X011430Y076327
X011430Y078867
X011430Y081407
X011430Y061087
X011430Y058547
X011430Y056007
X011430Y053467
X011430Y050927
X011430Y048387
X011430Y045847
X036830Y043307
X036830Y045847
X036830Y048387
X036830Y050927
X036830Y053467
X036830Y056007
X036830Y058547
X036830Y061087
T10
X063500Y069723
X060957Y069726
X058417Y069726
X058417Y057026
X063500Y057023
X060960Y057023
X129540Y069723
X126997Y069726
X124457Y069726
X124457Y057026
X129540Y057023
X127000Y057023
X096647Y069596
X094104Y069599
X091564Y069599
X091564Y056899
X096647Y056896
X094107Y056896
X029972Y020828
X029972Y015748
X029972Y018288
T11
X056134Y076454
X051054Y076454
X122047Y076581
X116967Y076581
X089154Y076073
X084074Y076073
T12
X011938Y012065
X011938Y025019
T13
X063627Y081661
X068628Y081661
X134239Y040640
X134239Y035639
X129667Y081661
X134668Y081661
X096647Y081661
X101648Y081661
M30
