G04 Layer: TopLayer*
G04 EasyEDA v6.5.40, 2024-02-16 14:27:15*
G04 e6df629b51dc495ebfef8267a6aecd5e,cfde26286956488f8bb48462f070ee61,10*
G04 Gerber Generator version 0.2*
G04 Scale: 100 percent, Rotated: No, Reflected: No *
G04 Dimensions in millimeters *
G04 leading zeros omitted , absolute positions ,4 integer and 5 decimal *
%FSLAX45Y45*%
%MOMM*%

%AMMACRO1*21,1,$1,$2,0,0,$3*%
%ADD10C,3.0000*%
%ADD11C,2.0000*%
%ADD12C,1.0000*%
%ADD13C,0.5000*%
%ADD14C,0.2500*%
%ADD15C,3.0480*%
%ADD16R,1.2700X1.2700*%
%ADD17C,1.2700*%
%ADD18C,1.8796*%
%ADD19O,2.4999949999999997X1.499997*%
%ADD20C,2.3000*%
%ADD21C,2.1000*%
%ADD22C,1.5240*%
%ADD23C,1.1938*%
%ADD24O,1.9999959999999999X2.4999949999999997*%
%ADD25MACRO1,2.0015X2.4994X0.0000*%
%ADD26R,2.5000X2.0000*%
%ADD27O,2.4999949999999997X1.9999959999999999*%
%ADD28C,2.2000*%
%ADD29C,1.6332*%
%ADD30R,1.6332X1.6332*%
%ADD31C,1.6330*%
%ADD32R,1.6330X1.6330*%
%ADD33C,0.6096*%
%ADD34C,0.0132*%

%LPD*%
G36*
X696671Y838708D02*
G01*
X692759Y839469D01*
X689457Y841705D01*
X687273Y845007D01*
X686511Y848918D01*
X725728Y8564016D01*
X726490Y8567877D01*
X728726Y8571179D01*
X731977Y8573363D01*
X735888Y8574125D01*
X13794790Y8597341D01*
X13798651Y8596579D01*
X13801953Y8594394D01*
X13804138Y8591194D01*
X13804950Y8587333D01*
X13930782Y849020D01*
X13930071Y845108D01*
X13927886Y841756D01*
X13924584Y839520D01*
X13920622Y838708D01*
G37*

%LPC*%
G36*
X1185875Y1070864D02*
G01*
X1201724Y1070864D01*
X1217422Y1072692D01*
X1232763Y1076299D01*
X1247648Y1081735D01*
X1261770Y1088796D01*
X1274927Y1097483D01*
X1287068Y1107643D01*
X1297889Y1119174D01*
X1307338Y1131824D01*
X1315212Y1145489D01*
X1321511Y1160018D01*
X1326032Y1175156D01*
X1328775Y1190701D01*
X1329690Y1206500D01*
X1328775Y1222298D01*
X1326032Y1237843D01*
X1321511Y1252982D01*
X1315212Y1267510D01*
X1307338Y1281176D01*
X1297889Y1293825D01*
X1287068Y1305356D01*
X1274927Y1315516D01*
X1261770Y1324203D01*
X1247648Y1331264D01*
X1232763Y1336700D01*
X1217422Y1340307D01*
X1201724Y1342136D01*
X1185875Y1342136D01*
X1170178Y1340307D01*
X1154836Y1336700D01*
X1139952Y1331264D01*
X1125829Y1324203D01*
X1112672Y1315516D01*
X1100531Y1305356D01*
X1089710Y1293825D01*
X1080262Y1281176D01*
X1072388Y1267510D01*
X1066088Y1252982D01*
X1061567Y1237843D01*
X1058824Y1222298D01*
X1057910Y1206500D01*
X1058824Y1190701D01*
X1061567Y1175156D01*
X1066088Y1160018D01*
X1072388Y1145489D01*
X1080262Y1131824D01*
X1089710Y1119174D01*
X1100531Y1107643D01*
X1112672Y1097483D01*
X1125829Y1088796D01*
X1139952Y1081735D01*
X1154836Y1076299D01*
X1170178Y1072692D01*
G37*
G36*
X3594608Y1434795D02*
G01*
X6400292Y1434795D01*
X6408267Y1435557D01*
X6415481Y1437741D01*
X6422136Y1441297D01*
X6428333Y1446377D01*
X7215022Y2233066D01*
X7220102Y2239264D01*
X7223658Y2245918D01*
X7225842Y2253132D01*
X7226604Y2261108D01*
X7226604Y2850083D01*
X7227366Y2853994D01*
X7229602Y2857246D01*
X7424674Y3052318D01*
X7427569Y3054350D01*
X7430973Y3055264D01*
X7439304Y3056026D01*
X7448753Y3058566D01*
X7457694Y3062681D01*
X7465720Y3068320D01*
X7472680Y3075279D01*
X7478318Y3083306D01*
X7482433Y3092246D01*
X7484973Y3101695D01*
X7485837Y3111500D01*
X7484973Y3121304D01*
X7482433Y3130753D01*
X7478318Y3139694D01*
X7472680Y3147720D01*
X7465720Y3154680D01*
X7457694Y3160318D01*
X7448753Y3164433D01*
X7439304Y3166973D01*
X7429500Y3167837D01*
X7419695Y3166973D01*
X7410246Y3164433D01*
X7401306Y3160318D01*
X7393279Y3154680D01*
X7386320Y3147720D01*
X7380681Y3139694D01*
X7376566Y3130753D01*
X7374026Y3121304D01*
X7373264Y3112973D01*
X7372350Y3109569D01*
X7370318Y3106674D01*
X7161377Y2897733D01*
X7156297Y2891536D01*
X7152741Y2884881D01*
X7150557Y2877667D01*
X7149795Y2869692D01*
X7149795Y2280716D01*
X7149033Y2276805D01*
X7146798Y2273554D01*
X6387846Y1514602D01*
X6384594Y1512366D01*
X6380683Y1511604D01*
X3614216Y1511604D01*
X3610305Y1512366D01*
X3607054Y1514602D01*
X3394201Y1727454D01*
X3391966Y1730705D01*
X3391204Y1734616D01*
X3391204Y1770634D01*
X3392119Y1774799D01*
X3394608Y1778254D01*
X3398316Y1780336D01*
X3402584Y1780743D01*
X3406597Y1779320D01*
X3409746Y1776425D01*
X3415436Y1768144D01*
X3421684Y1761896D01*
X3428949Y1756816D01*
X3437026Y1753057D01*
X3445560Y1750771D01*
X3454857Y1749958D01*
X3782110Y1749958D01*
X3785209Y1749450D01*
X3788003Y1748078D01*
X3799687Y1736191D01*
X3809441Y1728876D01*
X3820160Y1723034D01*
X3831590Y1718767D01*
X3843528Y1716176D01*
X3855720Y1715312D01*
X3867912Y1716176D01*
X3879850Y1718767D01*
X3891279Y1723034D01*
X3901998Y1728876D01*
X3911752Y1736191D01*
X3920388Y1744827D01*
X3927703Y1754581D01*
X3933545Y1765300D01*
X3937812Y1776730D01*
X3940403Y1788668D01*
X3941267Y1800860D01*
X3940403Y1813052D01*
X3937812Y1824989D01*
X3933545Y1836420D01*
X3927703Y1847138D01*
X3920388Y1856892D01*
X3911752Y1865528D01*
X3901998Y1872843D01*
X3891279Y1878685D01*
X3879850Y1882952D01*
X3867912Y1885543D01*
X3855720Y1886407D01*
X3843528Y1885543D01*
X3831590Y1882952D01*
X3820160Y1878685D01*
X3809441Y1872843D01*
X3799687Y1865528D01*
X3788003Y1853641D01*
X3785209Y1852269D01*
X3782110Y1851761D01*
X3515461Y1851761D01*
X3511600Y1852523D01*
X3508298Y1854758D01*
X3506063Y1858060D01*
X3505301Y1861921D01*
X3505301Y3098596D01*
X3505098Y3103219D01*
X3504539Y3107639D01*
X3503574Y3111957D01*
X3502253Y3116224D01*
X3500526Y3120288D01*
X3498494Y3124250D01*
X3496106Y3128010D01*
X3493414Y3131515D01*
X3490264Y3134969D01*
X3330498Y3294735D01*
X3328263Y3297986D01*
X3327501Y3301898D01*
X3327501Y4704638D01*
X3328466Y4708956D01*
X3330549Y4711700D01*
X3328466Y4714443D01*
X3327501Y4718761D01*
X3327501Y7988401D01*
X3328263Y7992313D01*
X3330498Y7995564D01*
X3409035Y8074101D01*
X3412286Y8076336D01*
X3416198Y8077098D01*
X3591458Y8077098D01*
X3595624Y8076184D01*
X3599078Y8073644D01*
X3606952Y8064652D01*
X3617518Y8055356D01*
X3629202Y8047583D01*
X3641851Y8041335D01*
X3655161Y8036814D01*
X3668979Y8034070D01*
X3683000Y8033156D01*
X3697020Y8034070D01*
X3710838Y8036814D01*
X3724148Y8041335D01*
X3736797Y8047583D01*
X3748481Y8055356D01*
X3759047Y8064652D01*
X3768344Y8075218D01*
X3776116Y8086902D01*
X3782364Y8099552D01*
X3786886Y8112861D01*
X3789629Y8126679D01*
X3790543Y8140700D01*
X3789629Y8154720D01*
X3786886Y8168538D01*
X3782364Y8181848D01*
X3776116Y8194497D01*
X3768344Y8206181D01*
X3759047Y8216747D01*
X3748481Y8226044D01*
X3736797Y8233816D01*
X3724148Y8240064D01*
X3710838Y8244586D01*
X3697020Y8247329D01*
X3683000Y8248243D01*
X3668979Y8247329D01*
X3655161Y8244586D01*
X3641851Y8240064D01*
X3629202Y8233816D01*
X3617518Y8226044D01*
X3606952Y8216747D01*
X3597656Y8206181D01*
X3589883Y8194497D01*
X3584956Y8184591D01*
X3582720Y8181594D01*
X3579571Y8179612D01*
X3575862Y8178901D01*
X3391103Y8178901D01*
X3386480Y8178698D01*
X3382060Y8178139D01*
X3377742Y8177174D01*
X3373475Y8175853D01*
X3369411Y8174126D01*
X3365449Y8172094D01*
X3361690Y8169706D01*
X3358184Y8167014D01*
X3354730Y8163864D01*
X3240735Y8049869D01*
X3237585Y8046415D01*
X3234893Y8042909D01*
X3232505Y8039150D01*
X3230473Y8035188D01*
X3228746Y8031124D01*
X3227425Y8026857D01*
X3226460Y8022539D01*
X3225901Y8018119D01*
X3225698Y8013496D01*
X3225698Y3276803D01*
X3225901Y3272180D01*
X3226460Y3267760D01*
X3227425Y3263442D01*
X3228746Y3259175D01*
X3230473Y3255111D01*
X3232505Y3251149D01*
X3234893Y3247390D01*
X3237585Y3243884D01*
X3240735Y3240430D01*
X3400501Y3080664D01*
X3402736Y3077413D01*
X3403498Y3073501D01*
X3403498Y2363520D01*
X3402634Y2359456D01*
X3400247Y2356053D01*
X3396742Y2353919D01*
X3392627Y2353360D01*
X3388664Y2354478D01*
X3385413Y2357120D01*
X3379571Y2364333D01*
X1640433Y4103522D01*
X1634236Y4108602D01*
X1627581Y4112158D01*
X1620367Y4114342D01*
X1612392Y4115104D01*
X1250035Y4115104D01*
X1246327Y4115815D01*
X1243177Y4117797D01*
X1240891Y4120794D01*
X1236116Y4130446D01*
X1228293Y4142181D01*
X1219047Y4152747D01*
X1208481Y4161993D01*
X1196746Y4169816D01*
X1184148Y4176064D01*
X1170838Y4180586D01*
X1157020Y4183329D01*
X1143000Y4184243D01*
X1128979Y4183329D01*
X1115161Y4180586D01*
X1101852Y4176064D01*
X1089253Y4169816D01*
X1077518Y4161993D01*
X1066952Y4152747D01*
X1057706Y4142181D01*
X1049883Y4130446D01*
X1043635Y4117848D01*
X1039114Y4104538D01*
X1036370Y4090720D01*
X1035456Y4076700D01*
X1036370Y4062679D01*
X1039114Y4048861D01*
X1043635Y4035551D01*
X1049883Y4022953D01*
X1057706Y4011218D01*
X1066952Y4000652D01*
X1077518Y3991406D01*
X1089253Y3983583D01*
X1101852Y3977335D01*
X1115161Y3972814D01*
X1128979Y3970070D01*
X1143000Y3969156D01*
X1157020Y3970070D01*
X1170838Y3972814D01*
X1184148Y3977335D01*
X1196746Y3983583D01*
X1208481Y3991406D01*
X1219047Y4000652D01*
X1228293Y4011218D01*
X1236116Y4022953D01*
X1240891Y4032605D01*
X1243177Y4035602D01*
X1246327Y4037584D01*
X1250035Y4038295D01*
X1592783Y4038295D01*
X1596694Y4037533D01*
X1599946Y4035298D01*
X3311398Y2323846D01*
X3313633Y2320594D01*
X3314395Y2316683D01*
X3314395Y1715007D01*
X3315157Y1707032D01*
X3317341Y1699818D01*
X3320897Y1693164D01*
X3325977Y1686966D01*
X3566566Y1446377D01*
X3572764Y1441297D01*
X3579418Y1437741D01*
X3586632Y1435557D01*
G37*
G36*
X2972511Y1448866D02*
G01*
X3021888Y1448866D01*
X3037382Y1449832D01*
X3052318Y1452575D01*
X3066846Y1457096D01*
X3080715Y1463344D01*
X3093720Y1471218D01*
X3105658Y1480566D01*
X3116427Y1491335D01*
X3125825Y1503273D01*
X3133648Y1516278D01*
X3139897Y1530146D01*
X3144418Y1544675D01*
X3147161Y1559610D01*
X3148076Y1574800D01*
X3147161Y1589989D01*
X3144418Y1604924D01*
X3139897Y1619453D01*
X3133648Y1633321D01*
X3125825Y1646326D01*
X3116427Y1658264D01*
X3105658Y1669034D01*
X3093720Y1678381D01*
X3080715Y1686255D01*
X3066796Y1692554D01*
X3063646Y1694738D01*
X3061462Y1698294D01*
X3060293Y1697380D01*
X3056636Y1696415D01*
X3052318Y1697024D01*
X3037382Y1699768D01*
X3021888Y1700682D01*
X2972511Y1700682D01*
X2957017Y1699768D01*
X2941523Y1696872D01*
X2937764Y1696415D01*
X2934106Y1697380D01*
X2932887Y1697989D01*
X2930753Y1694738D01*
X2927604Y1692554D01*
X2913684Y1686255D01*
X2900680Y1678381D01*
X2888742Y1669034D01*
X2877972Y1658264D01*
X2868574Y1646326D01*
X2860751Y1633321D01*
X2854502Y1619453D01*
X2849981Y1604924D01*
X2847238Y1589989D01*
X2846324Y1574800D01*
X2847238Y1559610D01*
X2849981Y1544675D01*
X2854502Y1530146D01*
X2860751Y1516278D01*
X2868574Y1503273D01*
X2877972Y1491335D01*
X2888742Y1480566D01*
X2900680Y1471218D01*
X2913684Y1463344D01*
X2927553Y1457096D01*
X2942082Y1452575D01*
X2957017Y1449832D01*
G37*
G36*
X1190396Y1460093D02*
G01*
X1204010Y1460550D01*
X1217472Y1462786D01*
X1230477Y1466850D01*
X1242872Y1472590D01*
X1254353Y1479905D01*
X1264767Y1488694D01*
X1273911Y1498854D01*
X1281633Y1510080D01*
X1287780Y1522222D01*
X1292250Y1535125D01*
X1294993Y1548485D01*
X1295908Y1562100D01*
X1294993Y1575714D01*
X1292250Y1589074D01*
X1287780Y1601978D01*
X1281633Y1614119D01*
X1273911Y1625346D01*
X1264767Y1635506D01*
X1254353Y1644294D01*
X1242872Y1651609D01*
X1230477Y1657350D01*
X1217472Y1661414D01*
X1204010Y1663649D01*
X1190396Y1664106D01*
X1176832Y1662785D01*
X1163574Y1659585D01*
X1150823Y1654708D01*
X1138885Y1648155D01*
X1127912Y1640078D01*
X1118108Y1630578D01*
X1109624Y1619859D01*
X1102664Y1608124D01*
X1097381Y1595577D01*
X1093774Y1582420D01*
X1091946Y1568907D01*
X1091946Y1555292D01*
X1093774Y1541780D01*
X1097381Y1528622D01*
X1102664Y1516075D01*
X1109624Y1504340D01*
X1118108Y1493621D01*
X1127912Y1484122D01*
X1138885Y1476044D01*
X1150823Y1469491D01*
X1163574Y1464614D01*
X1176832Y1461414D01*
G37*
G36*
X2928366Y1710537D02*
G01*
X2928366Y1772462D01*
X2859786Y1772462D01*
X2860751Y1770278D01*
X2868574Y1757273D01*
X2877972Y1745335D01*
X2888742Y1734566D01*
X2900680Y1725218D01*
X2913684Y1717344D01*
X2927604Y1711045D01*
G37*
G36*
X3066034Y1710537D02*
G01*
X3066796Y1711045D01*
X3080715Y1717344D01*
X3093720Y1725218D01*
X3105658Y1734566D01*
X3116427Y1745335D01*
X3125825Y1757273D01*
X3133648Y1770278D01*
X3134614Y1772462D01*
X3066034Y1772462D01*
G37*
G36*
X1190396Y1764893D02*
G01*
X1204010Y1765350D01*
X1217472Y1767586D01*
X1230477Y1771650D01*
X1242872Y1777390D01*
X1254353Y1784705D01*
X1264767Y1793493D01*
X1273911Y1803654D01*
X1281633Y1814880D01*
X1287780Y1827022D01*
X1292250Y1839925D01*
X1294993Y1853285D01*
X1295908Y1866900D01*
X1294993Y1880514D01*
X1292250Y1893874D01*
X1287780Y1906778D01*
X1281633Y1918919D01*
X1273911Y1930146D01*
X1264767Y1940306D01*
X1254353Y1949094D01*
X1242872Y1956409D01*
X1230477Y1962150D01*
X1217472Y1966214D01*
X1204010Y1968449D01*
X1190396Y1968906D01*
X1176832Y1967585D01*
X1163574Y1964385D01*
X1150823Y1959508D01*
X1146556Y1957171D01*
X1144168Y1956206D01*
X1141679Y1955901D01*
X899261Y1955901D01*
X895400Y1956663D01*
X892098Y1958898D01*
X889863Y1962200D01*
X889101Y1966061D01*
X889101Y5539638D01*
X889863Y5543499D01*
X892098Y5546801D01*
X895400Y5549036D01*
X899261Y5549798D01*
X1042517Y5549798D01*
X1045768Y5549239D01*
X1048715Y5547715D01*
X1050950Y5545277D01*
X1057656Y5535218D01*
X1066952Y5524652D01*
X1077518Y5515356D01*
X1089202Y5507583D01*
X1101852Y5501335D01*
X1115161Y5496814D01*
X1128979Y5494070D01*
X1143000Y5493156D01*
X1157020Y5494070D01*
X1170838Y5496814D01*
X1184148Y5501335D01*
X1196797Y5507583D01*
X1208481Y5515356D01*
X1219047Y5524652D01*
X1228344Y5535218D01*
X1236116Y5546902D01*
X1242364Y5559552D01*
X1246886Y5572861D01*
X1249629Y5586679D01*
X1250543Y5600700D01*
X1249629Y5614720D01*
X1246886Y5628538D01*
X1242364Y5641848D01*
X1236116Y5654497D01*
X1228344Y5666181D01*
X1219047Y5676747D01*
X1208481Y5686044D01*
X1196797Y5693816D01*
X1184148Y5700064D01*
X1170838Y5704586D01*
X1157020Y5707329D01*
X1143000Y5708243D01*
X1128979Y5707329D01*
X1115161Y5704586D01*
X1101852Y5700064D01*
X1089202Y5693816D01*
X1077518Y5686044D01*
X1066952Y5676747D01*
X1057656Y5666181D01*
X1050950Y5656122D01*
X1048715Y5653684D01*
X1045768Y5652160D01*
X1042517Y5651601D01*
X851103Y5651601D01*
X846480Y5651398D01*
X842060Y5650839D01*
X837742Y5649874D01*
X833475Y5648553D01*
X829411Y5646826D01*
X825449Y5644794D01*
X821690Y5642406D01*
X818184Y5639714D01*
X814730Y5636564D01*
X802335Y5624169D01*
X799185Y5620715D01*
X796493Y5617210D01*
X794105Y5613450D01*
X792073Y5609488D01*
X790346Y5605424D01*
X789025Y5601157D01*
X788060Y5596839D01*
X787501Y5592419D01*
X787298Y5587796D01*
X787298Y1930603D01*
X787501Y1925980D01*
X788060Y1921560D01*
X789025Y1917242D01*
X790346Y1912975D01*
X792073Y1908911D01*
X794105Y1904949D01*
X796493Y1901189D01*
X799185Y1897684D01*
X802335Y1894230D01*
X827430Y1869135D01*
X830884Y1865985D01*
X834390Y1863293D01*
X838149Y1860905D01*
X842111Y1858873D01*
X846175Y1857146D01*
X850442Y1855825D01*
X854760Y1854860D01*
X859180Y1854301D01*
X863803Y1854098D01*
X1083970Y1854098D01*
X1088237Y1853133D01*
X1091692Y1850491D01*
X1093724Y1846630D01*
X1097381Y1833422D01*
X1102664Y1820875D01*
X1109624Y1809140D01*
X1118108Y1798421D01*
X1127912Y1788922D01*
X1138885Y1780844D01*
X1150823Y1774291D01*
X1163574Y1769414D01*
X1176832Y1766214D01*
G37*
G36*
X2859786Y1885137D02*
G01*
X2928366Y1885137D01*
X2928366Y1946706D01*
X2929128Y1950618D01*
X2931312Y1953920D01*
X2934614Y1956104D01*
X2938526Y1956866D01*
X3055874Y1956866D01*
X3059785Y1956104D01*
X3063087Y1953920D01*
X3065272Y1950618D01*
X3066034Y1946706D01*
X3066034Y1885137D01*
X3134614Y1885137D01*
X3133648Y1887321D01*
X3125825Y1900326D01*
X3116427Y1912264D01*
X3105658Y1923034D01*
X3093720Y1932381D01*
X3084372Y1938020D01*
X3081223Y1941068D01*
X3079648Y1945081D01*
X3079851Y1949450D01*
X3081934Y1953310D01*
X3085388Y1955952D01*
X3089656Y1956866D01*
X3121609Y1956866D01*
X3127959Y1957628D01*
X3133394Y1959508D01*
X3138322Y1962607D01*
X3142386Y1966671D01*
X3145485Y1971598D01*
X3147415Y1977034D01*
X3148126Y1983384D01*
X3148126Y2182215D01*
X3147415Y2188565D01*
X3145485Y2194001D01*
X3142386Y2198928D01*
X3138322Y2202992D01*
X3133394Y2206091D01*
X3127959Y2207971D01*
X3121609Y2208682D01*
X2872790Y2208682D01*
X2866440Y2207971D01*
X2861005Y2206091D01*
X2856077Y2202992D01*
X2852013Y2198928D01*
X2848914Y2194001D01*
X2846984Y2188565D01*
X2846273Y2182215D01*
X2846273Y1983384D01*
X2846984Y1977034D01*
X2848914Y1971598D01*
X2852013Y1966671D01*
X2856077Y1962607D01*
X2861005Y1959508D01*
X2866440Y1957628D01*
X2872790Y1956866D01*
X2904744Y1956866D01*
X2909011Y1955952D01*
X2912465Y1953310D01*
X2914548Y1949450D01*
X2914751Y1945081D01*
X2913176Y1941068D01*
X2910027Y1938020D01*
X2900680Y1932381D01*
X2888742Y1923034D01*
X2877972Y1912264D01*
X2868574Y1900326D01*
X2860751Y1887321D01*
G37*
G36*
X3891940Y1977389D02*
G01*
X3901998Y1982876D01*
X3911752Y1990191D01*
X3920388Y1998827D01*
X3927703Y2008581D01*
X3933190Y2018639D01*
X3891940Y2018639D01*
G37*
G36*
X3819550Y1977389D02*
G01*
X3819550Y2018639D01*
X3778250Y2018639D01*
X3783736Y2008581D01*
X3791051Y1998827D01*
X3799687Y1990191D01*
X3809441Y1982876D01*
G37*
G36*
X1149350Y2079904D02*
G01*
X1149350Y2127250D01*
X1102004Y2127250D01*
X1102664Y2125675D01*
X1109624Y2113940D01*
X1118108Y2103221D01*
X1127912Y2093722D01*
X1138885Y2085644D01*
G37*
G36*
X1238250Y2080056D02*
G01*
X1242872Y2082190D01*
X1254353Y2089505D01*
X1264767Y2098294D01*
X1273911Y2108454D01*
X1281633Y2119680D01*
X1285443Y2127250D01*
X1238250Y2127250D01*
G37*
G36*
X3778250Y2091029D02*
G01*
X3819550Y2091029D01*
X3819550Y2132330D01*
X3809441Y2126843D01*
X3799687Y2119528D01*
X3791051Y2110892D01*
X3783736Y2101138D01*
G37*
G36*
X3891940Y2091029D02*
G01*
X3933190Y2091029D01*
X3927703Y2101138D01*
X3920388Y2110892D01*
X3911752Y2119528D01*
X3901998Y2126843D01*
X3891940Y2132330D01*
G37*
G36*
X1238250Y2216150D02*
G01*
X1285443Y2216150D01*
X1281633Y2223719D01*
X1273911Y2234946D01*
X1264767Y2245106D01*
X1254353Y2253894D01*
X1242872Y2261209D01*
X1238250Y2263343D01*
G37*
G36*
X1102004Y2216150D02*
G01*
X1149350Y2216150D01*
X1149350Y2263495D01*
X1138885Y2257755D01*
X1127912Y2249678D01*
X1118108Y2240178D01*
X1109624Y2229459D01*
X1102664Y2217724D01*
G37*
G36*
X9109202Y2303526D02*
G01*
X9127998Y2303526D01*
X9146743Y2305456D01*
X9165183Y2309215D01*
X9183166Y2314854D01*
X9200489Y2322322D01*
X9216948Y2331466D01*
X9232392Y2342184D01*
X9246666Y2354478D01*
X9259671Y2368092D01*
X9271152Y2383028D01*
X9281160Y2398979D01*
X9289440Y2415895D01*
X9295993Y2433574D01*
X9300667Y2451760D01*
X9303562Y2470404D01*
X9304477Y2489200D01*
X9303562Y2507996D01*
X9300667Y2526639D01*
X9295993Y2544826D01*
X9289440Y2562504D01*
X9281160Y2579420D01*
X9271152Y2595372D01*
X9259671Y2610307D01*
X9246666Y2623921D01*
X9232392Y2636215D01*
X9216948Y2646934D01*
X9200489Y2656078D01*
X9183166Y2663545D01*
X9165183Y2669184D01*
X9146743Y2672943D01*
X9127998Y2674874D01*
X9109202Y2674874D01*
X9090456Y2672943D01*
X9072016Y2669184D01*
X9054033Y2663545D01*
X9036710Y2656078D01*
X9020251Y2646934D01*
X9004808Y2636215D01*
X8990533Y2623921D01*
X8977528Y2610307D01*
X8966047Y2595372D01*
X8956040Y2579420D01*
X8947759Y2562504D01*
X8941206Y2544826D01*
X8936532Y2526639D01*
X8933637Y2507996D01*
X8932722Y2489200D01*
X8933637Y2470404D01*
X8936532Y2451760D01*
X8941206Y2433574D01*
X8947759Y2415895D01*
X8956040Y2398979D01*
X8966047Y2383028D01*
X8977528Y2368092D01*
X8990533Y2354478D01*
X9004808Y2342184D01*
X9020251Y2331466D01*
X9036710Y2322322D01*
X9054033Y2314854D01*
X9072016Y2309215D01*
X9090456Y2305456D01*
G37*
G36*
X1185875Y2366264D02*
G01*
X1201724Y2366264D01*
X1217422Y2368092D01*
X1232763Y2371699D01*
X1247648Y2377135D01*
X1261770Y2384196D01*
X1274927Y2392883D01*
X1287068Y2403043D01*
X1297889Y2414574D01*
X1307338Y2427224D01*
X1315212Y2440889D01*
X1321511Y2455418D01*
X1326032Y2470556D01*
X1328775Y2486101D01*
X1329690Y2501900D01*
X1328775Y2517698D01*
X1326032Y2533243D01*
X1321511Y2548382D01*
X1315212Y2562910D01*
X1307338Y2576576D01*
X1297889Y2589225D01*
X1287068Y2600756D01*
X1274927Y2610916D01*
X1261770Y2619603D01*
X1247648Y2626664D01*
X1232763Y2632100D01*
X1217422Y2635707D01*
X1201724Y2637536D01*
X1185875Y2637536D01*
X1170178Y2635707D01*
X1154836Y2632100D01*
X1139952Y2626664D01*
X1125829Y2619603D01*
X1112672Y2610916D01*
X1100531Y2600756D01*
X1089710Y2589225D01*
X1080262Y2576576D01*
X1072388Y2562910D01*
X1066088Y2548382D01*
X1061567Y2533243D01*
X1058824Y2517698D01*
X1057910Y2501900D01*
X1058824Y2486101D01*
X1061567Y2470556D01*
X1066088Y2455418D01*
X1072388Y2440889D01*
X1080262Y2427224D01*
X1089710Y2414574D01*
X1100531Y2403043D01*
X1112672Y2392883D01*
X1125829Y2384196D01*
X1139952Y2377135D01*
X1154836Y2371699D01*
X1170178Y2368092D01*
G37*
G36*
X7870596Y2387193D02*
G01*
X7884210Y2387650D01*
X7897672Y2389886D01*
X7910677Y2393950D01*
X7923072Y2399690D01*
X7934553Y2407005D01*
X7944967Y2415794D01*
X7954111Y2425954D01*
X7961833Y2437180D01*
X7965998Y2445410D01*
X7968234Y2448356D01*
X7971434Y2450338D01*
X7975041Y2450998D01*
X8102396Y2450998D01*
X8107019Y2451201D01*
X8111439Y2451760D01*
X8115757Y2452725D01*
X8120024Y2454046D01*
X8124088Y2455773D01*
X8128050Y2457805D01*
X8131809Y2460193D01*
X8135315Y2462885D01*
X8138769Y2466035D01*
X8430564Y2757830D01*
X8433714Y2761284D01*
X8436406Y2764790D01*
X8438794Y2768549D01*
X8440826Y2772511D01*
X8442553Y2776575D01*
X8443874Y2780842D01*
X8444839Y2785160D01*
X8445398Y2789580D01*
X8445601Y2794203D01*
X8445601Y2945892D01*
X8446566Y2950210D01*
X8447633Y2952546D01*
X8450173Y2961995D01*
X8451037Y2971800D01*
X8450173Y2981604D01*
X8447633Y2991053D01*
X8443518Y2999994D01*
X8437880Y3008020D01*
X8430920Y3014980D01*
X8422894Y3020618D01*
X8413953Y3024733D01*
X8404504Y3027273D01*
X8394700Y3028137D01*
X8384895Y3027273D01*
X8375446Y3024733D01*
X8366506Y3020618D01*
X8358479Y3014980D01*
X8351520Y3008020D01*
X8345881Y2999994D01*
X8341766Y2991053D01*
X8339226Y2981604D01*
X8338362Y2971800D01*
X8339226Y2961995D01*
X8341766Y2952546D01*
X8342833Y2950210D01*
X8343798Y2945892D01*
X8343798Y2819298D01*
X8343036Y2815386D01*
X8340801Y2812135D01*
X8084464Y2555798D01*
X8081213Y2553563D01*
X8077301Y2552801D01*
X7958328Y2552801D01*
X7954213Y2553665D01*
X7950758Y2556154D01*
X7944967Y2562606D01*
X7934553Y2571394D01*
X7923072Y2578709D01*
X7910677Y2584450D01*
X7897672Y2588514D01*
X7884210Y2590749D01*
X7870596Y2591206D01*
X7857032Y2589885D01*
X7843774Y2586685D01*
X7831023Y2581808D01*
X7819085Y2575255D01*
X7808112Y2567178D01*
X7798308Y2557678D01*
X7789824Y2546959D01*
X7782864Y2535224D01*
X7777581Y2522677D01*
X7773974Y2509520D01*
X7772146Y2496007D01*
X7772146Y2482392D01*
X7773974Y2468880D01*
X7777581Y2455722D01*
X7782864Y2443175D01*
X7789824Y2431440D01*
X7798308Y2420721D01*
X7808112Y2411222D01*
X7819085Y2403144D01*
X7831023Y2396591D01*
X7843774Y2391714D01*
X7857032Y2388514D01*
G37*
G36*
X7870596Y2641193D02*
G01*
X7884210Y2641650D01*
X7897672Y2643886D01*
X7910677Y2647950D01*
X7923072Y2653690D01*
X7934553Y2661005D01*
X7944967Y2669794D01*
X7954111Y2679954D01*
X7959598Y2687878D01*
X7961833Y2690266D01*
X7964728Y2691790D01*
X7967929Y2692298D01*
X8102142Y2692298D01*
X8111439Y2693111D01*
X8119973Y2695397D01*
X8128050Y2699156D01*
X8135315Y2704236D01*
X8141563Y2710484D01*
X8146643Y2717749D01*
X8150402Y2725826D01*
X8152688Y2734360D01*
X8153501Y2743657D01*
X8153501Y4742738D01*
X8154466Y4747056D01*
X8156549Y4749800D01*
X8154466Y4752543D01*
X8153501Y4756861D01*
X8153501Y5003342D01*
X8152688Y5012639D01*
X8150402Y5021173D01*
X8146643Y5029250D01*
X8141563Y5036515D01*
X8135315Y5042763D01*
X8128050Y5047843D01*
X8119973Y5051602D01*
X8111439Y5053888D01*
X8102142Y5054701D01*
X5100828Y5054701D01*
X5096459Y5055717D01*
X5092395Y5059172D01*
X5081778Y5069433D01*
X5069992Y5078323D01*
X5057241Y5085689D01*
X5043627Y5091430D01*
X5029454Y5095494D01*
X5014874Y5097780D01*
X5000091Y5098186D01*
X4985410Y5096865D01*
X4970983Y5093716D01*
X4957064Y5088788D01*
X4943856Y5082184D01*
X4931562Y5074056D01*
X4920335Y5064455D01*
X4910429Y5053533D01*
X4901895Y5041493D01*
X4894884Y5028488D01*
X4889550Y5014722D01*
X4885994Y5000447D01*
X4884166Y4985766D01*
X4884166Y4971034D01*
X4885994Y4956352D01*
X4889550Y4942078D01*
X4894884Y4928311D01*
X4901895Y4915306D01*
X4910429Y4903266D01*
X4918913Y4893919D01*
X4920945Y4890566D01*
X4921554Y4886756D01*
X4920691Y4882946D01*
X4918506Y4879797D01*
X4915255Y4877663D01*
X4911394Y4876901D01*
X4334052Y4876901D01*
X4330141Y4877714D01*
X4326839Y4879898D01*
X4324654Y4883251D01*
X4323892Y4887163D01*
X4324756Y4891074D01*
X4326991Y4894376D01*
X4330395Y4897628D01*
X4339640Y4909159D01*
X4347413Y4921707D01*
X4353560Y4935118D01*
X4358030Y4949139D01*
X4360773Y4963668D01*
X4361688Y4978400D01*
X4360773Y4993132D01*
X4358030Y5007660D01*
X4353560Y5021681D01*
X4347413Y5035092D01*
X4339640Y5047640D01*
X4330395Y5059172D01*
X4319778Y5069433D01*
X4307992Y5078323D01*
X4295241Y5085689D01*
X4281627Y5091430D01*
X4267454Y5095494D01*
X4252874Y5097780D01*
X4238091Y5098186D01*
X4223410Y5096865D01*
X4208983Y5093716D01*
X4195064Y5088788D01*
X4181856Y5082184D01*
X4169562Y5074056D01*
X4158335Y5064455D01*
X4148429Y5053533D01*
X4139895Y5041493D01*
X4132884Y5028488D01*
X4127550Y5014722D01*
X4123994Y5000447D01*
X4122165Y4985766D01*
X4122165Y4971034D01*
X4123994Y4956352D01*
X4127550Y4942078D01*
X4132884Y4928311D01*
X4139895Y4915306D01*
X4148429Y4903266D01*
X4156913Y4893919D01*
X4158945Y4890566D01*
X4159554Y4886756D01*
X4158691Y4882946D01*
X4156506Y4879797D01*
X4153255Y4877663D01*
X4149394Y4876901D01*
X3912057Y4876901D01*
X3902760Y4876088D01*
X3894226Y4873802D01*
X3886149Y4870043D01*
X3878884Y4864963D01*
X3872636Y4858715D01*
X3867556Y4851450D01*
X3863797Y4843373D01*
X3861511Y4834839D01*
X3860698Y4825542D01*
X3860698Y4760061D01*
X3859936Y4756200D01*
X3857701Y4752898D01*
X3854399Y4750663D01*
X3850538Y4749901D01*
X3770782Y4749901D01*
X3767328Y4750511D01*
X3763975Y4752543D01*
X3761486Y4755692D01*
X3760368Y4759553D01*
X3760876Y4763516D01*
X3762857Y4767021D01*
X3768344Y4773218D01*
X3776116Y4784902D01*
X3782364Y4797552D01*
X3786886Y4810861D01*
X3789629Y4824679D01*
X3790543Y4838700D01*
X3789629Y4852720D01*
X3786886Y4866538D01*
X3782364Y4879848D01*
X3776116Y4892497D01*
X3768344Y4904181D01*
X3759047Y4914747D01*
X3748481Y4924044D01*
X3736797Y4931816D01*
X3724148Y4938064D01*
X3710838Y4942586D01*
X3697020Y4945329D01*
X3683000Y4946243D01*
X3668979Y4945329D01*
X3655161Y4942586D01*
X3641851Y4938064D01*
X3629202Y4931816D01*
X3617518Y4924044D01*
X3606952Y4914747D01*
X3597656Y4904181D01*
X3589883Y4892497D01*
X3583635Y4879848D01*
X3579114Y4866538D01*
X3576370Y4852720D01*
X3575456Y4838700D01*
X3576370Y4824679D01*
X3579114Y4810861D01*
X3583635Y4797552D01*
X3589883Y4784902D01*
X3594201Y4778400D01*
X3595776Y4774336D01*
X3595522Y4770018D01*
X3593490Y4766157D01*
X3590036Y4763516D01*
X3585768Y4762601D01*
X3429508Y4762601D01*
X3425190Y4763566D01*
X3422853Y4764633D01*
X3413404Y4767173D01*
X3403600Y4768037D01*
X3393795Y4767173D01*
X3384346Y4764633D01*
X3375406Y4760518D01*
X3367379Y4754880D01*
X3360420Y4747920D01*
X3354781Y4739894D01*
X3350666Y4730953D01*
X3348126Y4721504D01*
X3347770Y4717846D01*
X3346450Y4713681D01*
X3344672Y4711700D01*
X3346450Y4709718D01*
X3347770Y4705553D01*
X3348126Y4701895D01*
X3350666Y4692446D01*
X3354781Y4683506D01*
X3360420Y4675479D01*
X3367379Y4668520D01*
X3375406Y4662881D01*
X3384346Y4658766D01*
X3393795Y4656226D01*
X3403600Y4655362D01*
X3413404Y4656226D01*
X3422853Y4658766D01*
X3425190Y4659833D01*
X3429508Y4660798D01*
X3585768Y4660798D01*
X3590036Y4659884D01*
X3593490Y4657242D01*
X3595522Y4653381D01*
X3595776Y4649063D01*
X3594201Y4644999D01*
X3589883Y4638497D01*
X3583635Y4625848D01*
X3579114Y4612538D01*
X3576370Y4598720D01*
X3575456Y4584700D01*
X3576370Y4570679D01*
X3579114Y4556861D01*
X3583635Y4543552D01*
X3589883Y4530902D01*
X3597656Y4519218D01*
X3606952Y4508652D01*
X3617518Y4499356D01*
X3629202Y4491583D01*
X3641851Y4485335D01*
X3655161Y4480814D01*
X3668979Y4478070D01*
X3683000Y4477156D01*
X3697020Y4478070D01*
X3708908Y4480407D01*
X3712210Y4480560D01*
X3715359Y4479594D01*
X3718051Y4477664D01*
X3723030Y4472635D01*
X3726484Y4469485D01*
X3729990Y4466793D01*
X3733749Y4464405D01*
X3737711Y4462373D01*
X3741775Y4460646D01*
X3746042Y4459325D01*
X3750360Y4458360D01*
X3754780Y4457801D01*
X3759403Y4457598D01*
X4184599Y4457598D01*
X4188460Y4456836D01*
X4191762Y4454652D01*
X4193946Y4451350D01*
X4194759Y4447489D01*
X4193997Y4443577D01*
X4191812Y4440275D01*
X4188358Y4437989D01*
X4175607Y4430623D01*
X4163822Y4421733D01*
X4153204Y4411472D01*
X4143959Y4399940D01*
X4136186Y4387392D01*
X4130040Y4373981D01*
X4125569Y4359960D01*
X4122826Y4345432D01*
X4121912Y4330700D01*
X4122826Y4315968D01*
X4125569Y4301439D01*
X4130040Y4287418D01*
X4136186Y4274007D01*
X4143959Y4261459D01*
X4153204Y4249928D01*
X4163822Y4239666D01*
X4175607Y4230776D01*
X4188358Y4223410D01*
X4201972Y4217670D01*
X4216146Y4213606D01*
X4230725Y4211320D01*
X4245508Y4210862D01*
X4260189Y4212234D01*
X4274616Y4215384D01*
X4288536Y4220311D01*
X4301744Y4226915D01*
X4314037Y4235043D01*
X4325264Y4244644D01*
X4335170Y4255566D01*
X4343704Y4267606D01*
X4350715Y4280611D01*
X4356049Y4294378D01*
X4359605Y4308652D01*
X4361434Y4323334D01*
X4361434Y4338066D01*
X4359605Y4352747D01*
X4356049Y4367022D01*
X4350715Y4380788D01*
X4343704Y4393793D01*
X4335170Y4405833D01*
X4325264Y4416755D01*
X4314037Y4426356D01*
X4301744Y4434484D01*
X4294022Y4438345D01*
X4290568Y4441190D01*
X4288637Y4445254D01*
X4288688Y4449775D01*
X4290669Y4453788D01*
X4294174Y4456582D01*
X4298594Y4457598D01*
X4946599Y4457598D01*
X4950460Y4456836D01*
X4953609Y4454753D01*
X4956708Y4456836D01*
X4960620Y4457598D01*
X5046980Y4457598D01*
X5050891Y4456836D01*
X5053888Y4454804D01*
X5056174Y4456582D01*
X5060594Y4457598D01*
X5359501Y4457598D01*
X5363413Y4456836D01*
X5366664Y4454601D01*
X6351930Y3469335D01*
X6355384Y3466185D01*
X6358890Y3463493D01*
X6362649Y3461105D01*
X6366611Y3459073D01*
X6370675Y3457346D01*
X6374942Y3456025D01*
X6379260Y3455060D01*
X6383680Y3454501D01*
X6388303Y3454298D01*
X7779969Y3454298D01*
X7783423Y3453688D01*
X7786471Y3451961D01*
X7788706Y3449320D01*
X7789824Y3447440D01*
X7798308Y3436721D01*
X7808112Y3427222D01*
X7819085Y3419144D01*
X7831023Y3412591D01*
X7843774Y3407714D01*
X7857032Y3404514D01*
X7870596Y3403193D01*
X7884210Y3403650D01*
X7897672Y3405886D01*
X7910677Y3409950D01*
X7923072Y3415690D01*
X7934553Y3423005D01*
X7944967Y3431794D01*
X7954111Y3441954D01*
X7961833Y3453180D01*
X7967980Y3465322D01*
X7972450Y3478225D01*
X7975193Y3491585D01*
X7976108Y3505200D01*
X7975193Y3518814D01*
X7972450Y3532174D01*
X7967980Y3545078D01*
X7961833Y3557219D01*
X7954111Y3568446D01*
X7944967Y3578606D01*
X7934553Y3587394D01*
X7923072Y3594709D01*
X7910677Y3600450D01*
X7897672Y3604514D01*
X7884210Y3606749D01*
X7870596Y3607206D01*
X7857032Y3605885D01*
X7843774Y3602685D01*
X7831023Y3597808D01*
X7819085Y3591255D01*
X7808112Y3583178D01*
X7798308Y3573678D01*
X7789824Y3562959D01*
X7788706Y3561079D01*
X7786471Y3558438D01*
X7783423Y3556711D01*
X7779969Y3556101D01*
X6413398Y3556101D01*
X6409486Y3556863D01*
X6406235Y3559098D01*
X5420969Y4544364D01*
X5417515Y4547514D01*
X5414010Y4550206D01*
X5410250Y4552594D01*
X5406288Y4554626D01*
X5402224Y4556353D01*
X5397957Y4557674D01*
X5393639Y4558639D01*
X5389219Y4559198D01*
X5384596Y4559401D01*
X5061000Y4559401D01*
X5057140Y4560163D01*
X5053838Y4562348D01*
X5051653Y4565650D01*
X5050840Y4569510D01*
X5051602Y4573422D01*
X5053787Y4576724D01*
X5057241Y4579010D01*
X5069992Y4586376D01*
X5081778Y4595266D01*
X5092395Y4605528D01*
X5101640Y4617059D01*
X5109413Y4629607D01*
X5115560Y4643018D01*
X5120030Y4657039D01*
X5122773Y4671568D01*
X5123688Y4686300D01*
X5122773Y4701032D01*
X5120030Y4715560D01*
X5115560Y4729581D01*
X5109413Y4742992D01*
X5101640Y4755540D01*
X5099202Y4758537D01*
X5097424Y4761890D01*
X5097018Y4765649D01*
X5097983Y4769307D01*
X5100218Y4772355D01*
X5103418Y4774387D01*
X5107127Y4775098D01*
X5740501Y4775098D01*
X5744413Y4774336D01*
X5747664Y4772101D01*
X6478930Y4040835D01*
X6482384Y4037685D01*
X6485890Y4034993D01*
X6489649Y4032605D01*
X6493611Y4030573D01*
X6497675Y4028846D01*
X6501942Y4027525D01*
X6506260Y4026560D01*
X6510680Y4026001D01*
X6515303Y4025798D01*
X6553301Y4025798D01*
X6557213Y4025036D01*
X6560464Y4022801D01*
X6605930Y3977335D01*
X6609384Y3974185D01*
X6612890Y3971493D01*
X6616649Y3969105D01*
X6620611Y3967073D01*
X6624675Y3965346D01*
X6628942Y3964025D01*
X6633260Y3963060D01*
X6637680Y3962501D01*
X6642303Y3962298D01*
X7779969Y3962298D01*
X7783423Y3961688D01*
X7786471Y3959961D01*
X7788706Y3957320D01*
X7789824Y3955440D01*
X7798308Y3944721D01*
X7808112Y3935222D01*
X7819085Y3927144D01*
X7831023Y3920591D01*
X7843774Y3915714D01*
X7857032Y3912514D01*
X7870596Y3911193D01*
X7884210Y3911650D01*
X7897672Y3913886D01*
X7910677Y3917950D01*
X7923072Y3923690D01*
X7934553Y3931005D01*
X7944967Y3939794D01*
X7954111Y3949954D01*
X7961833Y3961180D01*
X7967980Y3973322D01*
X7972450Y3986225D01*
X7975193Y3999585D01*
X7976108Y4013200D01*
X7975193Y4026814D01*
X7972450Y4040174D01*
X7967980Y4053078D01*
X7961833Y4065219D01*
X7954111Y4076446D01*
X7944967Y4086606D01*
X7934553Y4095394D01*
X7923072Y4102709D01*
X7910677Y4108450D01*
X7897672Y4112514D01*
X7884210Y4114749D01*
X7870596Y4115206D01*
X7857032Y4113885D01*
X7843774Y4110685D01*
X7831023Y4105808D01*
X7819085Y4099255D01*
X7808112Y4091178D01*
X7798308Y4081678D01*
X7789824Y4070959D01*
X7788706Y4069079D01*
X7786471Y4066438D01*
X7783423Y4064711D01*
X7779969Y4064101D01*
X6667398Y4064101D01*
X6663486Y4064863D01*
X6660235Y4067098D01*
X6614769Y4112564D01*
X6611315Y4115714D01*
X6607809Y4118406D01*
X6604050Y4120794D01*
X6600088Y4122826D01*
X6596024Y4124553D01*
X6591757Y4125874D01*
X6587439Y4126839D01*
X6583019Y4127398D01*
X6578396Y4127601D01*
X6540398Y4127601D01*
X6536486Y4128363D01*
X6533235Y4130598D01*
X5801969Y4861864D01*
X5798515Y4865014D01*
X5795010Y4867706D01*
X5791250Y4870094D01*
X5787288Y4872126D01*
X5783224Y4873853D01*
X5778957Y4875174D01*
X5774639Y4876139D01*
X5770219Y4876698D01*
X5765596Y4876901D01*
X5096052Y4876901D01*
X5092141Y4877714D01*
X5088839Y4879898D01*
X5086654Y4883251D01*
X5085892Y4887163D01*
X5086756Y4891074D01*
X5088991Y4894376D01*
X5092395Y4897628D01*
X5101640Y4909159D01*
X5109413Y4921707D01*
X5115560Y4935118D01*
X5118963Y4945837D01*
X5121097Y4949494D01*
X5124500Y4951984D01*
X5128666Y4952898D01*
X8041538Y4952898D01*
X8045399Y4952136D01*
X8048701Y4949901D01*
X8050936Y4946599D01*
X8051698Y4942738D01*
X8051698Y2804261D01*
X8050936Y2800400D01*
X8048701Y2797098D01*
X8045399Y2794863D01*
X8041538Y2794101D01*
X7967929Y2794101D01*
X7964728Y2794609D01*
X7961833Y2796133D01*
X7959598Y2798521D01*
X7954111Y2806446D01*
X7944967Y2816606D01*
X7934553Y2825394D01*
X7923072Y2832709D01*
X7910677Y2838450D01*
X7897672Y2842514D01*
X7884210Y2844749D01*
X7870596Y2845206D01*
X7857032Y2843885D01*
X7843774Y2840685D01*
X7831023Y2835808D01*
X7819085Y2829255D01*
X7808112Y2821178D01*
X7798308Y2811678D01*
X7789824Y2800959D01*
X7782864Y2789224D01*
X7777581Y2776677D01*
X7773974Y2763520D01*
X7772146Y2750007D01*
X7772146Y2736392D01*
X7773974Y2722880D01*
X7777581Y2709722D01*
X7782864Y2697175D01*
X7789824Y2685440D01*
X7798308Y2674721D01*
X7808112Y2665222D01*
X7819085Y2657144D01*
X7831023Y2650591D01*
X7843774Y2645714D01*
X7857032Y2642514D01*
G37*
G36*
X7870596Y2895193D02*
G01*
X7884210Y2895650D01*
X7897672Y2897886D01*
X7910677Y2901950D01*
X7923072Y2907690D01*
X7934553Y2915005D01*
X7944967Y2923794D01*
X7954111Y2933954D01*
X7961833Y2945180D01*
X7967980Y2957322D01*
X7972450Y2970225D01*
X7975193Y2983585D01*
X7976108Y2997200D01*
X7975193Y3010814D01*
X7972450Y3024174D01*
X7967980Y3037078D01*
X7961833Y3049219D01*
X7954111Y3060446D01*
X7944967Y3070606D01*
X7934553Y3079394D01*
X7923072Y3086709D01*
X7910677Y3092450D01*
X7897672Y3096514D01*
X7884210Y3098749D01*
X7870596Y3099206D01*
X7857032Y3097885D01*
X7843774Y3094685D01*
X7831023Y3089808D01*
X7819085Y3083255D01*
X7808112Y3075178D01*
X7798308Y3065678D01*
X7789824Y3054959D01*
X7782864Y3043224D01*
X7777581Y3030677D01*
X7773974Y3017520D01*
X7772146Y3004007D01*
X7772146Y2990392D01*
X7773974Y2976880D01*
X7777581Y2963722D01*
X7782864Y2951175D01*
X7789824Y2939440D01*
X7798308Y2928721D01*
X7808112Y2919222D01*
X7819085Y2911144D01*
X7831023Y2904591D01*
X7843774Y2899714D01*
X7857032Y2896514D01*
G37*
G36*
X5000091Y3042462D02*
G01*
X5014874Y3042920D01*
X5029454Y3045206D01*
X5043627Y3049270D01*
X5057241Y3055010D01*
X5069992Y3062376D01*
X5081778Y3071266D01*
X5092395Y3081528D01*
X5101640Y3093059D01*
X5109413Y3105607D01*
X5115560Y3119018D01*
X5120030Y3133039D01*
X5122773Y3147568D01*
X5123688Y3162300D01*
X5122773Y3177032D01*
X5120030Y3191560D01*
X5115560Y3205581D01*
X5109413Y3218992D01*
X5101640Y3231540D01*
X5092395Y3243072D01*
X5081778Y3253333D01*
X5069992Y3262223D01*
X5057241Y3269589D01*
X5043627Y3275329D01*
X5029454Y3279394D01*
X5014874Y3281679D01*
X5000091Y3282086D01*
X4985410Y3280765D01*
X4970983Y3277615D01*
X4957064Y3272688D01*
X4943856Y3266084D01*
X4931562Y3257956D01*
X4920335Y3248355D01*
X4910429Y3237433D01*
X4901895Y3225393D01*
X4894884Y3212388D01*
X4889550Y3198622D01*
X4885994Y3184347D01*
X4884166Y3169666D01*
X4884166Y3154934D01*
X4885994Y3140252D01*
X4889550Y3125978D01*
X4894884Y3112211D01*
X4901895Y3099206D01*
X4910429Y3087166D01*
X4920335Y3076244D01*
X4931562Y3066643D01*
X4943856Y3058515D01*
X4957064Y3051911D01*
X4970983Y3046984D01*
X4985410Y3043834D01*
G37*
G36*
X4238091Y3042462D02*
G01*
X4252874Y3042920D01*
X4267454Y3045206D01*
X4281627Y3049270D01*
X4295241Y3055010D01*
X4307992Y3062376D01*
X4319778Y3071266D01*
X4330395Y3081528D01*
X4339640Y3093059D01*
X4347413Y3105607D01*
X4353560Y3119018D01*
X4358030Y3133039D01*
X4360773Y3147568D01*
X4361688Y3162300D01*
X4360773Y3177032D01*
X4358030Y3191560D01*
X4353560Y3205581D01*
X4347413Y3218992D01*
X4339640Y3231540D01*
X4330395Y3243072D01*
X4319778Y3253333D01*
X4307992Y3262223D01*
X4295241Y3269589D01*
X4281627Y3275329D01*
X4267454Y3279394D01*
X4252874Y3281679D01*
X4238091Y3282086D01*
X4223410Y3280765D01*
X4208983Y3277615D01*
X4195064Y3272688D01*
X4181856Y3266084D01*
X4169562Y3257956D01*
X4158335Y3248355D01*
X4148429Y3237433D01*
X4139895Y3225393D01*
X4132884Y3212388D01*
X4127550Y3198622D01*
X4123994Y3184347D01*
X4122165Y3169666D01*
X4122165Y3154934D01*
X4123994Y3140252D01*
X4127550Y3125978D01*
X4132884Y3112211D01*
X4139895Y3099206D01*
X4148429Y3087166D01*
X4158335Y3076244D01*
X4169562Y3066643D01*
X4181856Y3058515D01*
X4195064Y3051911D01*
X4208983Y3046984D01*
X4223410Y3043834D01*
G37*
G36*
X7870596Y3149193D02*
G01*
X7884210Y3149650D01*
X7897672Y3151886D01*
X7910677Y3155950D01*
X7923072Y3161690D01*
X7934553Y3169005D01*
X7944967Y3177794D01*
X7954111Y3187954D01*
X7961833Y3199180D01*
X7967980Y3211322D01*
X7972450Y3224225D01*
X7975193Y3237585D01*
X7976108Y3251200D01*
X7975193Y3264814D01*
X7972450Y3278174D01*
X7967980Y3291078D01*
X7961833Y3303219D01*
X7954111Y3314446D01*
X7944967Y3324606D01*
X7934553Y3333394D01*
X7923072Y3340709D01*
X7910677Y3346450D01*
X7897672Y3350514D01*
X7884210Y3352749D01*
X7870596Y3353206D01*
X7857032Y3351885D01*
X7843774Y3348685D01*
X7831023Y3343808D01*
X7819085Y3337255D01*
X7808112Y3329178D01*
X7798308Y3319678D01*
X7789824Y3308959D01*
X7788706Y3307079D01*
X7786471Y3304438D01*
X7783423Y3302711D01*
X7779969Y3302101D01*
X6273698Y3302101D01*
X6269786Y3302863D01*
X6266535Y3305098D01*
X5636869Y3934764D01*
X5633415Y3937914D01*
X5629910Y3940606D01*
X5626150Y3942994D01*
X5622188Y3945026D01*
X5618124Y3946753D01*
X5613857Y3948074D01*
X5609539Y3949039D01*
X5605119Y3949598D01*
X5600496Y3949801D01*
X5096205Y3949801D01*
X5092344Y3950563D01*
X5089093Y3952697D01*
X5086908Y3955846D01*
X5086045Y3959656D01*
X5086654Y3963466D01*
X5088686Y3966819D01*
X5097170Y3976166D01*
X5105704Y3988206D01*
X5110937Y3997960D01*
X5057140Y3997960D01*
X5057140Y3959961D01*
X5056378Y3956100D01*
X5054142Y3952798D01*
X5050891Y3950563D01*
X5046980Y3949801D01*
X4960620Y3949801D01*
X4956708Y3950563D01*
X4953457Y3952798D01*
X4951222Y3956100D01*
X4950460Y3959961D01*
X4950460Y3997960D01*
X4896662Y3997960D01*
X4898186Y3994607D01*
X4905959Y3982059D01*
X4915204Y3970528D01*
X4918608Y3967276D01*
X4920843Y3963974D01*
X4921707Y3960063D01*
X4920945Y3956151D01*
X4918760Y3952798D01*
X4915458Y3950614D01*
X4911547Y3949801D01*
X4521403Y3949801D01*
X4516780Y3949598D01*
X4512360Y3949039D01*
X4508042Y3948074D01*
X4503775Y3946753D01*
X4499711Y3945026D01*
X4495749Y3942994D01*
X4491990Y3940606D01*
X4488484Y3937914D01*
X4485030Y3934764D01*
X4363669Y3813352D01*
X4360672Y3811270D01*
X4357116Y3810406D01*
X4353509Y3810812D01*
X4350258Y3812489D01*
X4347819Y3815181D01*
X4339640Y3828440D01*
X4330395Y3839972D01*
X4319778Y3850233D01*
X4307992Y3859123D01*
X4295241Y3866489D01*
X4281627Y3872229D01*
X4267454Y3876294D01*
X4252874Y3878579D01*
X4238091Y3878986D01*
X4223410Y3877665D01*
X4208983Y3874515D01*
X4195064Y3869588D01*
X4181856Y3862984D01*
X4169562Y3854856D01*
X4158335Y3845255D01*
X4148429Y3834333D01*
X4139895Y3822293D01*
X4132884Y3809288D01*
X4127550Y3795522D01*
X4123994Y3781247D01*
X4122165Y3766565D01*
X4122165Y3751834D01*
X4123994Y3737152D01*
X4127550Y3722878D01*
X4132884Y3709111D01*
X4139895Y3696106D01*
X4148429Y3684066D01*
X4158335Y3673144D01*
X4169562Y3663543D01*
X4181856Y3655415D01*
X4195064Y3648811D01*
X4208983Y3643884D01*
X4223410Y3640734D01*
X4238091Y3639362D01*
X4252874Y3639820D01*
X4267454Y3642106D01*
X4281627Y3646170D01*
X4295241Y3651910D01*
X4307992Y3659276D01*
X4319778Y3668166D01*
X4330395Y3678428D01*
X4342434Y3693363D01*
X4345432Y3695039D01*
X4348784Y3695598D01*
X4368596Y3695598D01*
X4373219Y3695801D01*
X4377639Y3696360D01*
X4381957Y3697325D01*
X4386224Y3698646D01*
X4390288Y3700373D01*
X4394250Y3702405D01*
X4398010Y3704793D01*
X4401515Y3707485D01*
X4404969Y3710635D01*
X4539335Y3845001D01*
X4542586Y3847236D01*
X4546498Y3847998D01*
X4900422Y3847998D01*
X4904740Y3847033D01*
X4908245Y3844340D01*
X4910277Y3840429D01*
X4910429Y3836009D01*
X4908702Y3831945D01*
X4901895Y3822293D01*
X4894884Y3809288D01*
X4889550Y3795522D01*
X4885994Y3781247D01*
X4884166Y3766565D01*
X4884166Y3751834D01*
X4885994Y3737152D01*
X4889550Y3722878D01*
X4894884Y3709111D01*
X4901895Y3696106D01*
X4910429Y3684066D01*
X4920335Y3673144D01*
X4931562Y3663543D01*
X4943856Y3655415D01*
X4957064Y3648811D01*
X4970983Y3643884D01*
X4985410Y3640734D01*
X5000091Y3639362D01*
X5014874Y3639820D01*
X5029454Y3642106D01*
X5043627Y3646170D01*
X5057241Y3651910D01*
X5069992Y3659276D01*
X5081778Y3668166D01*
X5092395Y3678428D01*
X5101640Y3689959D01*
X5109413Y3702507D01*
X5115560Y3715918D01*
X5120030Y3729939D01*
X5122773Y3744468D01*
X5123688Y3759200D01*
X5122773Y3773932D01*
X5120030Y3788460D01*
X5115560Y3802481D01*
X5109413Y3815892D01*
X5101640Y3828440D01*
X5099202Y3831437D01*
X5097424Y3834790D01*
X5097018Y3838549D01*
X5097983Y3842207D01*
X5100218Y3845255D01*
X5103418Y3847287D01*
X5107127Y3847998D01*
X5575401Y3847998D01*
X5579313Y3847236D01*
X5582564Y3845001D01*
X6212230Y3215335D01*
X6215684Y3212185D01*
X6219190Y3209493D01*
X6222949Y3207105D01*
X6226911Y3205073D01*
X6230975Y3203346D01*
X6235242Y3202025D01*
X6239560Y3201060D01*
X6243980Y3200501D01*
X6248603Y3200298D01*
X7779969Y3200298D01*
X7783423Y3199688D01*
X7786471Y3197961D01*
X7788706Y3195320D01*
X7789824Y3193440D01*
X7798308Y3182721D01*
X7808112Y3173222D01*
X7819085Y3165144D01*
X7831023Y3158591D01*
X7843774Y3153714D01*
X7857032Y3150514D01*
G37*
G36*
X12420904Y3309975D02*
G01*
X13295782Y3309975D01*
X13303554Y3310229D01*
X13311124Y3310940D01*
X13318642Y3312058D01*
X13326059Y3313684D01*
X13333374Y3315715D01*
X13340588Y3318205D01*
X13347598Y3321100D01*
X13354456Y3324402D01*
X13361060Y3328162D01*
X13367461Y3332276D01*
X13373557Y3336798D01*
X13379399Y3341674D01*
X13385088Y3347008D01*
X13420902Y3382822D01*
X13423950Y3384905D01*
X13427557Y3385769D01*
X13442238Y3386531D01*
X13460374Y3389325D01*
X13478103Y3394049D01*
X13495274Y3400501D01*
X13511733Y3408730D01*
X13527227Y3418535D01*
X13541603Y3429965D01*
X13554760Y3442766D01*
X13566495Y3456838D01*
X13576757Y3472078D01*
X13585393Y3488283D01*
X13592301Y3505301D01*
X13597432Y3522929D01*
X13600734Y3540963D01*
X13602157Y3559301D01*
X13601649Y3577640D01*
X13599312Y3595827D01*
X13595096Y3613708D01*
X13589050Y3631031D01*
X13581278Y3647643D01*
X13571829Y3663391D01*
X13560806Y3678072D01*
X13548360Y3691585D01*
X13534542Y3703675D01*
X13519607Y3714292D01*
X13503605Y3723335D01*
X13486790Y3730701D01*
X13469315Y3736289D01*
X13451332Y3740048D01*
X13433094Y3741928D01*
X13414705Y3741928D01*
X13396468Y3740048D01*
X13378484Y3736289D01*
X13361009Y3730701D01*
X13344194Y3723335D01*
X13328192Y3714292D01*
X13313257Y3703675D01*
X13299440Y3691585D01*
X13286994Y3678072D01*
X13275970Y3663391D01*
X13266521Y3647643D01*
X13258749Y3631031D01*
X13252704Y3613708D01*
X13248487Y3595827D01*
X13246150Y3577640D01*
X13245998Y3571697D01*
X13245134Y3567887D01*
X13242899Y3564686D01*
X13239648Y3562553D01*
X13235838Y3561791D01*
X12556693Y3561791D01*
X12552781Y3562604D01*
X12549479Y3564788D01*
X12547295Y3568090D01*
X12546533Y3571951D01*
X12546533Y3735984D01*
X12547142Y3739540D01*
X12549022Y3742639D01*
X12550648Y3744518D01*
X12557963Y3755491D01*
X12563805Y3767328D01*
X12568072Y3779774D01*
X12570612Y3792728D01*
X12571476Y3805885D01*
X12570612Y3819093D01*
X12568072Y3831996D01*
X12563805Y3844493D01*
X12557963Y3856329D01*
X12550648Y3867302D01*
X12541961Y3877259D01*
X12532004Y3885946D01*
X12521031Y3893261D01*
X12509195Y3899103D01*
X12504115Y3900830D01*
X12501118Y3902456D01*
X12492126Y3909517D01*
X12479121Y3917391D01*
X12465253Y3923639D01*
X12450724Y3928160D01*
X12435789Y3930904D01*
X12420600Y3931818D01*
X12405410Y3930904D01*
X12390475Y3928160D01*
X12375946Y3923639D01*
X12362078Y3917391D01*
X12349073Y3909517D01*
X12340082Y3902456D01*
X12337084Y3900830D01*
X12332004Y3899103D01*
X12320168Y3893261D01*
X12309195Y3885946D01*
X12299238Y3877259D01*
X12290552Y3867302D01*
X12283236Y3856329D01*
X12277394Y3844493D01*
X12273127Y3831996D01*
X12270587Y3819093D01*
X12269724Y3805885D01*
X12270587Y3792728D01*
X12273127Y3779774D01*
X12277394Y3767328D01*
X12283236Y3755491D01*
X12290552Y3744518D01*
X12292177Y3742639D01*
X12294057Y3739540D01*
X12294717Y3735984D01*
X12294717Y3505860D01*
X12294057Y3502304D01*
X12292177Y3499154D01*
X12290552Y3497326D01*
X12283236Y3486353D01*
X12277394Y3474516D01*
X12273127Y3462020D01*
X12270587Y3449065D01*
X12269724Y3435908D01*
X12270587Y3422751D01*
X12273127Y3409797D01*
X12277394Y3397300D01*
X12283236Y3385464D01*
X12290552Y3374491D01*
X12299238Y3364585D01*
X12309195Y3355848D01*
X12320168Y3348532D01*
X12332004Y3342690D01*
X12337084Y3340963D01*
X12340082Y3339337D01*
X12349073Y3332327D01*
X12362078Y3324453D01*
X12375946Y3318205D01*
X12390475Y3313684D01*
X12405410Y3310940D01*
G37*
G36*
X4245508Y3359962D02*
G01*
X4260189Y3361334D01*
X4274616Y3364484D01*
X4288536Y3369411D01*
X4301744Y3376015D01*
X4314037Y3384143D01*
X4325264Y3393744D01*
X4335170Y3404666D01*
X4343704Y3416706D01*
X4350715Y3429711D01*
X4356049Y3443478D01*
X4359605Y3457752D01*
X4361434Y3472434D01*
X4361434Y3487165D01*
X4359605Y3501847D01*
X4356049Y3516122D01*
X4350715Y3529888D01*
X4343704Y3542893D01*
X4335170Y3554933D01*
X4325264Y3565855D01*
X4314037Y3575456D01*
X4301744Y3583584D01*
X4288536Y3590188D01*
X4274616Y3595115D01*
X4260189Y3598265D01*
X4245508Y3599586D01*
X4230725Y3599179D01*
X4216146Y3596894D01*
X4201972Y3592829D01*
X4188358Y3587089D01*
X4175607Y3579723D01*
X4163822Y3570833D01*
X4153204Y3560572D01*
X4143959Y3549040D01*
X4136186Y3536492D01*
X4130040Y3523081D01*
X4125569Y3509060D01*
X4122826Y3494532D01*
X4121912Y3479800D01*
X4122826Y3465068D01*
X4125569Y3450539D01*
X4130040Y3436518D01*
X4136186Y3423107D01*
X4143959Y3410559D01*
X4153204Y3399028D01*
X4163822Y3388766D01*
X4175607Y3379876D01*
X4188358Y3372510D01*
X4201972Y3366770D01*
X4216146Y3362706D01*
X4230725Y3360420D01*
G37*
G36*
X4950460Y3372459D02*
G01*
X4950460Y3426460D01*
X4896662Y3426460D01*
X4898186Y3423107D01*
X4905959Y3410559D01*
X4915204Y3399028D01*
X4925822Y3388766D01*
X4937607Y3379876D01*
G37*
G36*
X5057140Y3372713D02*
G01*
X5063744Y3376015D01*
X5076037Y3384143D01*
X5087264Y3393744D01*
X5097170Y3404666D01*
X5105704Y3416706D01*
X5110937Y3426460D01*
X5057140Y3426460D01*
G37*
G36*
X1190193Y3461156D02*
G01*
X1224076Y3461156D01*
X1230376Y3461867D01*
X1235862Y3463747D01*
X1240739Y3466846D01*
X1244854Y3470960D01*
X1247952Y3475837D01*
X1249832Y3481324D01*
X1250543Y3487623D01*
X1250543Y3521506D01*
X1190193Y3521506D01*
G37*
G36*
X1061923Y3461156D02*
G01*
X1095806Y3461156D01*
X1095806Y3521506D01*
X1035456Y3521506D01*
X1035456Y3487623D01*
X1036167Y3481324D01*
X1038047Y3475837D01*
X1041146Y3470960D01*
X1045260Y3466846D01*
X1050137Y3463747D01*
X1055624Y3461867D01*
G37*
G36*
X3683000Y3461156D02*
G01*
X3697020Y3462070D01*
X3710838Y3464814D01*
X3724148Y3469335D01*
X3736746Y3475583D01*
X3748481Y3483406D01*
X3759047Y3492652D01*
X3768293Y3503218D01*
X3776116Y3514953D01*
X3782364Y3527551D01*
X3786886Y3540861D01*
X3789629Y3554679D01*
X3790543Y3568700D01*
X3789629Y3582720D01*
X3786886Y3596538D01*
X3782364Y3609848D01*
X3776116Y3622446D01*
X3768293Y3634181D01*
X3759047Y3644747D01*
X3748481Y3653993D01*
X3736746Y3661816D01*
X3724148Y3668064D01*
X3710838Y3672586D01*
X3697020Y3675329D01*
X3683000Y3676243D01*
X3668979Y3675329D01*
X3655161Y3672586D01*
X3641851Y3668064D01*
X3629253Y3661816D01*
X3617518Y3653993D01*
X3606952Y3644747D01*
X3597706Y3634181D01*
X3589883Y3622446D01*
X3583635Y3609848D01*
X3579114Y3596538D01*
X3576370Y3582720D01*
X3575456Y3568700D01*
X3576370Y3554679D01*
X3579114Y3540861D01*
X3583635Y3527551D01*
X3589883Y3514953D01*
X3597706Y3503218D01*
X3606952Y3492652D01*
X3617518Y3483406D01*
X3629253Y3475583D01*
X3641851Y3469335D01*
X3655161Y3464814D01*
X3668979Y3462070D01*
G37*
G36*
X5057140Y3533140D02*
G01*
X5110937Y3533140D01*
X5105704Y3542893D01*
X5097170Y3554933D01*
X5087264Y3565855D01*
X5076037Y3575456D01*
X5063744Y3583584D01*
X5057140Y3586886D01*
G37*
G36*
X4896662Y3533140D02*
G01*
X4950460Y3533140D01*
X4950460Y3587140D01*
X4937607Y3579723D01*
X4925822Y3570833D01*
X4915204Y3560572D01*
X4905959Y3549040D01*
X4898186Y3536492D01*
G37*
G36*
X1035456Y3615893D02*
G01*
X1095806Y3615893D01*
X1095806Y3676243D01*
X1061923Y3676243D01*
X1055624Y3675532D01*
X1050137Y3673652D01*
X1045260Y3670554D01*
X1041146Y3666439D01*
X1038047Y3661562D01*
X1036167Y3656076D01*
X1035456Y3649776D01*
G37*
G36*
X1190193Y3615893D02*
G01*
X1250543Y3615893D01*
X1250543Y3649776D01*
X1249832Y3656076D01*
X1247952Y3661562D01*
X1244854Y3666439D01*
X1240739Y3670554D01*
X1235862Y3673652D01*
X1230376Y3675532D01*
X1224076Y3676243D01*
X1190193Y3676243D01*
G37*
G36*
X7829550Y3667404D02*
G01*
X7829550Y3714750D01*
X7782204Y3714750D01*
X7782864Y3713175D01*
X7789824Y3701440D01*
X7798308Y3690721D01*
X7808112Y3681222D01*
X7819085Y3673144D01*
G37*
G36*
X7918450Y3667556D02*
G01*
X7923072Y3669690D01*
X7934553Y3677005D01*
X7944967Y3685794D01*
X7954111Y3695954D01*
X7961833Y3707180D01*
X7965643Y3714750D01*
X7918450Y3714750D01*
G37*
G36*
X3683000Y3715156D02*
G01*
X3697020Y3716070D01*
X3710838Y3718814D01*
X3724148Y3723335D01*
X3736746Y3729583D01*
X3748481Y3737406D01*
X3759047Y3746652D01*
X3768293Y3757218D01*
X3776116Y3768953D01*
X3782364Y3781551D01*
X3786886Y3794861D01*
X3789629Y3808679D01*
X3790543Y3822700D01*
X3789629Y3836720D01*
X3786886Y3850538D01*
X3782364Y3863848D01*
X3776116Y3876446D01*
X3768293Y3888181D01*
X3759047Y3898747D01*
X3748481Y3907993D01*
X3736746Y3915816D01*
X3724148Y3922064D01*
X3710838Y3926586D01*
X3697020Y3929329D01*
X3683000Y3930243D01*
X3668979Y3929329D01*
X3655161Y3926586D01*
X3641851Y3922064D01*
X3629253Y3915816D01*
X3617518Y3907993D01*
X3606952Y3898747D01*
X3597706Y3888181D01*
X3589883Y3876446D01*
X3583635Y3863848D01*
X3579114Y3850538D01*
X3576370Y3836720D01*
X3575456Y3822700D01*
X3576370Y3808679D01*
X3579114Y3794861D01*
X3583635Y3781551D01*
X3589883Y3768953D01*
X3597706Y3757218D01*
X3606952Y3746652D01*
X3617518Y3737406D01*
X3629253Y3729583D01*
X3641851Y3723335D01*
X3655161Y3718814D01*
X3668979Y3716070D01*
G37*
G36*
X1143000Y3715156D02*
G01*
X1157020Y3716070D01*
X1170838Y3718814D01*
X1184148Y3723335D01*
X1196746Y3729583D01*
X1208481Y3737406D01*
X1219047Y3746652D01*
X1228293Y3757218D01*
X1236116Y3768953D01*
X1242364Y3781551D01*
X1246886Y3794861D01*
X1249629Y3808679D01*
X1250543Y3822700D01*
X1249629Y3836720D01*
X1246886Y3850538D01*
X1242364Y3863848D01*
X1236116Y3876446D01*
X1228293Y3888181D01*
X1219047Y3898747D01*
X1208481Y3907993D01*
X1196746Y3915816D01*
X1184148Y3922064D01*
X1170838Y3926586D01*
X1157020Y3929329D01*
X1143000Y3930243D01*
X1128979Y3929329D01*
X1115161Y3926586D01*
X1101852Y3922064D01*
X1089253Y3915816D01*
X1077518Y3907993D01*
X1066952Y3898747D01*
X1057706Y3888181D01*
X1049883Y3876446D01*
X1043635Y3863848D01*
X1039114Y3850538D01*
X1036370Y3836720D01*
X1035456Y3822700D01*
X1036370Y3808679D01*
X1039114Y3794861D01*
X1043635Y3781551D01*
X1049883Y3768953D01*
X1057706Y3757218D01*
X1066952Y3746652D01*
X1077518Y3737406D01*
X1089253Y3729583D01*
X1101852Y3723335D01*
X1115161Y3718814D01*
X1128979Y3716070D01*
G37*
G36*
X7918450Y3803650D02*
G01*
X7965643Y3803650D01*
X7961833Y3811219D01*
X7954111Y3822446D01*
X7944967Y3832606D01*
X7934553Y3841394D01*
X7923072Y3848709D01*
X7918450Y3850843D01*
G37*
G36*
X7782204Y3803650D02*
G01*
X7829550Y3803650D01*
X7829550Y3850995D01*
X7819085Y3845255D01*
X7808112Y3837178D01*
X7798308Y3827678D01*
X7789824Y3816959D01*
X7782864Y3805224D01*
G37*
G36*
X13341350Y3906215D02*
G01*
X13341350Y3981450D01*
X13266115Y3981450D01*
X13271042Y3972204D01*
X13281304Y3956964D01*
X13293039Y3942892D01*
X13306196Y3930091D01*
X13320572Y3918661D01*
X13336066Y3908856D01*
G37*
G36*
X13506450Y3906215D02*
G01*
X13511733Y3908856D01*
X13527227Y3918661D01*
X13541603Y3930091D01*
X13554760Y3942892D01*
X13566495Y3956964D01*
X13576757Y3972204D01*
X13581684Y3981450D01*
X13506450Y3981450D01*
G37*
G36*
X10211358Y3928872D02*
G01*
X10337241Y3928872D01*
X10343540Y3929583D01*
X10349026Y3931513D01*
X10353903Y3934561D01*
X10358018Y3938676D01*
X10361066Y3943553D01*
X10362996Y3949039D01*
X10363708Y3955338D01*
X10363708Y4081221D01*
X10362996Y4087520D01*
X10361066Y4093006D01*
X10358018Y4097883D01*
X10353903Y4101998D01*
X10349026Y4105046D01*
X10343540Y4106976D01*
X10337241Y4107687D01*
X10211358Y4107687D01*
X10205059Y4106976D01*
X10199573Y4105046D01*
X10194696Y4101998D01*
X10190581Y4097883D01*
X10187533Y4093006D01*
X10185603Y4087520D01*
X10184892Y4081221D01*
X10184892Y4074261D01*
X10184130Y4070400D01*
X10181894Y4067098D01*
X10178643Y4064863D01*
X10174732Y4064101D01*
X8293608Y4064101D01*
X8289290Y4065066D01*
X8286953Y4066133D01*
X8277504Y4068673D01*
X8267700Y4069537D01*
X8257895Y4068673D01*
X8248446Y4066133D01*
X8239506Y4062018D01*
X8231479Y4056379D01*
X8224520Y4049420D01*
X8218881Y4041394D01*
X8214766Y4032453D01*
X8212226Y4023004D01*
X8211362Y4013200D01*
X8212226Y4003395D01*
X8214766Y3993946D01*
X8218881Y3985006D01*
X8224520Y3976979D01*
X8231479Y3970020D01*
X8239506Y3964381D01*
X8248446Y3960266D01*
X8257895Y3957726D01*
X8267700Y3956862D01*
X8277504Y3957726D01*
X8286953Y3960266D01*
X8289290Y3961333D01*
X8293608Y3962298D01*
X10175036Y3962298D01*
X10178643Y3961637D01*
X10181793Y3959707D01*
X10184079Y3956812D01*
X10185146Y3953256D01*
X10185603Y3949039D01*
X10187533Y3943553D01*
X10190581Y3938676D01*
X10194696Y3934561D01*
X10199573Y3931513D01*
X10205059Y3929583D01*
G37*
G36*
X4245508Y3931462D02*
G01*
X4260189Y3932834D01*
X4274616Y3935984D01*
X4288536Y3940911D01*
X4301744Y3947515D01*
X4314037Y3955643D01*
X4325264Y3965244D01*
X4335170Y3976166D01*
X4343704Y3988206D01*
X4350715Y4001211D01*
X4356049Y4014978D01*
X4359605Y4029252D01*
X4361434Y4043934D01*
X4361434Y4058665D01*
X4359605Y4073347D01*
X4356049Y4087622D01*
X4350715Y4101388D01*
X4343704Y4114393D01*
X4335170Y4126433D01*
X4325264Y4137355D01*
X4314037Y4146956D01*
X4301744Y4155084D01*
X4288536Y4161688D01*
X4274616Y4166615D01*
X4260189Y4169765D01*
X4245508Y4171086D01*
X4230725Y4170679D01*
X4216146Y4168394D01*
X4201972Y4164329D01*
X4188358Y4158589D01*
X4175607Y4151223D01*
X4163822Y4142333D01*
X4153204Y4132072D01*
X4143959Y4120540D01*
X4136186Y4107992D01*
X4130040Y4094581D01*
X4125569Y4080560D01*
X4122826Y4066032D01*
X4121912Y4051300D01*
X4122826Y4036568D01*
X4125569Y4022039D01*
X4130040Y4008018D01*
X4136186Y3994607D01*
X4143959Y3982059D01*
X4153204Y3970528D01*
X4163822Y3960266D01*
X4175607Y3951376D01*
X4188358Y3944010D01*
X4201972Y3938270D01*
X4216146Y3934206D01*
X4230725Y3931920D01*
G37*
G36*
X3683000Y3969156D02*
G01*
X3697020Y3970070D01*
X3710838Y3972814D01*
X3724148Y3977335D01*
X3736746Y3983583D01*
X3748481Y3991406D01*
X3759047Y4000652D01*
X3768293Y4011218D01*
X3776116Y4022953D01*
X3782364Y4035551D01*
X3786886Y4048861D01*
X3789629Y4062679D01*
X3790543Y4076700D01*
X3789629Y4090720D01*
X3786886Y4104538D01*
X3782364Y4117848D01*
X3776116Y4130446D01*
X3768293Y4142181D01*
X3759047Y4152747D01*
X3748481Y4161993D01*
X3736746Y4169816D01*
X3724148Y4176064D01*
X3710838Y4180586D01*
X3697020Y4183329D01*
X3683000Y4184243D01*
X3668979Y4183329D01*
X3655161Y4180586D01*
X3641851Y4176064D01*
X3629253Y4169816D01*
X3617518Y4161993D01*
X3606952Y4152747D01*
X3597706Y4142181D01*
X3589883Y4130446D01*
X3583635Y4117848D01*
X3579114Y4104538D01*
X3576370Y4090720D01*
X3575456Y4076700D01*
X3576370Y4062679D01*
X3579114Y4048861D01*
X3583635Y4035551D01*
X3589883Y4022953D01*
X3597706Y4011218D01*
X3606952Y4000652D01*
X3617518Y3991406D01*
X3629253Y3983583D01*
X3641851Y3977335D01*
X3655161Y3972814D01*
X3668979Y3970070D01*
G37*
G36*
X5057140Y4104640D02*
G01*
X5110937Y4104640D01*
X5105704Y4114393D01*
X5097170Y4126433D01*
X5087264Y4137355D01*
X5076037Y4146956D01*
X5063744Y4155084D01*
X5057140Y4158386D01*
G37*
G36*
X4896662Y4104640D02*
G01*
X4950460Y4104640D01*
X4950460Y4158640D01*
X4937607Y4151223D01*
X4925822Y4142333D01*
X4915204Y4132072D01*
X4905959Y4120540D01*
X4898186Y4107992D01*
G37*
G36*
X12420600Y4119981D02*
G01*
X12435789Y4120896D01*
X12450724Y4123639D01*
X12465253Y4128160D01*
X12479121Y4134408D01*
X12492126Y4142282D01*
X12501118Y4149344D01*
X12504115Y4150969D01*
X12509195Y4152696D01*
X12521031Y4158538D01*
X12532004Y4165854D01*
X12541961Y4174540D01*
X12550648Y4184497D01*
X12557963Y4195470D01*
X12563805Y4207306D01*
X12568072Y4219752D01*
X12570612Y4232706D01*
X12571476Y4245864D01*
X12570612Y4259072D01*
X12568072Y4271975D01*
X12563805Y4284472D01*
X12557963Y4296308D01*
X12550648Y4307281D01*
X12549022Y4309160D01*
X12547142Y4312259D01*
X12546533Y4315815D01*
X12546533Y4545939D01*
X12547142Y4549546D01*
X12549022Y4552645D01*
X12550648Y4554474D01*
X12557963Y4565446D01*
X12563805Y4577283D01*
X12568072Y4589780D01*
X12570612Y4602734D01*
X12571476Y4615891D01*
X12570612Y4629048D01*
X12568072Y4642002D01*
X12563805Y4654499D01*
X12557963Y4666335D01*
X12550648Y4677308D01*
X12549022Y4679137D01*
X12547142Y4682236D01*
X12546533Y4685842D01*
X12546533Y5268061D01*
X12547041Y5271363D01*
X12557201Y5288178D01*
X12563449Y5302046D01*
X12567970Y5316575D01*
X12570714Y5331510D01*
X12571679Y5347004D01*
X12571679Y5608370D01*
X12572542Y5612485D01*
X12575032Y5615940D01*
X12578689Y5618022D01*
X12582855Y5618480D01*
X12586919Y5617159D01*
X12590018Y5614365D01*
X12590932Y5613095D01*
X12601803Y5601258D01*
X12613944Y5590743D01*
X12627254Y5581650D01*
X12641478Y5574131D01*
X12656464Y5568289D01*
X12672009Y5564225D01*
X12687960Y5561939D01*
X12704013Y5561482D01*
X12720066Y5562854D01*
X12735814Y5566054D01*
X12751104Y5571032D01*
X12760909Y5575452D01*
X12765125Y5576366D01*
X12888671Y5576366D01*
X12891109Y5576112D01*
X12895478Y5574131D01*
X12910464Y5568289D01*
X12926009Y5564225D01*
X12941960Y5561939D01*
X12958013Y5561482D01*
X12974066Y5562854D01*
X12989814Y5566054D01*
X13005104Y5571032D01*
X13019735Y5577687D01*
X13033502Y5586018D01*
X13046252Y5595823D01*
X13057784Y5607050D01*
X13067995Y5619496D01*
X13076682Y5633008D01*
X13083794Y5647436D01*
X13089178Y5662625D01*
X13092836Y5678271D01*
X13094665Y5694273D01*
X13094665Y5710326D01*
X13092836Y5726328D01*
X13089178Y5741974D01*
X13083794Y5757164D01*
X13076682Y5771591D01*
X13067995Y5785104D01*
X13057784Y5797550D01*
X13046252Y5808776D01*
X13033502Y5818581D01*
X13019735Y5826912D01*
X13005104Y5833567D01*
X12989814Y5838545D01*
X12974066Y5841746D01*
X12958013Y5843117D01*
X12941960Y5842660D01*
X12926009Y5840374D01*
X12910464Y5836310D01*
X12895478Y5830468D01*
X12891109Y5828487D01*
X12888671Y5828182D01*
X12848793Y5828182D01*
X12844881Y5828995D01*
X12841579Y5831179D01*
X12839395Y5834481D01*
X12838633Y5838342D01*
X12838633Y6426047D01*
X12838379Y6433820D01*
X12837668Y6441389D01*
X12836550Y6448907D01*
X12834924Y6456324D01*
X12832892Y6463639D01*
X12830403Y6470853D01*
X12827508Y6477863D01*
X12824206Y6484721D01*
X12820446Y6491325D01*
X12816332Y6497726D01*
X12811810Y6503822D01*
X12806934Y6509664D01*
X12801600Y6515354D01*
X12574625Y6742328D01*
X12572441Y6745630D01*
X12571679Y6749491D01*
X12571679Y6878269D01*
X12572542Y6882434D01*
X12575032Y6885838D01*
X12578689Y6887921D01*
X12582855Y6888378D01*
X12586919Y6887057D01*
X12590678Y6883349D01*
X12601549Y6871512D01*
X12613690Y6860997D01*
X12627000Y6851903D01*
X12641224Y6844385D01*
X12656210Y6838543D01*
X12671755Y6834479D01*
X12687706Y6832193D01*
X12703759Y6831736D01*
X12719812Y6833108D01*
X12735560Y6836308D01*
X12750850Y6841286D01*
X12760502Y6845655D01*
X12764719Y6846570D01*
X12888569Y6846468D01*
X12891008Y6846163D01*
X12895478Y6844131D01*
X12910464Y6838289D01*
X12926009Y6834225D01*
X12941960Y6831939D01*
X12958013Y6831482D01*
X12974066Y6832853D01*
X12989814Y6836054D01*
X13005104Y6841032D01*
X13019735Y6847687D01*
X13033502Y6856018D01*
X13046252Y6865823D01*
X13057784Y6877050D01*
X13067995Y6889496D01*
X13076682Y6903008D01*
X13083794Y6917436D01*
X13089178Y6932625D01*
X13092836Y6948271D01*
X13094665Y6964273D01*
X13094665Y6980326D01*
X13092836Y6996328D01*
X13089178Y7011974D01*
X13083794Y7027164D01*
X13076682Y7041591D01*
X13067995Y7055103D01*
X13057784Y7067550D01*
X13046252Y7078776D01*
X13033502Y7088581D01*
X13019735Y7096912D01*
X13005104Y7103567D01*
X12989814Y7108545D01*
X12974066Y7111746D01*
X12958013Y7113117D01*
X12941960Y7112660D01*
X12926009Y7110374D01*
X12910464Y7106310D01*
X12895478Y7100468D01*
X12891262Y7098588D01*
X12888823Y7098284D01*
X12835788Y7098334D01*
X12831927Y7099096D01*
X12828625Y7101281D01*
X12826441Y7104583D01*
X12825679Y7108494D01*
X12825679Y7200747D01*
X12825425Y7208520D01*
X12824714Y7216089D01*
X12823596Y7223607D01*
X12821970Y7231024D01*
X12819938Y7238339D01*
X12817449Y7245553D01*
X12814554Y7252563D01*
X12811252Y7259421D01*
X12807492Y7266025D01*
X12803378Y7272426D01*
X12798856Y7278522D01*
X12793980Y7284364D01*
X12788646Y7290053D01*
X12674600Y7404100D01*
X12668910Y7409434D01*
X12663068Y7414310D01*
X12656972Y7418831D01*
X12650571Y7422946D01*
X12643967Y7426706D01*
X12637109Y7430008D01*
X12630099Y7432903D01*
X12622885Y7435392D01*
X12615570Y7437424D01*
X12608153Y7439050D01*
X12600635Y7440168D01*
X12593066Y7440879D01*
X12585293Y7441082D01*
X11832793Y7441082D01*
X11828881Y7441895D01*
X11825579Y7444079D01*
X11823395Y7447381D01*
X11822633Y7451242D01*
X11822633Y7782509D01*
X11821871Y7788859D01*
X11819991Y7794294D01*
X11816892Y7799222D01*
X11812828Y7803286D01*
X11807901Y7806385D01*
X11802465Y7808315D01*
X11796115Y7809026D01*
X11597284Y7809026D01*
X11590934Y7808315D01*
X11585498Y7806385D01*
X11580571Y7803286D01*
X11576507Y7799222D01*
X11573408Y7794294D01*
X11571528Y7788859D01*
X11570817Y7782509D01*
X11570817Y7378852D01*
X11571020Y7371080D01*
X11571732Y7363510D01*
X11572849Y7355992D01*
X11574475Y7348575D01*
X11576507Y7341260D01*
X11578996Y7334046D01*
X11581892Y7327036D01*
X11585194Y7320178D01*
X11588953Y7313574D01*
X11593068Y7307173D01*
X11597589Y7301077D01*
X11602466Y7295235D01*
X11607800Y7289546D01*
X11671046Y7226300D01*
X11676735Y7220966D01*
X11682577Y7216089D01*
X11688673Y7211568D01*
X11695074Y7207453D01*
X11701678Y7203694D01*
X11708536Y7200392D01*
X11715546Y7197496D01*
X11722760Y7195007D01*
X11730075Y7192975D01*
X11737492Y7191349D01*
X11745010Y7190231D01*
X11752580Y7189520D01*
X11760352Y7189266D01*
X12529108Y7189266D01*
X12532969Y7188504D01*
X12536271Y7186320D01*
X12570866Y7151725D01*
X12573050Y7148423D01*
X12573863Y7144562D01*
X12573863Y7066584D01*
X12573000Y7062520D01*
X12570612Y7059168D01*
X12567107Y7057034D01*
X12562992Y7056475D01*
X12559030Y7057542D01*
X12555829Y7060133D01*
X12549530Y7067803D01*
X12537998Y7079030D01*
X12525248Y7088835D01*
X12511481Y7097166D01*
X12496850Y7103821D01*
X12481560Y7108799D01*
X12465812Y7112000D01*
X12449759Y7113371D01*
X12433706Y7112914D01*
X12417755Y7110628D01*
X12402210Y7106564D01*
X12387224Y7100722D01*
X12373000Y7093203D01*
X12359690Y7084110D01*
X12347549Y7073595D01*
X12336678Y7061758D01*
X12327229Y7048703D01*
X12319304Y7034733D01*
X12313056Y7019899D01*
X12308535Y7004456D01*
X12305792Y6988606D01*
X12304877Y6972553D01*
X12305792Y6956501D01*
X12308535Y6940651D01*
X12313056Y6925208D01*
X12319050Y6911035D01*
X12319863Y6907072D01*
X12319863Y6693306D01*
X12320066Y6685534D01*
X12320778Y6677964D01*
X12321895Y6670446D01*
X12323521Y6663029D01*
X12325553Y6655714D01*
X12328042Y6648500D01*
X12330938Y6641490D01*
X12334240Y6634632D01*
X12337999Y6628028D01*
X12342114Y6621627D01*
X12346635Y6615531D01*
X12351512Y6609689D01*
X12356846Y6604000D01*
X12583820Y6377025D01*
X12586004Y6373723D01*
X12586817Y6369862D01*
X12586817Y5789066D01*
X12586309Y5785967D01*
X12584887Y5783173D01*
X12581077Y5777839D01*
X12578181Y5775198D01*
X12574524Y5773775D01*
X12570561Y5773877D01*
X12567005Y5775452D01*
X12564262Y5778296D01*
X12559741Y5785358D01*
X12549530Y5797804D01*
X12537998Y5809030D01*
X12525248Y5818835D01*
X12511481Y5827166D01*
X12496850Y5833821D01*
X12481560Y5838799D01*
X12465812Y5842000D01*
X12449759Y5843371D01*
X12433706Y5842914D01*
X12417755Y5840628D01*
X12402210Y5836564D01*
X12387224Y5830722D01*
X12373000Y5823204D01*
X12359690Y5814110D01*
X12347549Y5803595D01*
X12336678Y5791758D01*
X12327229Y5778703D01*
X12319304Y5764733D01*
X12313056Y5749899D01*
X12308789Y5735370D01*
X12305741Y5729020D01*
X12302896Y5722061D01*
X12300407Y5714847D01*
X12298375Y5707532D01*
X12296749Y5700115D01*
X12295632Y5692597D01*
X12294920Y5685028D01*
X12294717Y5677255D01*
X12294717Y5482742D01*
X12293904Y5478881D01*
X12291720Y5475579D01*
X12288418Y5473395D01*
X12284557Y5472582D01*
X9292539Y5472582D01*
X9288627Y5473395D01*
X9285325Y5475579D01*
X9283141Y5478881D01*
X9282379Y5482742D01*
X9282379Y5595670D01*
X9283242Y5599785D01*
X9285732Y5603240D01*
X9289389Y5605322D01*
X9293555Y5605780D01*
X9297619Y5604459D01*
X9300718Y5601665D01*
X9301632Y5600395D01*
X9312503Y5588558D01*
X9324644Y5578043D01*
X9337954Y5568950D01*
X9352178Y5561431D01*
X9367164Y5555589D01*
X9382709Y5551525D01*
X9398660Y5549239D01*
X9414713Y5548782D01*
X9430766Y5550154D01*
X9446514Y5553354D01*
X9461804Y5558332D01*
X9471609Y5562752D01*
X9475825Y5563666D01*
X9599371Y5563666D01*
X9601809Y5563412D01*
X9606178Y5561431D01*
X9621164Y5555589D01*
X9636709Y5551525D01*
X9652660Y5549239D01*
X9668713Y5548782D01*
X9684766Y5550154D01*
X9700514Y5553354D01*
X9715804Y5558332D01*
X9730435Y5564987D01*
X9744202Y5573318D01*
X9756952Y5583123D01*
X9768484Y5594350D01*
X9778695Y5606796D01*
X9787382Y5620308D01*
X9794494Y5634736D01*
X9799878Y5649925D01*
X9803536Y5665571D01*
X9805365Y5681573D01*
X9805365Y5697626D01*
X9803536Y5713628D01*
X9799878Y5729274D01*
X9794494Y5744464D01*
X9787382Y5758891D01*
X9778695Y5772404D01*
X9768484Y5784850D01*
X9756952Y5796076D01*
X9744202Y5805881D01*
X9730435Y5814212D01*
X9715804Y5820867D01*
X9700514Y5825845D01*
X9684766Y5829046D01*
X9668713Y5830417D01*
X9652660Y5829960D01*
X9636709Y5827674D01*
X9621164Y5823610D01*
X9606178Y5817768D01*
X9601809Y5815787D01*
X9599371Y5815482D01*
X9475825Y5815482D01*
X9471609Y5816447D01*
X9461804Y5820867D01*
X9446514Y5825845D01*
X9430766Y5829046D01*
X9414713Y5830417D01*
X9398660Y5829960D01*
X9382709Y5827674D01*
X9367164Y5823610D01*
X9352178Y5817768D01*
X9337954Y5810250D01*
X9324644Y5801156D01*
X9312503Y5790641D01*
X9301632Y5778804D01*
X9291726Y5765139D01*
X9288881Y5762447D01*
X9285173Y5761075D01*
X9281261Y5761177D01*
X9277705Y5762752D01*
X9274962Y5765596D01*
X9270441Y5772658D01*
X9260230Y5785104D01*
X9248698Y5796330D01*
X9235948Y5806135D01*
X9222181Y5814466D01*
X9207550Y5821121D01*
X9192260Y5826099D01*
X9176512Y5829300D01*
X9160459Y5830671D01*
X9144406Y5830214D01*
X9128455Y5827928D01*
X9112910Y5823864D01*
X9097924Y5818022D01*
X9083700Y5810504D01*
X9070390Y5801410D01*
X9058249Y5790895D01*
X9047378Y5779058D01*
X9037929Y5766003D01*
X9030004Y5752033D01*
X9023756Y5737199D01*
X9019235Y5721756D01*
X9016492Y5705906D01*
X9015577Y5689854D01*
X9016492Y5673801D01*
X9019235Y5657951D01*
X9023756Y5642508D01*
X9029750Y5628335D01*
X9030563Y5624372D01*
X9030563Y5406542D01*
X9029750Y5402681D01*
X9027566Y5399379D01*
X9024264Y5397195D01*
X9020403Y5396382D01*
X5977839Y5396382D01*
X5973927Y5397195D01*
X5970625Y5399379D01*
X5968441Y5402681D01*
X5967679Y5406542D01*
X5967679Y5608370D01*
X5968542Y5612485D01*
X5971032Y5615940D01*
X5974689Y5618022D01*
X5978855Y5618480D01*
X5982919Y5617159D01*
X5986018Y5614365D01*
X5986932Y5613095D01*
X5997803Y5601258D01*
X6009944Y5590743D01*
X6023254Y5581650D01*
X6037478Y5574131D01*
X6052464Y5568289D01*
X6068009Y5564225D01*
X6083960Y5561939D01*
X6100013Y5561482D01*
X6116066Y5562854D01*
X6131814Y5566054D01*
X6147104Y5571032D01*
X6156909Y5575452D01*
X6161125Y5576366D01*
X6284671Y5576366D01*
X6287109Y5576112D01*
X6291478Y5574131D01*
X6306464Y5568289D01*
X6322009Y5564225D01*
X6337960Y5561939D01*
X6354013Y5561482D01*
X6370066Y5562854D01*
X6385814Y5566054D01*
X6401104Y5571032D01*
X6415735Y5577687D01*
X6429502Y5586018D01*
X6442252Y5595823D01*
X6453784Y5607050D01*
X6463995Y5619496D01*
X6472682Y5633008D01*
X6479794Y5647436D01*
X6485178Y5662625D01*
X6488836Y5678271D01*
X6490665Y5694273D01*
X6490665Y5710326D01*
X6488836Y5726328D01*
X6485178Y5741974D01*
X6479794Y5757164D01*
X6472682Y5771591D01*
X6463995Y5785104D01*
X6453784Y5797550D01*
X6442252Y5808776D01*
X6429502Y5818581D01*
X6415735Y5826912D01*
X6401104Y5833567D01*
X6385814Y5838545D01*
X6370066Y5841746D01*
X6354013Y5843117D01*
X6337960Y5842660D01*
X6322009Y5840374D01*
X6306464Y5836310D01*
X6291478Y5830468D01*
X6287109Y5828487D01*
X6284671Y5828182D01*
X6161125Y5828182D01*
X6156909Y5829147D01*
X6147104Y5833567D01*
X6131814Y5838545D01*
X6116066Y5841746D01*
X6100013Y5843117D01*
X6083960Y5842660D01*
X6068009Y5840374D01*
X6052464Y5836310D01*
X6037478Y5830468D01*
X6023254Y5822950D01*
X6009944Y5813856D01*
X5997803Y5803341D01*
X5986932Y5791504D01*
X5977026Y5777839D01*
X5974181Y5775147D01*
X5970473Y5773775D01*
X5966561Y5773877D01*
X5963005Y5775452D01*
X5960262Y5778296D01*
X5955741Y5785358D01*
X5945530Y5797804D01*
X5933998Y5809030D01*
X5921248Y5818835D01*
X5907481Y5827166D01*
X5892850Y5833821D01*
X5877560Y5838799D01*
X5861812Y5842000D01*
X5845759Y5843371D01*
X5829706Y5842914D01*
X5813755Y5840628D01*
X5798210Y5836564D01*
X5783224Y5830722D01*
X5769000Y5823204D01*
X5755690Y5814110D01*
X5743549Y5803595D01*
X5732678Y5791758D01*
X5723229Y5778703D01*
X5715304Y5764733D01*
X5709056Y5749899D01*
X5704535Y5734456D01*
X5701792Y5718606D01*
X5700877Y5702554D01*
X5701792Y5686501D01*
X5704535Y5670651D01*
X5709056Y5655208D01*
X5715050Y5641035D01*
X5715863Y5637072D01*
X5715863Y5296306D01*
X5716066Y5288534D01*
X5716778Y5280964D01*
X5717895Y5273446D01*
X5719521Y5266029D01*
X5721553Y5258714D01*
X5724042Y5251500D01*
X5726938Y5244490D01*
X5730240Y5237632D01*
X5733999Y5231028D01*
X5738114Y5224627D01*
X5742635Y5218531D01*
X5747512Y5212689D01*
X5752846Y5207000D01*
X5778246Y5181600D01*
X5783935Y5176266D01*
X5789777Y5171389D01*
X5795873Y5166868D01*
X5802274Y5162753D01*
X5808878Y5158994D01*
X5815736Y5155692D01*
X5822746Y5152796D01*
X5829960Y5150307D01*
X5837275Y5148275D01*
X5844692Y5146649D01*
X5852210Y5145532D01*
X5859780Y5144820D01*
X5867552Y5144566D01*
X9156141Y5144566D01*
X9171635Y5145532D01*
X9186570Y5148275D01*
X9201099Y5152796D01*
X9214967Y5159044D01*
X9227972Y5166918D01*
X9239910Y5176266D01*
X9250680Y5187035D01*
X9260027Y5198973D01*
X9267901Y5211978D01*
X9269171Y5214823D01*
X9271406Y5217972D01*
X9274657Y5220055D01*
X9278467Y5220766D01*
X12284557Y5220766D01*
X12288418Y5220004D01*
X12291720Y5217820D01*
X12293904Y5214518D01*
X12294717Y5210606D01*
X12294717Y4685842D01*
X12294057Y4682286D01*
X12292177Y4679137D01*
X12290552Y4677308D01*
X12283236Y4666335D01*
X12277394Y4654499D01*
X12273127Y4642002D01*
X12270587Y4629048D01*
X12269724Y4615891D01*
X12270587Y4602734D01*
X12273127Y4589780D01*
X12277394Y4577283D01*
X12283236Y4565446D01*
X12290552Y4554474D01*
X12292177Y4552645D01*
X12294057Y4549495D01*
X12294717Y4545939D01*
X12294717Y4315815D01*
X12294057Y4312259D01*
X12292177Y4309160D01*
X12290552Y4307281D01*
X12283236Y4296308D01*
X12277394Y4284472D01*
X12273127Y4271975D01*
X12270587Y4259072D01*
X12269724Y4245864D01*
X12270587Y4232706D01*
X12273127Y4219752D01*
X12277394Y4207306D01*
X12283236Y4195470D01*
X12290552Y4184497D01*
X12299238Y4174540D01*
X12309195Y4165854D01*
X12320168Y4158538D01*
X12332004Y4152696D01*
X12337084Y4150969D01*
X12340082Y4149344D01*
X12349073Y4142282D01*
X12362078Y4134408D01*
X12375946Y4128160D01*
X12390475Y4123639D01*
X12405410Y4120896D01*
G37*
G36*
X10274300Y4129582D02*
G01*
X10287000Y4130446D01*
X10299496Y4133189D01*
X10311434Y4137660D01*
X10322610Y4143756D01*
X10332821Y4151376D01*
X10341864Y4160418D01*
X10349484Y4170629D01*
X10355580Y4181805D01*
X10360050Y4193743D01*
X10362793Y4206240D01*
X10363657Y4218940D01*
X10362793Y4231640D01*
X10360050Y4244136D01*
X10355580Y4256074D01*
X10349484Y4267250D01*
X10341864Y4277461D01*
X10332821Y4286504D01*
X10322610Y4294124D01*
X10311434Y4300220D01*
X10299496Y4304690D01*
X10287000Y4307433D01*
X10280700Y4307890D01*
X10276535Y4309059D01*
X10274300Y4311040D01*
X10272064Y4309059D01*
X10267899Y4307890D01*
X10262717Y4307484D01*
X10258450Y4308094D01*
X10253980Y4311243D01*
X10251744Y4314647D01*
X10251033Y4318660D01*
X10251948Y4322673D01*
X10254335Y4325924D01*
X10257840Y4328007D01*
X10261904Y4328566D01*
X10267899Y4328109D01*
X10272064Y4326940D01*
X10274300Y4324959D01*
X10276535Y4326940D01*
X10280700Y4328109D01*
X10287000Y4328566D01*
X10299496Y4331309D01*
X10311434Y4335780D01*
X10322610Y4341876D01*
X10332821Y4349496D01*
X10341864Y4358538D01*
X10349484Y4368749D01*
X10355580Y4379925D01*
X10360050Y4391863D01*
X10362793Y4404360D01*
X10363657Y4417060D01*
X10362793Y4429760D01*
X10360050Y4442256D01*
X10355580Y4454194D01*
X10349484Y4465370D01*
X10341864Y4475581D01*
X10332821Y4484624D01*
X10322610Y4492244D01*
X10311434Y4498340D01*
X10299496Y4502810D01*
X10287000Y4505553D01*
X10274300Y4506417D01*
X10262412Y4505604D01*
X10258552Y4506061D01*
X10255199Y4507890D01*
X10250017Y4512208D01*
X10246461Y4514443D01*
X10241737Y4516882D01*
X10238790Y4519117D01*
X10236860Y4522266D01*
X10236200Y4525924D01*
X10236200Y4579620D01*
X10193528Y4579620D01*
X10199116Y4569409D01*
X10206736Y4559198D01*
X10215778Y4550156D01*
X10225989Y4542536D01*
X10230256Y4540199D01*
X10233609Y4537202D01*
X10235387Y4533036D01*
X10235184Y4528566D01*
X10233050Y4524603D01*
X10229392Y4521911D01*
X10224922Y4521149D01*
X10220756Y4521301D01*
X9613798Y4521301D01*
X9609886Y4522063D01*
X9606635Y4524298D01*
X9599269Y4531664D01*
X9595815Y4534814D01*
X9592310Y4537506D01*
X9588550Y4539894D01*
X9584588Y4541926D01*
X9580524Y4543653D01*
X9576257Y4544974D01*
X9571939Y4545939D01*
X9567519Y4546498D01*
X9562896Y4546701D01*
X8724798Y4546701D01*
X8720886Y4547463D01*
X8717635Y4549698D01*
X8481669Y4785664D01*
X8478215Y4788814D01*
X8474710Y4791506D01*
X8470950Y4793894D01*
X8466988Y4795926D01*
X8462924Y4797653D01*
X8458657Y4798974D01*
X8454339Y4799939D01*
X8449919Y4800498D01*
X8445296Y4800701D01*
X8255508Y4800701D01*
X8251190Y4801666D01*
X8248853Y4802733D01*
X8239404Y4805273D01*
X8229600Y4806137D01*
X8219795Y4805273D01*
X8210346Y4802733D01*
X8201406Y4798618D01*
X8193379Y4792980D01*
X8186420Y4786020D01*
X8180781Y4777994D01*
X8176666Y4769053D01*
X8174126Y4759604D01*
X8173770Y4755946D01*
X8172450Y4751781D01*
X8170672Y4749800D01*
X8172450Y4747818D01*
X8173770Y4743653D01*
X8174126Y4739995D01*
X8176666Y4730546D01*
X8180781Y4721606D01*
X8186420Y4713579D01*
X8193379Y4706620D01*
X8201406Y4700981D01*
X8210346Y4696866D01*
X8219795Y4694326D01*
X8229600Y4693462D01*
X8239404Y4694326D01*
X8248853Y4696866D01*
X8251190Y4697933D01*
X8255508Y4698898D01*
X8420201Y4698898D01*
X8424113Y4698136D01*
X8427364Y4695901D01*
X8663330Y4459935D01*
X8666784Y4456785D01*
X8670290Y4454093D01*
X8674049Y4451705D01*
X8678011Y4449673D01*
X8682075Y4447946D01*
X8686342Y4446625D01*
X8690660Y4445660D01*
X8695080Y4445101D01*
X8699703Y4444898D01*
X9537801Y4444898D01*
X9541713Y4444136D01*
X9544964Y4441901D01*
X9552330Y4434535D01*
X9555784Y4431385D01*
X9559290Y4428693D01*
X9563049Y4426305D01*
X9567011Y4424273D01*
X9571075Y4422546D01*
X9575342Y4421225D01*
X9579660Y4420260D01*
X9584080Y4419701D01*
X9588703Y4419498D01*
X10175290Y4419498D01*
X10178999Y4418787D01*
X10182199Y4416755D01*
X10184434Y4413707D01*
X10185400Y4410049D01*
X10185806Y4404360D01*
X10188549Y4391863D01*
X10193020Y4379925D01*
X10197744Y4371187D01*
X10198963Y4367123D01*
X10198404Y4362907D01*
X10196169Y4359249D01*
X10192613Y4356912D01*
X10187736Y4356201D01*
X8268208Y4356201D01*
X8263890Y4357166D01*
X8261553Y4358233D01*
X8252104Y4360773D01*
X8242300Y4361637D01*
X8232495Y4360773D01*
X8223046Y4358233D01*
X8214106Y4354118D01*
X8206079Y4348480D01*
X8199120Y4341520D01*
X8193481Y4333494D01*
X8189366Y4324553D01*
X8186826Y4315104D01*
X8185962Y4305300D01*
X8186826Y4295495D01*
X8189366Y4286046D01*
X8193481Y4277106D01*
X8199120Y4269079D01*
X8206079Y4262120D01*
X8214106Y4256481D01*
X8223046Y4252366D01*
X8232495Y4249826D01*
X8242300Y4248962D01*
X8252104Y4249826D01*
X8261553Y4252366D01*
X8263890Y4253433D01*
X8268208Y4254398D01*
X10162641Y4254398D01*
X10166553Y4253636D01*
X10169804Y4251401D01*
X10182809Y4238447D01*
X10185146Y4234789D01*
X10185755Y4230522D01*
X10184942Y4218940D01*
X10185806Y4206240D01*
X10188549Y4193743D01*
X10193020Y4181805D01*
X10199116Y4170629D01*
X10206736Y4160418D01*
X10215778Y4151376D01*
X10225989Y4143756D01*
X10237165Y4137660D01*
X10249103Y4133189D01*
X10261600Y4130446D01*
G37*
G36*
X13265962Y4146550D02*
G01*
X13341350Y4146550D01*
X13341350Y4221886D01*
X13328192Y4214418D01*
X13313257Y4203801D01*
X13299440Y4191711D01*
X13286994Y4178198D01*
X13275970Y4163517D01*
X13266521Y4147769D01*
G37*
G36*
X13506450Y4146550D02*
G01*
X13581837Y4146550D01*
X13581278Y4147769D01*
X13571829Y4163517D01*
X13560806Y4178198D01*
X13548360Y4191711D01*
X13534542Y4203801D01*
X13519607Y4214418D01*
X13506450Y4221886D01*
G37*
G36*
X7870596Y4165193D02*
G01*
X7884210Y4165650D01*
X7897672Y4167886D01*
X7910677Y4171950D01*
X7923072Y4177690D01*
X7934553Y4185005D01*
X7944967Y4193794D01*
X7954111Y4203954D01*
X7961833Y4215180D01*
X7967980Y4227322D01*
X7972450Y4240225D01*
X7975193Y4253585D01*
X7976108Y4267200D01*
X7975193Y4280814D01*
X7972450Y4294174D01*
X7967980Y4307078D01*
X7961833Y4319219D01*
X7954111Y4330446D01*
X7944967Y4340606D01*
X7934553Y4349394D01*
X7923072Y4356709D01*
X7910677Y4362450D01*
X7897672Y4366514D01*
X7884210Y4368749D01*
X7870596Y4369206D01*
X7857032Y4367885D01*
X7843774Y4364685D01*
X7831023Y4359808D01*
X7819085Y4353255D01*
X7808112Y4345178D01*
X7798308Y4335678D01*
X7789824Y4324959D01*
X7782864Y4313224D01*
X7777581Y4300677D01*
X7773974Y4287520D01*
X7772146Y4274007D01*
X7772146Y4260392D01*
X7773974Y4246880D01*
X7777581Y4233722D01*
X7782864Y4221175D01*
X7789824Y4209440D01*
X7798308Y4198721D01*
X7808112Y4189222D01*
X7819085Y4181144D01*
X7831023Y4174591D01*
X7843774Y4169714D01*
X7857032Y4166514D01*
G37*
G36*
X3683000Y4223156D02*
G01*
X3697020Y4224070D01*
X3710838Y4226814D01*
X3724148Y4231335D01*
X3736746Y4237583D01*
X3748481Y4245406D01*
X3759047Y4254652D01*
X3768293Y4265218D01*
X3776116Y4276953D01*
X3782364Y4289552D01*
X3786886Y4302861D01*
X3789629Y4316679D01*
X3790543Y4330700D01*
X3789629Y4344720D01*
X3786886Y4358538D01*
X3782364Y4371848D01*
X3776116Y4384446D01*
X3768293Y4396181D01*
X3759047Y4406747D01*
X3748481Y4415993D01*
X3736746Y4423816D01*
X3724148Y4430064D01*
X3710838Y4434586D01*
X3697020Y4437329D01*
X3683000Y4438243D01*
X3668979Y4437329D01*
X3655161Y4434586D01*
X3641851Y4430064D01*
X3629253Y4423816D01*
X3617518Y4415993D01*
X3606952Y4406747D01*
X3597706Y4396181D01*
X3589883Y4384446D01*
X3583635Y4371848D01*
X3579114Y4358538D01*
X3576370Y4344720D01*
X3575456Y4330700D01*
X3576370Y4316679D01*
X3579114Y4302861D01*
X3583635Y4289552D01*
X3589883Y4276953D01*
X3597706Y4265218D01*
X3606952Y4254652D01*
X3617518Y4245406D01*
X3629253Y4237583D01*
X3641851Y4231335D01*
X3655161Y4226814D01*
X3668979Y4224070D01*
G37*
G36*
X1143000Y4223156D02*
G01*
X1157020Y4224070D01*
X1170838Y4226814D01*
X1184148Y4231335D01*
X1196797Y4237583D01*
X1208481Y4245356D01*
X1219047Y4254652D01*
X1228344Y4265218D01*
X1236116Y4276902D01*
X1242364Y4289552D01*
X1246886Y4302861D01*
X1249629Y4316679D01*
X1250543Y4330700D01*
X1249629Y4344720D01*
X1246886Y4358538D01*
X1242364Y4371848D01*
X1236116Y4384497D01*
X1228344Y4396181D01*
X1219047Y4406747D01*
X1208481Y4416044D01*
X1196797Y4423816D01*
X1184148Y4430064D01*
X1170838Y4434586D01*
X1157020Y4437329D01*
X1143000Y4438243D01*
X1128979Y4437329D01*
X1115161Y4434586D01*
X1101852Y4430064D01*
X1089202Y4423816D01*
X1077518Y4416044D01*
X1066952Y4406747D01*
X1057656Y4396181D01*
X1049883Y4384497D01*
X1043635Y4371848D01*
X1039114Y4358538D01*
X1036370Y4344720D01*
X1035456Y4330700D01*
X1036370Y4316679D01*
X1039114Y4302861D01*
X1043635Y4289552D01*
X1049883Y4276902D01*
X1057656Y4265218D01*
X1066952Y4254652D01*
X1077518Y4245356D01*
X1089202Y4237583D01*
X1101852Y4231335D01*
X1115161Y4226814D01*
X1128979Y4224070D01*
G37*
G36*
X4950460Y4223359D02*
G01*
X4950460Y4277360D01*
X4896662Y4277360D01*
X4898186Y4274007D01*
X4905959Y4261459D01*
X4915204Y4249928D01*
X4925822Y4239666D01*
X4937607Y4230776D01*
G37*
G36*
X5057140Y4223613D02*
G01*
X5063744Y4226915D01*
X5076037Y4235043D01*
X5087264Y4244644D01*
X5097170Y4255566D01*
X5105704Y4267606D01*
X5110937Y4277360D01*
X5057140Y4277360D01*
G37*
G36*
X5057140Y4384040D02*
G01*
X5110937Y4384040D01*
X5105704Y4393793D01*
X5097170Y4405833D01*
X5087264Y4416755D01*
X5076037Y4426356D01*
X5063744Y4434484D01*
X5057140Y4437786D01*
G37*
G36*
X4896662Y4384040D02*
G01*
X4950460Y4384040D01*
X4950460Y4438040D01*
X4937607Y4430623D01*
X4925822Y4421733D01*
X4915204Y4411472D01*
X4905959Y4399940D01*
X4898186Y4387392D01*
G37*
G36*
X7829550Y4429404D02*
G01*
X7829550Y4476750D01*
X7782204Y4476750D01*
X7782864Y4475175D01*
X7789824Y4463440D01*
X7798308Y4452721D01*
X7808112Y4443222D01*
X7819085Y4435144D01*
G37*
G36*
X7918450Y4429556D02*
G01*
X7923072Y4431690D01*
X7934553Y4439005D01*
X7944967Y4447794D01*
X7954111Y4457954D01*
X7961833Y4469180D01*
X7965643Y4476750D01*
X7918450Y4476750D01*
G37*
G36*
X1143000Y4477156D02*
G01*
X1157020Y4478070D01*
X1170838Y4480814D01*
X1184148Y4485335D01*
X1196797Y4491583D01*
X1208481Y4499356D01*
X1219047Y4508652D01*
X1228344Y4519218D01*
X1236116Y4530902D01*
X1242364Y4543552D01*
X1246886Y4556861D01*
X1249629Y4570679D01*
X1250543Y4584700D01*
X1249629Y4598720D01*
X1246886Y4612538D01*
X1242364Y4625848D01*
X1236116Y4638497D01*
X1228344Y4650181D01*
X1219047Y4660747D01*
X1208481Y4670044D01*
X1196797Y4677816D01*
X1184148Y4684064D01*
X1170838Y4688586D01*
X1157020Y4691329D01*
X1143000Y4692243D01*
X1128979Y4691329D01*
X1115161Y4688586D01*
X1101852Y4684064D01*
X1089202Y4677816D01*
X1077518Y4670044D01*
X1066952Y4660747D01*
X1057656Y4650181D01*
X1049883Y4638497D01*
X1043635Y4625848D01*
X1039114Y4612538D01*
X1036370Y4598720D01*
X1035456Y4584700D01*
X1036370Y4570679D01*
X1039114Y4556861D01*
X1043635Y4543552D01*
X1049883Y4530902D01*
X1057656Y4519218D01*
X1066952Y4508652D01*
X1077518Y4499356D01*
X1089202Y4491583D01*
X1101852Y4485335D01*
X1115161Y4480814D01*
X1128979Y4478070D01*
G37*
G36*
X10312400Y4536948D02*
G01*
X10322610Y4542536D01*
X10332821Y4550156D01*
X10341864Y4559198D01*
X10349484Y4569409D01*
X10355072Y4579620D01*
X10312400Y4579620D01*
G37*
G36*
X7918450Y4565650D02*
G01*
X7965643Y4565650D01*
X7961833Y4573219D01*
X7954111Y4584446D01*
X7944967Y4594606D01*
X7934553Y4603394D01*
X7923072Y4610709D01*
X7918450Y4612843D01*
G37*
G36*
X7782204Y4565650D02*
G01*
X7829550Y4565650D01*
X7829550Y4612995D01*
X7819085Y4607255D01*
X7808112Y4599178D01*
X7798308Y4589678D01*
X7789824Y4578959D01*
X7782864Y4567224D01*
G37*
G36*
X9109202Y4589526D02*
G01*
X9127998Y4589526D01*
X9146743Y4591456D01*
X9165183Y4595215D01*
X9183166Y4600854D01*
X9200489Y4608322D01*
X9216948Y4617466D01*
X9232392Y4628184D01*
X9246666Y4640478D01*
X9259671Y4654092D01*
X9271152Y4669028D01*
X9281160Y4684979D01*
X9289440Y4701895D01*
X9295993Y4719574D01*
X9300667Y4737760D01*
X9303562Y4756404D01*
X9304477Y4775200D01*
X9303562Y4793996D01*
X9300667Y4812639D01*
X9295993Y4830826D01*
X9289440Y4848504D01*
X9281160Y4865420D01*
X9271152Y4881372D01*
X9259671Y4896307D01*
X9246666Y4909921D01*
X9232392Y4922215D01*
X9216948Y4932934D01*
X9200489Y4942078D01*
X9183166Y4949545D01*
X9165183Y4955184D01*
X9146743Y4958943D01*
X9127998Y4960874D01*
X9109202Y4960874D01*
X9090456Y4958943D01*
X9072016Y4955184D01*
X9054033Y4949545D01*
X9036710Y4942078D01*
X9020251Y4932934D01*
X9004808Y4922215D01*
X8990533Y4909921D01*
X8977528Y4896307D01*
X8966047Y4881372D01*
X8956040Y4865420D01*
X8947759Y4848504D01*
X8941206Y4830826D01*
X8936532Y4812639D01*
X8933637Y4793996D01*
X8932722Y4775200D01*
X8933637Y4756404D01*
X8936532Y4737760D01*
X8941206Y4719574D01*
X8947759Y4701895D01*
X8956040Y4684979D01*
X8966047Y4669028D01*
X8977528Y4654092D01*
X8990533Y4640478D01*
X9004808Y4628184D01*
X9020251Y4617466D01*
X9036710Y4608322D01*
X9054033Y4600854D01*
X9072016Y4595215D01*
X9090456Y4591456D01*
G37*
G36*
X10193528Y4655820D02*
G01*
X10236200Y4655820D01*
X10236200Y4698492D01*
X10225989Y4692904D01*
X10215778Y4685284D01*
X10206736Y4676241D01*
X10199116Y4666030D01*
G37*
G36*
X10312400Y4655820D02*
G01*
X10355072Y4655820D01*
X10349484Y4666030D01*
X10341864Y4676241D01*
X10332821Y4685284D01*
X10322610Y4692904D01*
X10312400Y4698492D01*
G37*
G36*
X7870596Y4673193D02*
G01*
X7884210Y4673650D01*
X7897672Y4675886D01*
X7910677Y4679950D01*
X7923072Y4685690D01*
X7934553Y4693005D01*
X7944967Y4701794D01*
X7954111Y4711954D01*
X7961833Y4723180D01*
X7967980Y4735322D01*
X7972450Y4748225D01*
X7975193Y4761585D01*
X7976108Y4775200D01*
X7975193Y4788814D01*
X7972450Y4802174D01*
X7967980Y4815078D01*
X7961833Y4827219D01*
X7954111Y4838446D01*
X7944967Y4848606D01*
X7934553Y4857394D01*
X7923072Y4864709D01*
X7910677Y4870450D01*
X7897672Y4874514D01*
X7884210Y4876749D01*
X7870596Y4877206D01*
X7857032Y4875885D01*
X7843774Y4872685D01*
X7831023Y4867808D01*
X7819085Y4861255D01*
X7808112Y4853178D01*
X7798308Y4843678D01*
X7789824Y4832959D01*
X7782864Y4821224D01*
X7777581Y4808677D01*
X7773974Y4795520D01*
X7772146Y4782007D01*
X7772146Y4768392D01*
X7773974Y4754880D01*
X7777581Y4741722D01*
X7782864Y4729175D01*
X7789824Y4717440D01*
X7798308Y4706721D01*
X7808112Y4697222D01*
X7819085Y4689144D01*
X7831023Y4682591D01*
X7843774Y4677714D01*
X7857032Y4674514D01*
G37*
G36*
X1143000Y4731156D02*
G01*
X1157020Y4732070D01*
X1170838Y4734814D01*
X1184148Y4739335D01*
X1196797Y4745583D01*
X1208481Y4753356D01*
X1219047Y4762652D01*
X1228344Y4773218D01*
X1236116Y4784902D01*
X1242364Y4797552D01*
X1246886Y4810861D01*
X1249629Y4824679D01*
X1250543Y4838700D01*
X1249629Y4852720D01*
X1246886Y4866538D01*
X1242364Y4879848D01*
X1236116Y4892497D01*
X1228344Y4904181D01*
X1219047Y4914747D01*
X1208481Y4924044D01*
X1196797Y4931816D01*
X1184148Y4938064D01*
X1170838Y4942586D01*
X1157020Y4945329D01*
X1143000Y4946243D01*
X1128979Y4945329D01*
X1115161Y4942586D01*
X1101852Y4938064D01*
X1089202Y4931816D01*
X1077518Y4924044D01*
X1066952Y4914747D01*
X1057656Y4904181D01*
X1049883Y4892497D01*
X1043635Y4879848D01*
X1039114Y4866538D01*
X1036370Y4852720D01*
X1035456Y4838700D01*
X1036370Y4824679D01*
X1039114Y4810861D01*
X1043635Y4797552D01*
X1049883Y4784902D01*
X1057656Y4773218D01*
X1066952Y4762652D01*
X1077518Y4753356D01*
X1089202Y4745583D01*
X1101852Y4739335D01*
X1115161Y4734814D01*
X1128979Y4732070D01*
G37*
G36*
X1061923Y4985105D02*
G01*
X1095806Y4985105D01*
X1095806Y5045506D01*
X1035456Y5045506D01*
X1035456Y5011623D01*
X1036167Y5005273D01*
X1038047Y4999837D01*
X1041146Y4994910D01*
X1045210Y4990846D01*
X1050137Y4987747D01*
X1055573Y4985867D01*
G37*
G36*
X1190193Y4985105D02*
G01*
X1224076Y4985105D01*
X1230426Y4985867D01*
X1235862Y4987747D01*
X1240790Y4990846D01*
X1244854Y4994910D01*
X1247952Y4999837D01*
X1249832Y5005273D01*
X1250594Y5011623D01*
X1250594Y5045506D01*
X1190193Y5045506D01*
G37*
G36*
X3683000Y4985156D02*
G01*
X3697020Y4986070D01*
X3710838Y4988814D01*
X3724148Y4993335D01*
X3736797Y4999583D01*
X3748481Y5007356D01*
X3759047Y5016652D01*
X3768344Y5027218D01*
X3776116Y5038902D01*
X3782364Y5051552D01*
X3786886Y5064861D01*
X3789629Y5078679D01*
X3790543Y5092700D01*
X3789629Y5106720D01*
X3786886Y5120538D01*
X3782364Y5133848D01*
X3776116Y5146497D01*
X3768344Y5158181D01*
X3759047Y5168747D01*
X3748481Y5178044D01*
X3736797Y5185816D01*
X3724148Y5192064D01*
X3710838Y5196586D01*
X3697020Y5199329D01*
X3683000Y5200243D01*
X3668979Y5199329D01*
X3655161Y5196586D01*
X3641851Y5192064D01*
X3629202Y5185816D01*
X3617518Y5178044D01*
X3606952Y5168747D01*
X3597656Y5158181D01*
X3589883Y5146497D01*
X3583635Y5133848D01*
X3579114Y5120538D01*
X3576370Y5106720D01*
X3575456Y5092700D01*
X3576370Y5078679D01*
X3579114Y5064861D01*
X3583635Y5051552D01*
X3589883Y5038902D01*
X3597656Y5027218D01*
X3606952Y5016652D01*
X3617518Y5007356D01*
X3629202Y4999583D01*
X3641851Y4993335D01*
X3655161Y4988814D01*
X3668979Y4986070D01*
G37*
G36*
X1035456Y5139893D02*
G01*
X1095806Y5139893D01*
X1095806Y5200243D01*
X1061923Y5200243D01*
X1055573Y5199532D01*
X1050137Y5197652D01*
X1045210Y5194554D01*
X1041146Y5190490D01*
X1038047Y5185562D01*
X1036167Y5180126D01*
X1035456Y5173776D01*
G37*
G36*
X1190193Y5139893D02*
G01*
X1250594Y5139893D01*
X1250594Y5173776D01*
X1249832Y5180126D01*
X1247952Y5185562D01*
X1244854Y5190490D01*
X1240790Y5194554D01*
X1235862Y5197652D01*
X1230426Y5199532D01*
X1224076Y5200243D01*
X1190193Y5200243D01*
G37*
G36*
X4245508Y5150662D02*
G01*
X4260189Y5152034D01*
X4274616Y5155184D01*
X4288536Y5160111D01*
X4301744Y5166715D01*
X4314037Y5174843D01*
X4325264Y5184444D01*
X4335170Y5195366D01*
X4343704Y5207406D01*
X4350715Y5220411D01*
X4356049Y5234178D01*
X4359605Y5248452D01*
X4361434Y5263134D01*
X4361434Y5277866D01*
X4359605Y5292547D01*
X4356049Y5306822D01*
X4350715Y5320588D01*
X4343704Y5333593D01*
X4335170Y5345633D01*
X4325264Y5356555D01*
X4314037Y5366156D01*
X4301744Y5374284D01*
X4288536Y5380888D01*
X4274616Y5385816D01*
X4260189Y5388965D01*
X4245508Y5390286D01*
X4230725Y5389880D01*
X4216146Y5387594D01*
X4201972Y5383530D01*
X4188358Y5377789D01*
X4175607Y5370423D01*
X4163822Y5361533D01*
X4153204Y5351272D01*
X4143959Y5339740D01*
X4136186Y5327192D01*
X4130040Y5313781D01*
X4125569Y5299760D01*
X4122826Y5285232D01*
X4121912Y5270500D01*
X4122826Y5255768D01*
X4125569Y5241239D01*
X4130040Y5227218D01*
X4136186Y5213807D01*
X4143959Y5201259D01*
X4153204Y5189728D01*
X4163822Y5179466D01*
X4175607Y5170576D01*
X4188358Y5163210D01*
X4201972Y5157470D01*
X4216146Y5153406D01*
X4230725Y5151120D01*
G37*
G36*
X4950460Y5163159D02*
G01*
X4950460Y5217160D01*
X4896662Y5217160D01*
X4898186Y5213807D01*
X4905959Y5201259D01*
X4915204Y5189728D01*
X4925822Y5179466D01*
X4937607Y5170576D01*
G37*
G36*
X5057140Y5163413D02*
G01*
X5063744Y5166715D01*
X5076037Y5174843D01*
X5087264Y5184444D01*
X5097170Y5195366D01*
X5105704Y5207406D01*
X5110937Y5217160D01*
X5057140Y5217160D01*
G37*
G36*
X1143000Y5239156D02*
G01*
X1157020Y5240070D01*
X1170838Y5242814D01*
X1184148Y5247335D01*
X1196797Y5253583D01*
X1208481Y5261356D01*
X1219047Y5270652D01*
X1228344Y5281218D01*
X1236116Y5292902D01*
X1242364Y5305552D01*
X1246886Y5318861D01*
X1249629Y5332679D01*
X1250543Y5346700D01*
X1249629Y5360720D01*
X1246886Y5374538D01*
X1242364Y5387848D01*
X1236116Y5400497D01*
X1228344Y5412181D01*
X1219047Y5422747D01*
X1208481Y5432044D01*
X1196797Y5439816D01*
X1184148Y5446064D01*
X1170838Y5450586D01*
X1157020Y5453329D01*
X1143000Y5454243D01*
X1128979Y5453329D01*
X1115161Y5450586D01*
X1101852Y5446064D01*
X1089202Y5439816D01*
X1077518Y5432044D01*
X1066952Y5422747D01*
X1057656Y5412181D01*
X1049883Y5400497D01*
X1043635Y5387848D01*
X1039114Y5374538D01*
X1036370Y5360720D01*
X1035456Y5346700D01*
X1036370Y5332679D01*
X1039114Y5318861D01*
X1043635Y5305552D01*
X1049883Y5292902D01*
X1057656Y5281218D01*
X1066952Y5270652D01*
X1077518Y5261356D01*
X1089202Y5253583D01*
X1101852Y5247335D01*
X1115161Y5242814D01*
X1128979Y5240070D01*
G37*
G36*
X3683000Y5239156D02*
G01*
X3697020Y5240070D01*
X3710838Y5242814D01*
X3724148Y5247335D01*
X3736797Y5253583D01*
X3748481Y5261356D01*
X3759047Y5270652D01*
X3768344Y5281218D01*
X3776116Y5292902D01*
X3782364Y5305552D01*
X3786886Y5318861D01*
X3789629Y5332679D01*
X3790543Y5346700D01*
X3789629Y5360720D01*
X3786886Y5374538D01*
X3782364Y5387848D01*
X3776116Y5400497D01*
X3768344Y5412181D01*
X3759047Y5422747D01*
X3748481Y5432044D01*
X3736797Y5439816D01*
X3724148Y5446064D01*
X3710838Y5450586D01*
X3697020Y5453329D01*
X3683000Y5454243D01*
X3668979Y5453329D01*
X3655161Y5450586D01*
X3641851Y5446064D01*
X3629202Y5439816D01*
X3617518Y5432044D01*
X3606952Y5422747D01*
X3597656Y5412181D01*
X3589883Y5400497D01*
X3583635Y5387848D01*
X3579114Y5374538D01*
X3576370Y5360720D01*
X3575456Y5346700D01*
X3576370Y5332679D01*
X3579114Y5318861D01*
X3583635Y5305552D01*
X3589883Y5292902D01*
X3597656Y5281218D01*
X3606952Y5270652D01*
X3617518Y5261356D01*
X3629202Y5253583D01*
X3641851Y5247335D01*
X3655161Y5242814D01*
X3668979Y5240070D01*
G37*
G36*
X5057140Y5323840D02*
G01*
X5110937Y5323840D01*
X5105704Y5333593D01*
X5097170Y5345633D01*
X5087264Y5356555D01*
X5076037Y5366156D01*
X5063744Y5374284D01*
X5057140Y5377586D01*
G37*
G36*
X4896662Y5323840D02*
G01*
X4950460Y5323840D01*
X4950460Y5377840D01*
X4937607Y5370423D01*
X4925822Y5361533D01*
X4915204Y5351272D01*
X4905959Y5339740D01*
X4898186Y5327192D01*
G37*
G36*
X3683000Y5493156D02*
G01*
X3697020Y5494070D01*
X3710838Y5496814D01*
X3724148Y5501335D01*
X3736797Y5507583D01*
X3748481Y5515356D01*
X3759047Y5524652D01*
X3768344Y5535218D01*
X3776116Y5546902D01*
X3782364Y5559552D01*
X3786886Y5572861D01*
X3789629Y5586679D01*
X3790543Y5600700D01*
X3789629Y5614720D01*
X3786886Y5628538D01*
X3782364Y5641848D01*
X3776116Y5654497D01*
X3768344Y5666181D01*
X3759047Y5676747D01*
X3748481Y5686044D01*
X3736797Y5693816D01*
X3724148Y5700064D01*
X3710838Y5704586D01*
X3697020Y5707329D01*
X3683000Y5708243D01*
X3668979Y5707329D01*
X3655161Y5704586D01*
X3641851Y5700064D01*
X3629202Y5693816D01*
X3617518Y5686044D01*
X3606952Y5676747D01*
X3597656Y5666181D01*
X3589883Y5654497D01*
X3583635Y5641848D01*
X3579114Y5628538D01*
X3576370Y5614720D01*
X3575456Y5600700D01*
X3576370Y5586679D01*
X3579114Y5572861D01*
X3583635Y5559552D01*
X3589883Y5546902D01*
X3597656Y5535218D01*
X3606952Y5524652D01*
X3617518Y5515356D01*
X3629202Y5507583D01*
X3641851Y5501335D01*
X3655161Y5496814D01*
X3668979Y5494070D01*
G37*
G36*
X1143000Y5747156D02*
G01*
X1157020Y5748070D01*
X1170838Y5750814D01*
X1184148Y5755335D01*
X1196797Y5761583D01*
X1208481Y5769356D01*
X1219047Y5778652D01*
X1228344Y5789218D01*
X1236116Y5800902D01*
X1242364Y5813552D01*
X1246886Y5826861D01*
X1249629Y5840679D01*
X1250543Y5854700D01*
X1249629Y5868720D01*
X1246886Y5882538D01*
X1242364Y5895848D01*
X1236116Y5908497D01*
X1228344Y5920181D01*
X1219047Y5930747D01*
X1208481Y5940044D01*
X1196797Y5947816D01*
X1184148Y5954064D01*
X1170838Y5958586D01*
X1157020Y5961329D01*
X1143000Y5962243D01*
X1128979Y5961329D01*
X1115161Y5958586D01*
X1101852Y5954064D01*
X1089202Y5947816D01*
X1077518Y5940044D01*
X1066952Y5930747D01*
X1057656Y5920181D01*
X1049883Y5908497D01*
X1043635Y5895848D01*
X1039114Y5882538D01*
X1036370Y5868720D01*
X1035456Y5854700D01*
X1036370Y5840679D01*
X1039114Y5826861D01*
X1043635Y5813552D01*
X1049883Y5800902D01*
X1057656Y5789218D01*
X1066952Y5778652D01*
X1077518Y5769356D01*
X1089202Y5761583D01*
X1101852Y5755335D01*
X1115161Y5750814D01*
X1128979Y5748070D01*
G37*
G36*
X3683000Y5747156D02*
G01*
X3697020Y5748070D01*
X3710838Y5750814D01*
X3724148Y5755335D01*
X3736797Y5761583D01*
X3748481Y5769356D01*
X3759047Y5778652D01*
X3768344Y5789218D01*
X3776116Y5800902D01*
X3782364Y5813552D01*
X3786886Y5826861D01*
X3789629Y5840679D01*
X3790543Y5854700D01*
X3789629Y5868720D01*
X3786886Y5882538D01*
X3782364Y5895848D01*
X3776116Y5908497D01*
X3768344Y5920181D01*
X3759047Y5930747D01*
X3748481Y5940044D01*
X3736797Y5947816D01*
X3724148Y5954064D01*
X3710838Y5958586D01*
X3697020Y5961329D01*
X3683000Y5962243D01*
X3668979Y5961329D01*
X3655161Y5958586D01*
X3641851Y5954064D01*
X3629202Y5947816D01*
X3617518Y5940044D01*
X3606952Y5930747D01*
X3597656Y5920181D01*
X3589883Y5908497D01*
X3583635Y5895848D01*
X3579114Y5882538D01*
X3576370Y5868720D01*
X3575456Y5854700D01*
X3576370Y5840679D01*
X3579114Y5826861D01*
X3583635Y5813552D01*
X3589883Y5800902D01*
X3597656Y5789218D01*
X3606952Y5778652D01*
X3617518Y5769356D01*
X3629202Y5761583D01*
X3641851Y5755335D01*
X3655161Y5750814D01*
X3668979Y5748070D01*
G37*
G36*
X8390839Y5939790D02*
G01*
X8406333Y5940247D01*
X8421674Y5942533D01*
X8436610Y5946597D01*
X8450986Y5952439D01*
X8464550Y5959906D01*
X8477148Y5968949D01*
X8488629Y5979414D01*
X8498738Y5991199D01*
X8507425Y6004052D01*
X8514486Y6017818D01*
X8519871Y6032347D01*
X8523528Y6047435D01*
X8525357Y6062827D01*
X8525357Y6078372D01*
X8523528Y6093764D01*
X8519871Y6108852D01*
X8514486Y6123381D01*
X8507425Y6137148D01*
X8498738Y6150000D01*
X8488629Y6161786D01*
X8477148Y6172250D01*
X8464550Y6181293D01*
X8454796Y6186678D01*
X8451545Y6189522D01*
X8449767Y6193434D01*
X8449767Y6195110D01*
X8447328Y6193434D01*
X8443468Y6192672D01*
X8439556Y6193383D01*
X8436610Y6194602D01*
X8421674Y6198666D01*
X8406333Y6200952D01*
X8390839Y6201410D01*
X8375396Y6200038D01*
X8360206Y6196838D01*
X8349284Y6193180D01*
X8345474Y6192621D01*
X8341766Y6193586D01*
X8339683Y6195060D01*
X8339023Y6191859D01*
X8337042Y6188659D01*
X8333943Y6186373D01*
X8331504Y6185204D01*
X8318398Y6176924D01*
X8306358Y6167170D01*
X8295538Y6156045D01*
X8286140Y6143701D01*
X8278266Y6130391D01*
X8272018Y6116167D01*
X8267496Y6101334D01*
X8264753Y6086094D01*
X8263788Y6070600D01*
X8264753Y6055106D01*
X8267496Y6039866D01*
X8272018Y6025032D01*
X8278266Y6010808D01*
X8286140Y5997498D01*
X8295538Y5985154D01*
X8306358Y5974029D01*
X8318398Y5964275D01*
X8331504Y5955995D01*
X8345525Y5949289D01*
X8360206Y5944362D01*
X8375396Y5941161D01*
G37*
G36*
X11680139Y5952490D02*
G01*
X11695633Y5952947D01*
X11710974Y5955233D01*
X11725910Y5959297D01*
X11740286Y5965139D01*
X11753850Y5972606D01*
X11766448Y5981649D01*
X11777929Y5992114D01*
X11788038Y6003899D01*
X11796725Y6016752D01*
X11803786Y6030518D01*
X11809171Y6045047D01*
X11812828Y6060135D01*
X11814657Y6075527D01*
X11814657Y6091072D01*
X11812828Y6106464D01*
X11809171Y6121552D01*
X11803786Y6136081D01*
X11796725Y6149848D01*
X11788038Y6162700D01*
X11777929Y6174486D01*
X11766448Y6184950D01*
X11753850Y6193993D01*
X11744096Y6199378D01*
X11740845Y6202222D01*
X11739067Y6206134D01*
X11739067Y6207810D01*
X11736628Y6206134D01*
X11732768Y6205372D01*
X11728856Y6206083D01*
X11725910Y6207302D01*
X11710974Y6211366D01*
X11695633Y6213652D01*
X11680139Y6214110D01*
X11664696Y6212738D01*
X11649506Y6209538D01*
X11638584Y6205880D01*
X11634774Y6205321D01*
X11631066Y6206286D01*
X11628983Y6207760D01*
X11628323Y6204559D01*
X11626342Y6201359D01*
X11623243Y6199073D01*
X11620804Y6197904D01*
X11607698Y6189624D01*
X11595658Y6179870D01*
X11584838Y6168745D01*
X11575440Y6156401D01*
X11567566Y6143091D01*
X11561318Y6128867D01*
X11556796Y6114034D01*
X11554053Y6098794D01*
X11553088Y6083300D01*
X11554053Y6067806D01*
X11556796Y6052566D01*
X11561318Y6037732D01*
X11567566Y6023508D01*
X11575440Y6010198D01*
X11584838Y5997854D01*
X11595658Y5986729D01*
X11607698Y5976975D01*
X11620804Y5968695D01*
X11634825Y5961989D01*
X11649506Y5957062D01*
X11664696Y5953861D01*
G37*
G36*
X5076139Y5952490D02*
G01*
X5091633Y5952947D01*
X5106974Y5955233D01*
X5121910Y5959297D01*
X5136286Y5965139D01*
X5149850Y5972606D01*
X5162448Y5981649D01*
X5173929Y5992114D01*
X5184038Y6003899D01*
X5192725Y6016752D01*
X5199786Y6030518D01*
X5205171Y6045047D01*
X5208828Y6060135D01*
X5210657Y6075527D01*
X5210657Y6091072D01*
X5208828Y6106464D01*
X5205171Y6121552D01*
X5199786Y6136081D01*
X5192725Y6149848D01*
X5184038Y6162700D01*
X5173929Y6174486D01*
X5162448Y6184950D01*
X5149850Y6193993D01*
X5140096Y6199378D01*
X5136845Y6202222D01*
X5135067Y6206134D01*
X5135067Y6207810D01*
X5132628Y6206134D01*
X5128768Y6205372D01*
X5124856Y6206083D01*
X5121910Y6207302D01*
X5106974Y6211366D01*
X5091633Y6213652D01*
X5076139Y6214110D01*
X5060696Y6212738D01*
X5045506Y6209538D01*
X5034584Y6205880D01*
X5030774Y6205321D01*
X5027066Y6206286D01*
X5024983Y6207760D01*
X5024323Y6204559D01*
X5022342Y6201359D01*
X5019243Y6199073D01*
X5016804Y6197904D01*
X5003698Y6189624D01*
X4991658Y6179870D01*
X4980838Y6168745D01*
X4971440Y6156401D01*
X4963566Y6143091D01*
X4957318Y6128867D01*
X4952796Y6114034D01*
X4950053Y6098794D01*
X4949088Y6083300D01*
X4950053Y6067806D01*
X4952796Y6052566D01*
X4957318Y6037732D01*
X4963566Y6023508D01*
X4971440Y6010198D01*
X4980838Y5997854D01*
X4991658Y5986729D01*
X5003698Y5976975D01*
X5016804Y5968695D01*
X5030825Y5961989D01*
X5045506Y5957062D01*
X5060696Y5953861D01*
G37*
G36*
X1143000Y6001156D02*
G01*
X1157020Y6002070D01*
X1170838Y6004814D01*
X1184148Y6009335D01*
X1196797Y6015583D01*
X1208481Y6023356D01*
X1219047Y6032652D01*
X1228344Y6043218D01*
X1236116Y6054902D01*
X1242364Y6067552D01*
X1246886Y6080861D01*
X1249629Y6094679D01*
X1250543Y6108700D01*
X1249629Y6122720D01*
X1246886Y6136538D01*
X1242364Y6149848D01*
X1236116Y6162497D01*
X1228344Y6174181D01*
X1219047Y6184747D01*
X1208481Y6194044D01*
X1196797Y6201816D01*
X1184148Y6208064D01*
X1170838Y6212586D01*
X1157020Y6215329D01*
X1143000Y6216243D01*
X1128979Y6215329D01*
X1115161Y6212586D01*
X1101852Y6208064D01*
X1089202Y6201816D01*
X1077518Y6194044D01*
X1066952Y6184747D01*
X1057656Y6174181D01*
X1049883Y6162497D01*
X1043635Y6149848D01*
X1039114Y6136538D01*
X1036370Y6122720D01*
X1035456Y6108700D01*
X1036370Y6094679D01*
X1039114Y6080861D01*
X1043635Y6067552D01*
X1049883Y6054902D01*
X1057656Y6043218D01*
X1066952Y6032652D01*
X1077518Y6023356D01*
X1089202Y6015583D01*
X1101852Y6009335D01*
X1115161Y6004814D01*
X1128979Y6002070D01*
G37*
G36*
X3683000Y6001156D02*
G01*
X3697020Y6002070D01*
X3710838Y6004814D01*
X3724148Y6009335D01*
X3736797Y6015583D01*
X3748481Y6023356D01*
X3759047Y6032652D01*
X3768344Y6043218D01*
X3776116Y6054902D01*
X3782364Y6067552D01*
X3786886Y6080861D01*
X3789629Y6094679D01*
X3790543Y6108700D01*
X3789629Y6122720D01*
X3786886Y6136538D01*
X3782364Y6149848D01*
X3776116Y6162497D01*
X3768344Y6174181D01*
X3759047Y6184747D01*
X3748481Y6194044D01*
X3736797Y6201816D01*
X3724148Y6208064D01*
X3710838Y6212586D01*
X3697020Y6215329D01*
X3683000Y6216243D01*
X3668979Y6215329D01*
X3655161Y6212586D01*
X3641851Y6208064D01*
X3629202Y6201816D01*
X3617518Y6194044D01*
X3606952Y6184747D01*
X3597656Y6174181D01*
X3589883Y6162497D01*
X3583635Y6149848D01*
X3579114Y6136538D01*
X3576370Y6122720D01*
X3575456Y6108700D01*
X3576370Y6094679D01*
X3579114Y6080861D01*
X3583635Y6067552D01*
X3589883Y6054902D01*
X3597656Y6043218D01*
X3606952Y6032652D01*
X3617518Y6023356D01*
X3629202Y6015583D01*
X3641851Y6009335D01*
X3655161Y6004814D01*
X3668979Y6002070D01*
G37*
G36*
X8335873Y6203340D02*
G01*
X8335873Y6261709D01*
X8277859Y6261709D01*
X8278266Y6260744D01*
X8286140Y6247434D01*
X8295538Y6235090D01*
X8306358Y6223965D01*
X8318398Y6214211D01*
G37*
G36*
X8453526Y6203391D02*
G01*
X8454796Y6204458D01*
X8464550Y6209842D01*
X8477148Y6218885D01*
X8488629Y6229350D01*
X8498738Y6241135D01*
X8507425Y6253988D01*
X8511336Y6261709D01*
X8453526Y6261709D01*
G37*
G36*
X11625173Y6216040D02*
G01*
X11625173Y6274409D01*
X11567160Y6274409D01*
X11567566Y6273444D01*
X11575440Y6260134D01*
X11584838Y6247790D01*
X11595658Y6236665D01*
X11607698Y6226911D01*
G37*
G36*
X5021173Y6216040D02*
G01*
X5021173Y6274409D01*
X4963160Y6274409D01*
X4963566Y6273444D01*
X4971440Y6260134D01*
X4980838Y6247790D01*
X4991658Y6236665D01*
X5003698Y6226911D01*
X5016804Y6218631D01*
X5019243Y6217462D01*
G37*
G36*
X5138826Y6216091D02*
G01*
X5140096Y6217158D01*
X5149850Y6222542D01*
X5162448Y6231585D01*
X5173929Y6242050D01*
X5184038Y6253835D01*
X5192725Y6266688D01*
X5196636Y6274409D01*
X5138826Y6274409D01*
G37*
G36*
X11742826Y6216091D02*
G01*
X11744096Y6217158D01*
X11753850Y6222542D01*
X11766448Y6231585D01*
X11777929Y6242050D01*
X11788038Y6253835D01*
X11796725Y6266688D01*
X11800636Y6274409D01*
X11742826Y6274409D01*
G37*
G36*
X1143000Y6255156D02*
G01*
X1157020Y6256070D01*
X1170838Y6258814D01*
X1184148Y6263335D01*
X1196797Y6269583D01*
X1208481Y6277356D01*
X1219047Y6286652D01*
X1228344Y6297218D01*
X1236116Y6308902D01*
X1242364Y6321552D01*
X1246886Y6334861D01*
X1249629Y6348679D01*
X1250543Y6362700D01*
X1249629Y6376720D01*
X1246886Y6390538D01*
X1242364Y6403848D01*
X1236116Y6416497D01*
X1228344Y6428181D01*
X1219047Y6438747D01*
X1208481Y6448044D01*
X1196797Y6455816D01*
X1184148Y6462064D01*
X1170838Y6466586D01*
X1157020Y6469329D01*
X1143000Y6470243D01*
X1128979Y6469329D01*
X1115161Y6466586D01*
X1101852Y6462064D01*
X1089202Y6455816D01*
X1077518Y6448044D01*
X1066952Y6438747D01*
X1057656Y6428181D01*
X1049883Y6416497D01*
X1043635Y6403848D01*
X1039114Y6390538D01*
X1036370Y6376720D01*
X1035456Y6362700D01*
X1036370Y6348679D01*
X1039114Y6334861D01*
X1043635Y6321552D01*
X1049883Y6308902D01*
X1057656Y6297218D01*
X1066952Y6286652D01*
X1077518Y6277356D01*
X1089202Y6269583D01*
X1101852Y6263335D01*
X1115161Y6258814D01*
X1128979Y6256070D01*
G37*
G36*
X3683000Y6255156D02*
G01*
X3697020Y6256070D01*
X3710838Y6258814D01*
X3724148Y6263335D01*
X3736797Y6269583D01*
X3748481Y6277356D01*
X3759047Y6286652D01*
X3768344Y6297218D01*
X3776116Y6308902D01*
X3782364Y6321552D01*
X3786886Y6334861D01*
X3789629Y6348679D01*
X3790543Y6362700D01*
X3789629Y6376720D01*
X3786886Y6390538D01*
X3782364Y6403848D01*
X3776116Y6416497D01*
X3768344Y6428181D01*
X3759047Y6438747D01*
X3748481Y6448044D01*
X3736797Y6455816D01*
X3724148Y6462064D01*
X3710838Y6466586D01*
X3697020Y6469329D01*
X3683000Y6470243D01*
X3668979Y6469329D01*
X3655161Y6466586D01*
X3641851Y6462064D01*
X3629202Y6455816D01*
X3617518Y6448044D01*
X3606952Y6438747D01*
X3597656Y6428181D01*
X3589883Y6416497D01*
X3583635Y6403848D01*
X3579114Y6390538D01*
X3576370Y6376720D01*
X3575456Y6362700D01*
X3576370Y6348679D01*
X3579114Y6334861D01*
X3583635Y6321552D01*
X3589883Y6308902D01*
X3597656Y6297218D01*
X3606952Y6286652D01*
X3617518Y6277356D01*
X3629202Y6269583D01*
X3641851Y6263335D01*
X3655161Y6258814D01*
X3668979Y6256070D01*
G37*
G36*
X8453526Y6379362D02*
G01*
X8511336Y6379362D01*
X8507425Y6387084D01*
X8498738Y6399936D01*
X8488629Y6411722D01*
X8477148Y6422186D01*
X8464550Y6431229D01*
X8453526Y6437274D01*
G37*
G36*
X8277859Y6379362D02*
G01*
X8335873Y6379362D01*
X8335873Y6437223D01*
X8331504Y6435140D01*
X8318398Y6426860D01*
X8306358Y6417106D01*
X8295538Y6405981D01*
X8286140Y6393637D01*
X8278266Y6380327D01*
G37*
G36*
X11742826Y6392062D02*
G01*
X11800636Y6392062D01*
X11796725Y6399784D01*
X11788038Y6412636D01*
X11777929Y6424422D01*
X11766448Y6434886D01*
X11753850Y6443929D01*
X11742826Y6449974D01*
G37*
G36*
X5138826Y6392062D02*
G01*
X5196636Y6392062D01*
X5192725Y6399784D01*
X5184038Y6412636D01*
X5173929Y6424422D01*
X5162448Y6434886D01*
X5149850Y6443929D01*
X5138826Y6449974D01*
G37*
G36*
X11567160Y6392062D02*
G01*
X11625173Y6392062D01*
X11625173Y6449923D01*
X11620804Y6447840D01*
X11607698Y6439560D01*
X11595658Y6429806D01*
X11584838Y6418681D01*
X11575440Y6406337D01*
X11567566Y6393027D01*
G37*
G36*
X4963160Y6392062D02*
G01*
X5021173Y6392062D01*
X5021173Y6449923D01*
X5016804Y6447840D01*
X5003698Y6439560D01*
X4991658Y6429806D01*
X4980838Y6418681D01*
X4971440Y6406337D01*
X4963566Y6393027D01*
G37*
G36*
X8390839Y6447790D02*
G01*
X8406333Y6448247D01*
X8421674Y6450533D01*
X8436610Y6454597D01*
X8439556Y6455816D01*
X8444077Y6456781D01*
X8447430Y6458966D01*
X8450986Y6460439D01*
X8464550Y6467906D01*
X8477148Y6476949D01*
X8488629Y6487414D01*
X8498738Y6499148D01*
X8502192Y6501790D01*
X8506409Y6502704D01*
X10337596Y6502704D01*
X10343489Y6502907D01*
X10349128Y6503568D01*
X10354665Y6504584D01*
X10360152Y6506057D01*
X10365536Y6507937D01*
X10370718Y6510223D01*
X10375747Y6512864D01*
X10380573Y6515912D01*
X10385145Y6519265D01*
X10389412Y6522974D01*
X10393426Y6526987D01*
X10397134Y6531254D01*
X10400487Y6535826D01*
X10403535Y6540652D01*
X10406176Y6545681D01*
X10408462Y6550863D01*
X10410342Y6556248D01*
X10411815Y6561734D01*
X10412831Y6567271D01*
X10413492Y6572910D01*
X10413695Y6578803D01*
X10413695Y6898944D01*
X10414457Y6902805D01*
X10416692Y6906107D01*
X10419994Y6908342D01*
X10423855Y6909104D01*
X10741304Y6909104D01*
X10750296Y6909663D01*
X10751769Y6909562D01*
X10764012Y6910476D01*
X10775950Y6913067D01*
X10787380Y6917334D01*
X10790986Y6918959D01*
X10793476Y6919264D01*
X11244478Y6919264D01*
X11248390Y6918502D01*
X11251692Y6916267D01*
X11551361Y6616598D01*
X11553240Y6613956D01*
X11554256Y6610858D01*
X11553088Y6591300D01*
X11554053Y6575806D01*
X11556796Y6560566D01*
X11561318Y6545732D01*
X11567566Y6531508D01*
X11575440Y6518198D01*
X11584838Y6505854D01*
X11595658Y6494729D01*
X11607698Y6484975D01*
X11620804Y6476695D01*
X11631777Y6471462D01*
X11634774Y6469278D01*
X11638584Y6468719D01*
X11649506Y6465062D01*
X11664696Y6461861D01*
X11680139Y6460490D01*
X11695633Y6460947D01*
X11710974Y6463233D01*
X11725910Y6467297D01*
X11728856Y6468516D01*
X11733377Y6469481D01*
X11736730Y6471666D01*
X11740286Y6473139D01*
X11753850Y6480606D01*
X11766448Y6489649D01*
X11777929Y6500114D01*
X11788038Y6511899D01*
X11796725Y6524752D01*
X11803786Y6538518D01*
X11809171Y6553047D01*
X11812828Y6568135D01*
X11814657Y6583527D01*
X11814657Y6599072D01*
X11812828Y6614464D01*
X11809171Y6629552D01*
X11803786Y6644081D01*
X11796725Y6657848D01*
X11788038Y6670700D01*
X11777929Y6682486D01*
X11766448Y6692950D01*
X11753850Y6701993D01*
X11740286Y6709460D01*
X11725910Y6715302D01*
X11710974Y6719366D01*
X11695633Y6721652D01*
X11680139Y6722109D01*
X11666829Y6720941D01*
X11662460Y6721500D01*
X11658752Y6723888D01*
X11331905Y7050684D01*
X11323066Y7057745D01*
X11315446Y7062368D01*
X11313261Y7063486D01*
X11305032Y7066889D01*
X11302695Y7067651D01*
X11294059Y7069785D01*
X11291620Y7070191D01*
X11282781Y7071004D01*
X10793476Y7071055D01*
X10790986Y7071359D01*
X10787380Y7072985D01*
X10775950Y7077252D01*
X10764012Y7079843D01*
X10751820Y7080707D01*
X10739628Y7079843D01*
X10727690Y7077252D01*
X10716260Y7072985D01*
X10705541Y7067143D01*
X10699953Y7062927D01*
X10697057Y7061403D01*
X10693857Y7060895D01*
X10338003Y7060895D01*
X10332110Y7060692D01*
X10326471Y7060031D01*
X10320934Y7059015D01*
X10315448Y7057542D01*
X10310063Y7055662D01*
X10304881Y7053376D01*
X10299852Y7050735D01*
X10295026Y7047687D01*
X10290454Y7044334D01*
X10286187Y7040625D01*
X10282174Y7036612D01*
X10278465Y7032345D01*
X10275112Y7027773D01*
X10272064Y7022947D01*
X10269423Y7017918D01*
X10267137Y7012736D01*
X10265257Y7007352D01*
X10263784Y7001865D01*
X10262768Y6996328D01*
X10262108Y6990689D01*
X10261904Y6984796D01*
X10261904Y6664655D01*
X10261142Y6660794D01*
X10258907Y6657492D01*
X10255605Y6655257D01*
X10251744Y6654495D01*
X8506409Y6654495D01*
X8502192Y6655409D01*
X8498738Y6658051D01*
X8488629Y6669786D01*
X8477148Y6680250D01*
X8464550Y6689293D01*
X8450986Y6696760D01*
X8436610Y6702602D01*
X8421674Y6706666D01*
X8406333Y6708952D01*
X8390839Y6709409D01*
X8377529Y6708241D01*
X8373160Y6708800D01*
X8369452Y6711188D01*
X8080705Y6999884D01*
X8071866Y7006945D01*
X8064246Y7011568D01*
X8062061Y7012686D01*
X8053831Y7016089D01*
X8051495Y7016851D01*
X8042859Y7018985D01*
X8040420Y7019391D01*
X8031581Y7020204D01*
X7491475Y7020255D01*
X7488986Y7020559D01*
X7485380Y7022185D01*
X7473950Y7026452D01*
X7462012Y7029043D01*
X7449820Y7029907D01*
X7437628Y7029043D01*
X7425690Y7026452D01*
X7414259Y7022185D01*
X7410653Y7020559D01*
X7408164Y7020255D01*
X7081418Y7020204D01*
X7072579Y7019391D01*
X7070140Y7018985D01*
X7061504Y7016851D01*
X7059168Y7016089D01*
X7050938Y7012686D01*
X7048753Y7011568D01*
X7041134Y7006945D01*
X7032294Y6999884D01*
X6702552Y6670192D01*
X6699250Y6667957D01*
X6695338Y6667195D01*
X5191709Y6667195D01*
X5187492Y6668109D01*
X5184038Y6670751D01*
X5173929Y6682486D01*
X5162448Y6692950D01*
X5149850Y6701993D01*
X5136286Y6709460D01*
X5121910Y6715302D01*
X5106974Y6719366D01*
X5091633Y6721652D01*
X5076139Y6722109D01*
X5062829Y6720941D01*
X5058460Y6721500D01*
X5054752Y6723888D01*
X4664405Y7114184D01*
X4655566Y7121245D01*
X4647946Y7125868D01*
X4645761Y7126986D01*
X4637532Y7130389D01*
X4635195Y7131151D01*
X4626559Y7133285D01*
X4624120Y7133691D01*
X4615281Y7134504D01*
X4202176Y7134555D01*
X4199686Y7134859D01*
X4196080Y7136485D01*
X4184650Y7140752D01*
X4172712Y7143343D01*
X4160520Y7144207D01*
X4148328Y7143343D01*
X4136390Y7140752D01*
X4124960Y7136485D01*
X4114241Y7130643D01*
X4104487Y7123328D01*
X4095851Y7114692D01*
X4088536Y7104938D01*
X4082694Y7094220D01*
X4078427Y7082790D01*
X4075836Y7070852D01*
X4074972Y7058659D01*
X4075836Y7046468D01*
X4078427Y7034530D01*
X4082694Y7023100D01*
X4088536Y7012381D01*
X4095851Y7002627D01*
X4104487Y6993991D01*
X4114241Y6986676D01*
X4124960Y6980834D01*
X4136390Y6976567D01*
X4148328Y6973976D01*
X4160520Y6973112D01*
X4172712Y6973976D01*
X4184650Y6976567D01*
X4196080Y6980834D01*
X4199686Y6982459D01*
X4202176Y6982764D01*
X4576978Y6982764D01*
X4580890Y6982002D01*
X4584192Y6979767D01*
X4947361Y6616598D01*
X4949240Y6613956D01*
X4950256Y6610858D01*
X4949088Y6591300D01*
X4950053Y6575806D01*
X4952796Y6560566D01*
X4957318Y6545732D01*
X4963566Y6531508D01*
X4971440Y6518198D01*
X4980838Y6505854D01*
X4991658Y6494729D01*
X5003698Y6484975D01*
X5016804Y6476695D01*
X5027777Y6471462D01*
X5030774Y6469278D01*
X5034584Y6468719D01*
X5045506Y6465062D01*
X5060696Y6461861D01*
X5076139Y6460490D01*
X5091633Y6460947D01*
X5106974Y6463233D01*
X5121910Y6467297D01*
X5124856Y6468516D01*
X5129377Y6469481D01*
X5132730Y6471666D01*
X5136286Y6473139D01*
X5149850Y6480606D01*
X5162448Y6489649D01*
X5173929Y6500114D01*
X5184038Y6511848D01*
X5187492Y6514490D01*
X5191709Y6515404D01*
X6733641Y6515455D01*
X6742480Y6516268D01*
X6744919Y6516674D01*
X6753555Y6518808D01*
X6755892Y6519570D01*
X6764121Y6522974D01*
X6766306Y6524091D01*
X6773925Y6528714D01*
X6782765Y6535775D01*
X7112508Y6865467D01*
X7115809Y6867702D01*
X7119721Y6868464D01*
X7408164Y6868464D01*
X7410653Y6868159D01*
X7414259Y6866534D01*
X7425690Y6862267D01*
X7437628Y6859676D01*
X7449820Y6858812D01*
X7462012Y6859676D01*
X7473950Y6862267D01*
X7485380Y6866534D01*
X7488986Y6868159D01*
X7491475Y6868464D01*
X7993278Y6868464D01*
X7997190Y6867702D01*
X8000492Y6865467D01*
X8262061Y6603898D01*
X8263940Y6601256D01*
X8264956Y6598158D01*
X8263788Y6578600D01*
X8264753Y6563106D01*
X8267496Y6547866D01*
X8272018Y6533032D01*
X8278266Y6518808D01*
X8286140Y6505498D01*
X8295538Y6493154D01*
X8306358Y6482029D01*
X8318398Y6472275D01*
X8331504Y6463995D01*
X8342477Y6458762D01*
X8345474Y6456578D01*
X8349284Y6456019D01*
X8360206Y6452362D01*
X8375396Y6449161D01*
G37*
G36*
X1143000Y6509156D02*
G01*
X1157020Y6510070D01*
X1170838Y6512814D01*
X1184148Y6517335D01*
X1196797Y6523583D01*
X1208481Y6531356D01*
X1219047Y6540652D01*
X1228344Y6551218D01*
X1236116Y6562902D01*
X1242364Y6575552D01*
X1246886Y6588861D01*
X1249629Y6602679D01*
X1250543Y6616700D01*
X1249629Y6630720D01*
X1246886Y6644538D01*
X1242364Y6657848D01*
X1236116Y6670497D01*
X1228344Y6682181D01*
X1219047Y6692747D01*
X1208481Y6702044D01*
X1196797Y6709816D01*
X1184148Y6716064D01*
X1170838Y6720586D01*
X1157020Y6723329D01*
X1143000Y6724243D01*
X1128979Y6723329D01*
X1115161Y6720586D01*
X1101852Y6716064D01*
X1089202Y6709816D01*
X1077518Y6702044D01*
X1066952Y6692747D01*
X1057656Y6682181D01*
X1049883Y6670497D01*
X1043635Y6657848D01*
X1039114Y6644538D01*
X1036370Y6630720D01*
X1035456Y6616700D01*
X1036370Y6602679D01*
X1039114Y6588861D01*
X1043635Y6575552D01*
X1049883Y6562902D01*
X1057656Y6551218D01*
X1066952Y6540652D01*
X1077518Y6531356D01*
X1089202Y6523583D01*
X1101852Y6517335D01*
X1115161Y6512814D01*
X1128979Y6510070D01*
G37*
G36*
X3683000Y6509156D02*
G01*
X3697020Y6510070D01*
X3710838Y6512814D01*
X3724148Y6517335D01*
X3736797Y6523583D01*
X3748481Y6531356D01*
X3759047Y6540652D01*
X3768344Y6551218D01*
X3776116Y6562902D01*
X3782364Y6575552D01*
X3786886Y6588861D01*
X3789629Y6602679D01*
X3790543Y6616700D01*
X3789629Y6630720D01*
X3786886Y6644538D01*
X3782364Y6657848D01*
X3776116Y6670497D01*
X3768344Y6682181D01*
X3759047Y6692747D01*
X3748481Y6702044D01*
X3736797Y6709816D01*
X3724148Y6716064D01*
X3710838Y6720586D01*
X3697020Y6723329D01*
X3683000Y6724243D01*
X3668979Y6723329D01*
X3655161Y6720586D01*
X3641851Y6716064D01*
X3629202Y6709816D01*
X3617518Y6702044D01*
X3606952Y6692747D01*
X3597656Y6682181D01*
X3589883Y6670497D01*
X3583635Y6657848D01*
X3579114Y6644538D01*
X3576370Y6630720D01*
X3575456Y6616700D01*
X3576370Y6602679D01*
X3579114Y6588861D01*
X3583635Y6575552D01*
X3589883Y6562902D01*
X3597656Y6551218D01*
X3606952Y6540652D01*
X3617518Y6531356D01*
X3629202Y6523583D01*
X3641851Y6517335D01*
X3655161Y6512814D01*
X3668979Y6510070D01*
G37*
G36*
X7486040Y6612890D02*
G01*
X7496098Y6618376D01*
X7505852Y6625691D01*
X7514488Y6634327D01*
X7521803Y6644081D01*
X7527290Y6654139D01*
X7486040Y6654139D01*
G37*
G36*
X7413650Y6612890D02*
G01*
X7413650Y6654139D01*
X7372350Y6654139D01*
X7377836Y6644081D01*
X7385151Y6634327D01*
X7393787Y6625691D01*
X7403541Y6618376D01*
G37*
G36*
X10788040Y6663690D02*
G01*
X10798098Y6669176D01*
X10807852Y6676491D01*
X10816488Y6685127D01*
X10823803Y6694881D01*
X10829290Y6704939D01*
X10788040Y6704939D01*
G37*
G36*
X10715650Y6663690D02*
G01*
X10715650Y6704939D01*
X10674350Y6704939D01*
X10679836Y6694881D01*
X10687151Y6685127D01*
X10695787Y6676491D01*
X10705541Y6669176D01*
G37*
G36*
X7372350Y6726529D02*
G01*
X7413650Y6726529D01*
X7413650Y6767830D01*
X7403541Y6762343D01*
X7393787Y6755028D01*
X7385151Y6746392D01*
X7377836Y6736638D01*
G37*
G36*
X7486040Y6726529D02*
G01*
X7527290Y6726529D01*
X7521803Y6736638D01*
X7514488Y6746392D01*
X7505852Y6755028D01*
X7496098Y6762343D01*
X7486040Y6767830D01*
G37*
G36*
X4196740Y6727190D02*
G01*
X4206798Y6732676D01*
X4216552Y6739991D01*
X4225188Y6748627D01*
X4232503Y6758381D01*
X4237990Y6768439D01*
X4196740Y6768439D01*
G37*
G36*
X4124350Y6727190D02*
G01*
X4124350Y6768439D01*
X4083050Y6768439D01*
X4088536Y6758381D01*
X4095851Y6748627D01*
X4104487Y6739991D01*
X4114241Y6732676D01*
G37*
G36*
X3601923Y6763105D02*
G01*
X3635806Y6763105D01*
X3635806Y6823506D01*
X3575456Y6823506D01*
X3575456Y6789623D01*
X3576167Y6783273D01*
X3578047Y6777837D01*
X3581146Y6772909D01*
X3585210Y6768846D01*
X3590137Y6765747D01*
X3595573Y6763867D01*
G37*
G36*
X3730193Y6763105D02*
G01*
X3764076Y6763105D01*
X3770426Y6763867D01*
X3775862Y6765747D01*
X3780790Y6768846D01*
X3784854Y6772909D01*
X3787952Y6777837D01*
X3789832Y6783273D01*
X3790543Y6789623D01*
X3790543Y6823506D01*
X3730193Y6823506D01*
G37*
G36*
X1143000Y6763156D02*
G01*
X1157020Y6764070D01*
X1170838Y6766814D01*
X1184148Y6771335D01*
X1196797Y6777583D01*
X1208481Y6785356D01*
X1219047Y6794652D01*
X1228344Y6805218D01*
X1236116Y6816902D01*
X1242364Y6829552D01*
X1246886Y6842861D01*
X1249629Y6856679D01*
X1250543Y6870700D01*
X1249629Y6884720D01*
X1246886Y6898538D01*
X1242364Y6911848D01*
X1236116Y6924497D01*
X1228344Y6936181D01*
X1219047Y6946747D01*
X1208481Y6956044D01*
X1196797Y6963816D01*
X1184148Y6970064D01*
X1170838Y6974586D01*
X1157020Y6977329D01*
X1143000Y6978243D01*
X1128979Y6977329D01*
X1115161Y6974586D01*
X1101852Y6970064D01*
X1089202Y6963816D01*
X1077518Y6956044D01*
X1066952Y6946747D01*
X1057656Y6936181D01*
X1049883Y6924497D01*
X1043635Y6911848D01*
X1039114Y6898538D01*
X1036370Y6884720D01*
X1035456Y6870700D01*
X1036370Y6856679D01*
X1039114Y6842861D01*
X1043635Y6829552D01*
X1049883Y6816902D01*
X1057656Y6805218D01*
X1066952Y6794652D01*
X1077518Y6785356D01*
X1089202Y6777583D01*
X1101852Y6771335D01*
X1115161Y6766814D01*
X1128979Y6764070D01*
G37*
G36*
X10674350Y6777329D02*
G01*
X10715650Y6777329D01*
X10715650Y6818630D01*
X10705541Y6813143D01*
X10695787Y6805828D01*
X10687151Y6797192D01*
X10679836Y6787438D01*
G37*
G36*
X10788040Y6777329D02*
G01*
X10829290Y6777329D01*
X10823803Y6787438D01*
X10816488Y6797192D01*
X10807852Y6805828D01*
X10798098Y6813143D01*
X10788040Y6818630D01*
G37*
G36*
X9668713Y6818782D02*
G01*
X9684766Y6820153D01*
X9700514Y6823354D01*
X9715804Y6828332D01*
X9730435Y6834987D01*
X9744202Y6843318D01*
X9756952Y6853123D01*
X9768484Y6864350D01*
X9778695Y6876796D01*
X9787382Y6890308D01*
X9794494Y6904736D01*
X9799878Y6919925D01*
X9803536Y6935571D01*
X9805365Y6951573D01*
X9805365Y6967626D01*
X9803536Y6983628D01*
X9799878Y6999274D01*
X9794494Y7014464D01*
X9787382Y7028891D01*
X9778695Y7042403D01*
X9768484Y7054850D01*
X9756952Y7066076D01*
X9744202Y7075881D01*
X9730435Y7084212D01*
X9715804Y7090867D01*
X9700514Y7095845D01*
X9684766Y7099046D01*
X9668713Y7100417D01*
X9652660Y7099960D01*
X9636709Y7097674D01*
X9621164Y7093610D01*
X9606178Y7087768D01*
X9601962Y7085888D01*
X9599523Y7085584D01*
X9521342Y7085634D01*
X9517481Y7086447D01*
X9514179Y7088631D01*
X9511995Y7091934D01*
X9511233Y7095794D01*
X9511233Y7289495D01*
X9510268Y7304989D01*
X9507524Y7319924D01*
X9503003Y7334453D01*
X9496755Y7348321D01*
X9488881Y7361326D01*
X9479534Y7373264D01*
X9468764Y7384034D01*
X9456826Y7393381D01*
X9443821Y7401255D01*
X9429953Y7407503D01*
X9415424Y7412024D01*
X9400489Y7414768D01*
X9384995Y7415682D01*
X8768537Y7415682D01*
X8764676Y7416495D01*
X8761374Y7418679D01*
X8536279Y7643774D01*
X8534095Y7647076D01*
X8533333Y7650937D01*
X8533333Y7731709D01*
X8532571Y7738059D01*
X8530691Y7743494D01*
X8527592Y7748422D01*
X8523528Y7752486D01*
X8518601Y7755585D01*
X8513165Y7757515D01*
X8506815Y7758226D01*
X8307984Y7758226D01*
X8301634Y7757515D01*
X8296198Y7755585D01*
X8291271Y7752486D01*
X8287207Y7748422D01*
X8284108Y7743494D01*
X8282228Y7738059D01*
X8281517Y7731709D01*
X8281517Y7482890D01*
X8282228Y7476540D01*
X8284108Y7471105D01*
X8287207Y7466177D01*
X8291271Y7462113D01*
X8296198Y7459014D01*
X8301634Y7457084D01*
X8307984Y7456373D01*
X8363356Y7456373D01*
X8367217Y7455611D01*
X8370519Y7453426D01*
X8623046Y7200900D01*
X8628735Y7195566D01*
X8634577Y7190689D01*
X8640673Y7186168D01*
X8647074Y7182053D01*
X8653678Y7178294D01*
X8660536Y7174992D01*
X8667546Y7172096D01*
X8674760Y7169607D01*
X8682075Y7167575D01*
X8689492Y7165949D01*
X8697010Y7164831D01*
X8704580Y7164120D01*
X8712352Y7163866D01*
X9249257Y7163866D01*
X9253118Y7163104D01*
X9256420Y7160920D01*
X9258604Y7157618D01*
X9259417Y7153706D01*
X9259417Y7078776D01*
X9258401Y7074357D01*
X9255607Y7070852D01*
X9251594Y7068870D01*
X9247124Y7068820D01*
X9243009Y7070699D01*
X9235948Y7076135D01*
X9222181Y7084466D01*
X9207550Y7091121D01*
X9192260Y7096099D01*
X9176512Y7099300D01*
X9160459Y7100671D01*
X9144406Y7100214D01*
X9128455Y7097928D01*
X9112910Y7093864D01*
X9097924Y7088022D01*
X9083700Y7080503D01*
X9070390Y7071410D01*
X9058249Y7060895D01*
X9047378Y7049058D01*
X9037929Y7036003D01*
X9030004Y7022033D01*
X9023756Y7007199D01*
X9019235Y6991756D01*
X9016492Y6975906D01*
X9015577Y6959853D01*
X9016492Y6943801D01*
X9019235Y6927951D01*
X9023756Y6912508D01*
X9030004Y6897674D01*
X9037929Y6883704D01*
X9047378Y6870649D01*
X9058249Y6858812D01*
X9070390Y6848297D01*
X9083700Y6839203D01*
X9097924Y6831685D01*
X9112910Y6825843D01*
X9128455Y6821779D01*
X9144406Y6819493D01*
X9160459Y6819036D01*
X9176512Y6820408D01*
X9192260Y6823608D01*
X9207550Y6828586D01*
X9222181Y6835241D01*
X9235948Y6843572D01*
X9248698Y6853377D01*
X9260230Y6864603D01*
X9270492Y6877100D01*
X9274860Y6883755D01*
X9277604Y6886549D01*
X9281210Y6888124D01*
X9285071Y6888175D01*
X9288729Y6886803D01*
X9291574Y6884162D01*
X9301378Y6870649D01*
X9312249Y6858812D01*
X9324390Y6848297D01*
X9337700Y6839203D01*
X9351924Y6831685D01*
X9366910Y6825843D01*
X9382455Y6821779D01*
X9398406Y6819493D01*
X9414459Y6819036D01*
X9430512Y6820408D01*
X9446260Y6823608D01*
X9461550Y6828586D01*
X9471202Y6832955D01*
X9475419Y6833870D01*
X9599269Y6833768D01*
X9601708Y6833463D01*
X9606178Y6831431D01*
X9621164Y6825589D01*
X9636709Y6821525D01*
X9652660Y6819239D01*
G37*
G36*
X6354013Y6831482D02*
G01*
X6370066Y6832853D01*
X6385814Y6836054D01*
X6401104Y6841032D01*
X6415735Y6847687D01*
X6429502Y6856018D01*
X6442252Y6865823D01*
X6453784Y6877050D01*
X6463995Y6889496D01*
X6472682Y6903008D01*
X6479794Y6917436D01*
X6485178Y6932625D01*
X6488836Y6948271D01*
X6490665Y6964273D01*
X6490665Y6980326D01*
X6488836Y6996328D01*
X6485178Y7011974D01*
X6479794Y7027164D01*
X6472682Y7041591D01*
X6463995Y7055103D01*
X6453784Y7067550D01*
X6442252Y7078776D01*
X6429502Y7088581D01*
X6415735Y7096912D01*
X6401104Y7103567D01*
X6385814Y7108545D01*
X6370066Y7111746D01*
X6354013Y7113117D01*
X6337960Y7112660D01*
X6322009Y7110374D01*
X6306464Y7106310D01*
X6291478Y7100468D01*
X6287262Y7098588D01*
X6284823Y7098284D01*
X6231940Y7098334D01*
X6228029Y7099096D01*
X6224727Y7101331D01*
X6222542Y7104583D01*
X6221780Y7108494D01*
X6221882Y7263993D01*
X6220968Y7279487D01*
X6218275Y7294422D01*
X6213754Y7308951D01*
X6207506Y7322820D01*
X6199682Y7335824D01*
X6190284Y7347813D01*
X6179566Y7358532D01*
X6167628Y7367930D01*
X6154623Y7375804D01*
X6140754Y7382052D01*
X6126226Y7386624D01*
X6111290Y7389368D01*
X6095695Y7390282D01*
X5517337Y7390282D01*
X5513476Y7391095D01*
X5510174Y7393279D01*
X5234279Y7669174D01*
X5232095Y7672476D01*
X5231333Y7676337D01*
X5231333Y7769809D01*
X5230571Y7776159D01*
X5228691Y7781594D01*
X5225592Y7786522D01*
X5221528Y7790586D01*
X5216601Y7793685D01*
X5211165Y7795615D01*
X5204815Y7796326D01*
X5005984Y7796326D01*
X4999634Y7795615D01*
X4994198Y7793685D01*
X4989271Y7790586D01*
X4985207Y7786522D01*
X4982108Y7781594D01*
X4980228Y7776159D01*
X4979517Y7769809D01*
X4979517Y7520990D01*
X4980228Y7514640D01*
X4982108Y7509205D01*
X4985207Y7504277D01*
X4989271Y7500213D01*
X4994198Y7497114D01*
X4999634Y7495184D01*
X5005984Y7494473D01*
X5048656Y7494473D01*
X5052517Y7493711D01*
X5055819Y7491526D01*
X5371846Y7175500D01*
X5377535Y7170166D01*
X5383377Y7165289D01*
X5389473Y7160768D01*
X5395874Y7156653D01*
X5402478Y7152894D01*
X5409336Y7149592D01*
X5416346Y7146696D01*
X5423560Y7144207D01*
X5430875Y7142175D01*
X5438292Y7140549D01*
X5445810Y7139431D01*
X5453380Y7138720D01*
X5461152Y7138466D01*
X5959805Y7138466D01*
X5963716Y7137704D01*
X5967018Y7135520D01*
X5969203Y7132218D01*
X5969965Y7128306D01*
X5969914Y7066483D01*
X5969101Y7062419D01*
X5966714Y7059066D01*
X5963158Y7056932D01*
X5959094Y7056374D01*
X5955080Y7057440D01*
X5951880Y7060082D01*
X5945530Y7067803D01*
X5933998Y7079030D01*
X5921248Y7088835D01*
X5907481Y7097166D01*
X5892850Y7103821D01*
X5877560Y7108799D01*
X5861812Y7112000D01*
X5845759Y7113371D01*
X5829706Y7112914D01*
X5813755Y7110628D01*
X5798210Y7106564D01*
X5783224Y7100722D01*
X5769000Y7093203D01*
X5755690Y7084110D01*
X5743549Y7073595D01*
X5732678Y7061758D01*
X5723229Y7048703D01*
X5715304Y7034733D01*
X5709056Y7019899D01*
X5704535Y7004456D01*
X5701792Y6988606D01*
X5700877Y6972553D01*
X5701792Y6956501D01*
X5704535Y6940651D01*
X5709056Y6925208D01*
X5715304Y6910374D01*
X5723229Y6896404D01*
X5732678Y6883349D01*
X5743549Y6871512D01*
X5755690Y6860997D01*
X5769000Y6851903D01*
X5783224Y6844385D01*
X5798210Y6838543D01*
X5813755Y6834479D01*
X5829706Y6832193D01*
X5845759Y6831736D01*
X5861812Y6833108D01*
X5877560Y6836308D01*
X5892850Y6841286D01*
X5907481Y6847941D01*
X5921248Y6856272D01*
X5933998Y6866077D01*
X5945530Y6877303D01*
X5955792Y6889800D01*
X5960160Y6896455D01*
X5962904Y6899249D01*
X5966510Y6900824D01*
X5970371Y6900875D01*
X5974029Y6899503D01*
X5976874Y6896862D01*
X5986678Y6883349D01*
X5997549Y6871512D01*
X6009690Y6860997D01*
X6023000Y6851903D01*
X6037224Y6844385D01*
X6052210Y6838543D01*
X6067755Y6834479D01*
X6083706Y6832193D01*
X6099759Y6831736D01*
X6115812Y6833108D01*
X6131560Y6836308D01*
X6146850Y6841286D01*
X6156502Y6845655D01*
X6160719Y6846570D01*
X6284569Y6846468D01*
X6287008Y6846163D01*
X6291478Y6844131D01*
X6306464Y6838289D01*
X6322009Y6834225D01*
X6337960Y6831939D01*
G37*
G36*
X4083050Y6840829D02*
G01*
X4124350Y6840829D01*
X4124350Y6882130D01*
X4114241Y6876643D01*
X4104487Y6869328D01*
X4095851Y6860692D01*
X4088536Y6850938D01*
G37*
G36*
X4196740Y6840829D02*
G01*
X4237990Y6840829D01*
X4232503Y6850938D01*
X4225188Y6860692D01*
X4216552Y6869328D01*
X4206798Y6876643D01*
X4196740Y6882130D01*
G37*
G36*
X3730193Y6917893D02*
G01*
X3790543Y6917893D01*
X3790543Y6951776D01*
X3789832Y6958126D01*
X3787952Y6963562D01*
X3784854Y6968490D01*
X3780790Y6972553D01*
X3775862Y6975652D01*
X3770426Y6977532D01*
X3764076Y6978243D01*
X3730193Y6978243D01*
G37*
G36*
X3575456Y6917893D02*
G01*
X3635806Y6917893D01*
X3635806Y6978243D01*
X3601923Y6978243D01*
X3595573Y6977532D01*
X3590137Y6975652D01*
X3585210Y6972553D01*
X3581146Y6968490D01*
X3578047Y6963562D01*
X3576167Y6958126D01*
X3575456Y6951776D01*
G37*
G36*
X1143000Y7017156D02*
G01*
X1157020Y7018070D01*
X1170838Y7020814D01*
X1184148Y7025335D01*
X1196797Y7031583D01*
X1208481Y7039356D01*
X1219047Y7048652D01*
X1228344Y7059218D01*
X1236116Y7070902D01*
X1242364Y7083552D01*
X1246886Y7096861D01*
X1249629Y7110679D01*
X1250543Y7124700D01*
X1249629Y7138720D01*
X1246886Y7152538D01*
X1242364Y7165848D01*
X1236116Y7178497D01*
X1228344Y7190181D01*
X1219047Y7200747D01*
X1208481Y7210044D01*
X1196797Y7217816D01*
X1184148Y7224064D01*
X1170838Y7228586D01*
X1157020Y7231329D01*
X1143000Y7232243D01*
X1128979Y7231329D01*
X1115161Y7228586D01*
X1101852Y7224064D01*
X1089202Y7217816D01*
X1077518Y7210044D01*
X1066952Y7200747D01*
X1057656Y7190181D01*
X1049883Y7178497D01*
X1043635Y7165848D01*
X1039114Y7152538D01*
X1036370Y7138720D01*
X1035456Y7124700D01*
X1036370Y7110679D01*
X1039114Y7096861D01*
X1043635Y7083552D01*
X1049883Y7070902D01*
X1057656Y7059218D01*
X1066952Y7048652D01*
X1077518Y7039356D01*
X1089202Y7031583D01*
X1101852Y7025335D01*
X1115161Y7020814D01*
X1128979Y7018070D01*
G37*
G36*
X3683000Y7017156D02*
G01*
X3697020Y7018070D01*
X3710838Y7020814D01*
X3724148Y7025335D01*
X3736797Y7031583D01*
X3748481Y7039356D01*
X3759047Y7048652D01*
X3768344Y7059218D01*
X3776116Y7070902D01*
X3782364Y7083552D01*
X3786886Y7096861D01*
X3789629Y7110679D01*
X3790543Y7124700D01*
X3789629Y7138720D01*
X3786886Y7152538D01*
X3782364Y7165848D01*
X3776116Y7178497D01*
X3768344Y7190181D01*
X3759047Y7200747D01*
X3748481Y7210044D01*
X3736797Y7217816D01*
X3724148Y7224064D01*
X3710838Y7228586D01*
X3697020Y7231329D01*
X3683000Y7232243D01*
X3668979Y7231329D01*
X3655161Y7228586D01*
X3641851Y7224064D01*
X3629202Y7217816D01*
X3617518Y7210044D01*
X3606952Y7200747D01*
X3597656Y7190181D01*
X3589883Y7178497D01*
X3583635Y7165848D01*
X3579114Y7152538D01*
X3576370Y7138720D01*
X3575456Y7124700D01*
X3576370Y7110679D01*
X3579114Y7096861D01*
X3583635Y7083552D01*
X3589883Y7070902D01*
X3597656Y7059218D01*
X3606952Y7048652D01*
X3617518Y7039356D01*
X3629202Y7031583D01*
X3641851Y7025335D01*
X3655161Y7020814D01*
X3668979Y7018070D01*
G37*
G36*
X1143000Y7271156D02*
G01*
X1157020Y7272070D01*
X1170838Y7274814D01*
X1184148Y7279335D01*
X1196797Y7285583D01*
X1208481Y7293356D01*
X1219047Y7302652D01*
X1228344Y7313218D01*
X1236116Y7324902D01*
X1242364Y7337552D01*
X1246886Y7350861D01*
X1249629Y7364679D01*
X1250543Y7378700D01*
X1249629Y7392720D01*
X1246886Y7406538D01*
X1242364Y7419848D01*
X1236116Y7432497D01*
X1228344Y7444181D01*
X1219047Y7454747D01*
X1208481Y7464044D01*
X1196797Y7471816D01*
X1184148Y7478064D01*
X1170838Y7482586D01*
X1157020Y7485329D01*
X1143000Y7486243D01*
X1128979Y7485329D01*
X1115161Y7482586D01*
X1101852Y7478064D01*
X1089202Y7471816D01*
X1077518Y7464044D01*
X1066952Y7454747D01*
X1057656Y7444181D01*
X1049883Y7432497D01*
X1043635Y7419848D01*
X1039114Y7406538D01*
X1036370Y7392720D01*
X1035456Y7378700D01*
X1036370Y7364679D01*
X1039114Y7350861D01*
X1043635Y7337552D01*
X1049883Y7324902D01*
X1057656Y7313218D01*
X1066952Y7302652D01*
X1077518Y7293356D01*
X1089202Y7285583D01*
X1101852Y7279335D01*
X1115161Y7274814D01*
X1128979Y7272070D01*
G37*
G36*
X3683000Y7271156D02*
G01*
X3697020Y7272070D01*
X3710838Y7274814D01*
X3724148Y7279335D01*
X3736797Y7285583D01*
X3748481Y7293356D01*
X3759047Y7302652D01*
X3768344Y7313218D01*
X3776116Y7324902D01*
X3782364Y7337552D01*
X3786886Y7350861D01*
X3789629Y7364679D01*
X3790543Y7378700D01*
X3789629Y7392720D01*
X3786886Y7406538D01*
X3782364Y7419848D01*
X3776116Y7432497D01*
X3768344Y7444181D01*
X3759047Y7454747D01*
X3748481Y7464044D01*
X3736797Y7471816D01*
X3724148Y7478064D01*
X3710838Y7482586D01*
X3697020Y7485329D01*
X3683000Y7486243D01*
X3668979Y7485329D01*
X3655161Y7482586D01*
X3641851Y7478064D01*
X3629202Y7471816D01*
X3617518Y7464044D01*
X3606952Y7454747D01*
X3597656Y7444181D01*
X3589883Y7432497D01*
X3583635Y7419848D01*
X3579114Y7406538D01*
X3576370Y7392720D01*
X3575456Y7378700D01*
X3576370Y7364679D01*
X3579114Y7350861D01*
X3583635Y7337552D01*
X3589883Y7324902D01*
X3597656Y7313218D01*
X3606952Y7302652D01*
X3617518Y7293356D01*
X3629202Y7285583D01*
X3641851Y7279335D01*
X3655161Y7274814D01*
X3668979Y7272070D01*
G37*
G36*
X8915400Y7456424D02*
G01*
X8930589Y7457338D01*
X8945524Y7460081D01*
X8960053Y7464602D01*
X8973921Y7470851D01*
X8990533Y7480858D01*
X8993886Y7481366D01*
X9105747Y7481366D01*
X9113520Y7481620D01*
X9121089Y7482331D01*
X9128607Y7483449D01*
X9136024Y7485075D01*
X9143339Y7487107D01*
X9150553Y7489596D01*
X9157563Y7492492D01*
X9164421Y7495794D01*
X9171025Y7499553D01*
X9177426Y7503668D01*
X9183522Y7508189D01*
X9189364Y7513066D01*
X9195054Y7518400D01*
X9661550Y7984896D01*
X9664954Y7987131D01*
X9669272Y7987842D01*
X9687610Y7989265D01*
X9705644Y7992567D01*
X9723272Y7997698D01*
X9740290Y8004606D01*
X9756495Y8013242D01*
X9771735Y8023504D01*
X9785807Y8035239D01*
X9798608Y8048396D01*
X9810038Y8062772D01*
X9819843Y8078266D01*
X9828072Y8094725D01*
X9834524Y8111896D01*
X9839248Y8129625D01*
X9842042Y8147761D01*
X9843008Y8166100D01*
X9842042Y8184438D01*
X9839248Y8202574D01*
X9834524Y8220303D01*
X9828072Y8237474D01*
X9819843Y8253933D01*
X9810038Y8269427D01*
X9798608Y8283803D01*
X9785807Y8296960D01*
X9771735Y8308695D01*
X9756495Y8318957D01*
X9740290Y8327593D01*
X9723272Y8334502D01*
X9705644Y8339632D01*
X9687610Y8342934D01*
X9669272Y8344357D01*
X9650933Y8343849D01*
X9632746Y8341512D01*
X9614865Y8337296D01*
X9597542Y8331250D01*
X9580930Y8323478D01*
X9565182Y8314029D01*
X9550501Y8303006D01*
X9536988Y8290559D01*
X9524898Y8276742D01*
X9514281Y8261807D01*
X9505238Y8245805D01*
X9497872Y8228990D01*
X9492284Y8211515D01*
X9488525Y8193531D01*
X9486646Y8175294D01*
X9486646Y8170316D01*
X9485884Y8166404D01*
X9483648Y8163102D01*
X9056725Y7736179D01*
X9053423Y7733995D01*
X9049562Y7733182D01*
X8993886Y7733182D01*
X8990533Y7733741D01*
X8973921Y7743748D01*
X8960053Y7749997D01*
X8945524Y7754518D01*
X8930589Y7757261D01*
X8915400Y7758175D01*
X8900210Y7757261D01*
X8885275Y7754518D01*
X8870746Y7749997D01*
X8856878Y7743748D01*
X8843873Y7735925D01*
X8831935Y7726527D01*
X8821166Y7715758D01*
X8811818Y7703820D01*
X8803944Y7690815D01*
X8797696Y7676946D01*
X8793175Y7662418D01*
X8790432Y7647482D01*
X8789517Y7631988D01*
X8789517Y7582611D01*
X8790432Y7567117D01*
X8793175Y7552181D01*
X8797696Y7537653D01*
X8803944Y7523784D01*
X8811818Y7510780D01*
X8821166Y7498842D01*
X8831935Y7488072D01*
X8843873Y7478674D01*
X8856878Y7470851D01*
X8870746Y7464602D01*
X8885275Y7460081D01*
X8900210Y7457338D01*
G37*
G36*
X5613654Y7469479D02*
G01*
X5841796Y7469479D01*
X5855462Y7469987D01*
X5859678Y7470394D01*
X5873140Y7472273D01*
X5877306Y7473086D01*
X5890514Y7476337D01*
X5894527Y7477506D01*
X5907379Y7482078D01*
X5911240Y7483703D01*
X5923534Y7489545D01*
X5927242Y7491526D01*
X5938926Y7498588D01*
X5942380Y7500924D01*
X5953252Y7509154D01*
X5956503Y7511846D01*
X5966510Y7521143D01*
X6466433Y8021066D01*
X6469735Y8023504D01*
X6483807Y8035239D01*
X6496608Y8048396D01*
X6508038Y8062772D01*
X6517843Y8078266D01*
X6526072Y8094725D01*
X6532524Y8111896D01*
X6537248Y8129625D01*
X6540042Y8147761D01*
X6541007Y8166100D01*
X6540042Y8184438D01*
X6537248Y8202574D01*
X6532524Y8220303D01*
X6526072Y8237474D01*
X6517843Y8253933D01*
X6508038Y8269427D01*
X6496608Y8283803D01*
X6483807Y8296960D01*
X6469735Y8308695D01*
X6454495Y8318957D01*
X6438290Y8327593D01*
X6421272Y8334502D01*
X6403644Y8339632D01*
X6385610Y8342934D01*
X6367272Y8344357D01*
X6348933Y8343849D01*
X6330746Y8341512D01*
X6312865Y8337296D01*
X6295542Y8331250D01*
X6278930Y8323478D01*
X6263182Y8314029D01*
X6248501Y8303006D01*
X6234988Y8290559D01*
X6222898Y8276742D01*
X6218174Y8270341D01*
X5772099Y7824266D01*
X5768797Y7822082D01*
X5764936Y7821320D01*
X5613654Y7821320D01*
X5595620Y7820406D01*
X5577992Y7817713D01*
X5560720Y7813243D01*
X5544058Y7807045D01*
X5528056Y7799171D01*
X5512917Y7789773D01*
X5498846Y7778851D01*
X5485892Y7766608D01*
X5474309Y7753045D01*
X5464149Y7738465D01*
X5455462Y7722870D01*
X5448452Y7706512D01*
X5443118Y7689494D01*
X5439511Y7672019D01*
X5437733Y7654290D01*
X5437733Y7636509D01*
X5439511Y7618780D01*
X5443118Y7601305D01*
X5448452Y7584287D01*
X5455462Y7567930D01*
X5464149Y7552334D01*
X5474309Y7537754D01*
X5485892Y7524191D01*
X5498846Y7511948D01*
X5512917Y7501026D01*
X5528056Y7491628D01*
X5544058Y7483754D01*
X5560720Y7477556D01*
X5577992Y7473086D01*
X5595620Y7470394D01*
G37*
G36*
X12204700Y7507224D02*
G01*
X12219889Y7508138D01*
X12234824Y7510881D01*
X12249353Y7515402D01*
X12263221Y7521651D01*
X12279833Y7531658D01*
X12283186Y7532166D01*
X12458547Y7532166D01*
X12466320Y7532420D01*
X12473889Y7533131D01*
X12481407Y7534249D01*
X12488824Y7535875D01*
X12496139Y7537907D01*
X12503353Y7540396D01*
X12510363Y7543292D01*
X12517221Y7546594D01*
X12523825Y7550353D01*
X12530226Y7554468D01*
X12536322Y7558989D01*
X12542164Y7563866D01*
X12547854Y7569200D01*
X12963550Y7984896D01*
X12966954Y7987131D01*
X12971272Y7987842D01*
X12989610Y7989265D01*
X13007644Y7992567D01*
X13025272Y7997698D01*
X13042290Y8004606D01*
X13058495Y8013242D01*
X13073735Y8023504D01*
X13087807Y8035239D01*
X13100608Y8048396D01*
X13112038Y8062772D01*
X13121843Y8078266D01*
X13130072Y8094725D01*
X13136524Y8111896D01*
X13141248Y8129625D01*
X13144042Y8147761D01*
X13145007Y8166100D01*
X13144042Y8184438D01*
X13141248Y8202574D01*
X13136524Y8220303D01*
X13130072Y8237474D01*
X13121843Y8253933D01*
X13112038Y8269427D01*
X13100608Y8283803D01*
X13087807Y8296960D01*
X13073735Y8308695D01*
X13058495Y8318957D01*
X13042290Y8327593D01*
X13025272Y8334502D01*
X13007644Y8339632D01*
X12989610Y8342934D01*
X12971272Y8344357D01*
X12952933Y8343849D01*
X12934746Y8341512D01*
X12916865Y8337296D01*
X12899542Y8331250D01*
X12882930Y8323478D01*
X12867182Y8314029D01*
X12852501Y8303006D01*
X12838988Y8290559D01*
X12826898Y8276742D01*
X12816281Y8261807D01*
X12807238Y8245805D01*
X12799872Y8228990D01*
X12794284Y8211515D01*
X12790525Y8193531D01*
X12788646Y8175294D01*
X12788646Y8170316D01*
X12787884Y8166404D01*
X12785648Y8163102D01*
X12409525Y7786979D01*
X12406223Y7784795D01*
X12402362Y7783982D01*
X12283186Y7783982D01*
X12279833Y7784541D01*
X12263221Y7794548D01*
X12249353Y7800797D01*
X12234824Y7805318D01*
X12219889Y7808061D01*
X12204700Y7808975D01*
X12189510Y7808061D01*
X12174575Y7805318D01*
X12160046Y7800797D01*
X12146178Y7794548D01*
X12133173Y7786725D01*
X12121235Y7777327D01*
X12110466Y7766558D01*
X12101118Y7754620D01*
X12093244Y7741615D01*
X12086996Y7727746D01*
X12082475Y7713218D01*
X12079732Y7698282D01*
X12078817Y7682788D01*
X12078817Y7633411D01*
X12079732Y7617917D01*
X12082475Y7602981D01*
X12086996Y7588453D01*
X12093244Y7574584D01*
X12101118Y7561580D01*
X12110466Y7549642D01*
X12121235Y7538872D01*
X12133173Y7529474D01*
X12146178Y7521651D01*
X12160046Y7515402D01*
X12174575Y7510881D01*
X12189510Y7508138D01*
G37*
G36*
X1143000Y7525156D02*
G01*
X1157020Y7526070D01*
X1170838Y7528814D01*
X1184148Y7533335D01*
X1196797Y7539583D01*
X1208481Y7547356D01*
X1219047Y7556652D01*
X1228344Y7567218D01*
X1236116Y7578902D01*
X1242364Y7591552D01*
X1246886Y7604861D01*
X1249629Y7618679D01*
X1250543Y7632700D01*
X1249629Y7646720D01*
X1246886Y7660538D01*
X1242364Y7673848D01*
X1236116Y7686497D01*
X1228344Y7698181D01*
X1219047Y7708747D01*
X1208481Y7718044D01*
X1196797Y7725816D01*
X1184148Y7732064D01*
X1170838Y7736586D01*
X1157020Y7739329D01*
X1143000Y7740243D01*
X1128979Y7739329D01*
X1115161Y7736586D01*
X1101852Y7732064D01*
X1089202Y7725816D01*
X1077518Y7718044D01*
X1066952Y7708747D01*
X1057656Y7698181D01*
X1049883Y7686497D01*
X1043635Y7673848D01*
X1039114Y7660538D01*
X1036370Y7646720D01*
X1035456Y7632700D01*
X1036370Y7618679D01*
X1039114Y7604861D01*
X1043635Y7591552D01*
X1049883Y7578902D01*
X1057656Y7567218D01*
X1066952Y7556652D01*
X1077518Y7547356D01*
X1089202Y7539583D01*
X1101852Y7533335D01*
X1115161Y7528814D01*
X1128979Y7526070D01*
G37*
G36*
X3683000Y7525156D02*
G01*
X3697020Y7526070D01*
X3710838Y7528814D01*
X3724148Y7533335D01*
X3736797Y7539583D01*
X3748481Y7547356D01*
X3759047Y7556652D01*
X3768344Y7567218D01*
X3776116Y7578902D01*
X3782364Y7591552D01*
X3786886Y7604861D01*
X3789629Y7618679D01*
X3790543Y7632700D01*
X3789629Y7646720D01*
X3786886Y7660538D01*
X3782364Y7673848D01*
X3776116Y7686497D01*
X3768344Y7698181D01*
X3759047Y7708747D01*
X3748481Y7718044D01*
X3736797Y7725816D01*
X3724148Y7732064D01*
X3710838Y7736586D01*
X3697020Y7739329D01*
X3683000Y7740243D01*
X3668979Y7739329D01*
X3655161Y7736586D01*
X3641851Y7732064D01*
X3629202Y7725816D01*
X3617518Y7718044D01*
X3606952Y7708747D01*
X3597656Y7698181D01*
X3589883Y7686497D01*
X3583635Y7673848D01*
X3579114Y7660538D01*
X3576370Y7646720D01*
X3575456Y7632700D01*
X3576370Y7618679D01*
X3579114Y7604861D01*
X3583635Y7591552D01*
X3589883Y7578902D01*
X3597656Y7567218D01*
X3606952Y7556652D01*
X3617518Y7547356D01*
X3629202Y7539583D01*
X3641851Y7533335D01*
X3655161Y7528814D01*
X3668979Y7526070D01*
G37*
G36*
X1143000Y7779156D02*
G01*
X1157020Y7780070D01*
X1170838Y7782814D01*
X1184148Y7787335D01*
X1196797Y7793583D01*
X1208481Y7801356D01*
X1219047Y7810652D01*
X1228344Y7821218D01*
X1236116Y7832902D01*
X1242364Y7845552D01*
X1246886Y7858861D01*
X1249629Y7872679D01*
X1250543Y7886700D01*
X1249629Y7900720D01*
X1246886Y7914538D01*
X1242364Y7927848D01*
X1236116Y7940497D01*
X1228344Y7952181D01*
X1219047Y7962747D01*
X1208481Y7972044D01*
X1196797Y7979816D01*
X1184148Y7986064D01*
X1170838Y7990586D01*
X1157020Y7993329D01*
X1143000Y7994243D01*
X1128979Y7993329D01*
X1115161Y7990586D01*
X1101852Y7986064D01*
X1089202Y7979816D01*
X1077518Y7972044D01*
X1066952Y7962747D01*
X1057656Y7952181D01*
X1049883Y7940497D01*
X1043635Y7927848D01*
X1039114Y7914538D01*
X1036370Y7900720D01*
X1035456Y7886700D01*
X1036370Y7872679D01*
X1039114Y7858861D01*
X1043635Y7845552D01*
X1049883Y7832902D01*
X1057656Y7821218D01*
X1066952Y7810652D01*
X1077518Y7801356D01*
X1089202Y7793583D01*
X1101852Y7787335D01*
X1115161Y7782814D01*
X1128979Y7780070D01*
G37*
G36*
X3683000Y7779156D02*
G01*
X3697020Y7780070D01*
X3710838Y7782814D01*
X3724148Y7787335D01*
X3736797Y7793583D01*
X3748481Y7801356D01*
X3759047Y7810652D01*
X3768344Y7821218D01*
X3776116Y7832902D01*
X3782364Y7845552D01*
X3786886Y7858861D01*
X3789629Y7872679D01*
X3790543Y7886700D01*
X3789629Y7900720D01*
X3786886Y7914538D01*
X3782364Y7927848D01*
X3776116Y7940497D01*
X3768344Y7952181D01*
X3759047Y7962747D01*
X3748481Y7972044D01*
X3736797Y7979816D01*
X3724148Y7986064D01*
X3710838Y7990586D01*
X3697020Y7993329D01*
X3683000Y7994243D01*
X3668979Y7993329D01*
X3655161Y7990586D01*
X3641851Y7986064D01*
X3629202Y7979816D01*
X3617518Y7972044D01*
X3606952Y7962747D01*
X3597656Y7952181D01*
X3589883Y7940497D01*
X3583635Y7927848D01*
X3579114Y7914538D01*
X3576370Y7900720D01*
X3575456Y7886700D01*
X3576370Y7872679D01*
X3579114Y7858861D01*
X3583635Y7845552D01*
X3589883Y7832902D01*
X3597656Y7821218D01*
X3606952Y7810652D01*
X3617518Y7801356D01*
X3629202Y7793583D01*
X3641851Y7787335D01*
X3655161Y7782814D01*
X3668979Y7780070D01*
G37*
G36*
X6780275Y8008162D02*
G01*
X6780275Y8083550D01*
X6704939Y8083550D01*
X6712407Y8070392D01*
X6723024Y8055457D01*
X6735114Y8041640D01*
X6748627Y8029194D01*
X6763308Y8018170D01*
X6779056Y8008721D01*
G37*
G36*
X10082276Y8008162D02*
G01*
X10082276Y8083550D01*
X10006939Y8083550D01*
X10014407Y8070392D01*
X10025024Y8055457D01*
X10037114Y8041640D01*
X10050627Y8029194D01*
X10065308Y8018170D01*
X10081056Y8008721D01*
G37*
G36*
X13384276Y8008162D02*
G01*
X13384276Y8083550D01*
X13308939Y8083550D01*
X13316407Y8070392D01*
X13327024Y8055457D01*
X13339114Y8041640D01*
X13352627Y8029194D01*
X13367308Y8018170D01*
X13383056Y8008721D01*
G37*
G36*
X10247376Y8008315D02*
G01*
X10256621Y8013242D01*
X10271861Y8023504D01*
X10285933Y8035239D01*
X10298734Y8048396D01*
X10310164Y8062772D01*
X10319969Y8078266D01*
X10322610Y8083550D01*
X10247376Y8083550D01*
G37*
G36*
X6945375Y8008315D02*
G01*
X6954621Y8013242D01*
X6969861Y8023504D01*
X6983933Y8035239D01*
X6996734Y8048396D01*
X7008164Y8062772D01*
X7017969Y8078266D01*
X7020610Y8083550D01*
X6945375Y8083550D01*
G37*
G36*
X13549376Y8008315D02*
G01*
X13558621Y8013242D01*
X13573861Y8023504D01*
X13587933Y8035239D01*
X13600734Y8048396D01*
X13612164Y8062772D01*
X13621969Y8078266D01*
X13624610Y8083550D01*
X13549376Y8083550D01*
G37*
G36*
X1143000Y8033156D02*
G01*
X1157020Y8034070D01*
X1170838Y8036814D01*
X1184148Y8041335D01*
X1196797Y8047583D01*
X1208481Y8055356D01*
X1219047Y8064652D01*
X1228344Y8075218D01*
X1236116Y8086902D01*
X1242364Y8099552D01*
X1246886Y8112861D01*
X1249629Y8126679D01*
X1250543Y8140700D01*
X1249629Y8154720D01*
X1246886Y8168538D01*
X1242364Y8181848D01*
X1236116Y8194497D01*
X1228344Y8206181D01*
X1219047Y8216747D01*
X1208481Y8226044D01*
X1196797Y8233816D01*
X1184148Y8240064D01*
X1170838Y8244586D01*
X1157020Y8247329D01*
X1143000Y8248243D01*
X1128979Y8247329D01*
X1115161Y8244586D01*
X1101852Y8240064D01*
X1089202Y8233816D01*
X1077518Y8226044D01*
X1066952Y8216747D01*
X1057656Y8206181D01*
X1049883Y8194497D01*
X1043635Y8181848D01*
X1039114Y8168538D01*
X1036370Y8154720D01*
X1035456Y8140700D01*
X1036370Y8126679D01*
X1039114Y8112861D01*
X1043635Y8099552D01*
X1049883Y8086902D01*
X1057656Y8075218D01*
X1066952Y8064652D01*
X1077518Y8055356D01*
X1089202Y8047583D01*
X1101852Y8041335D01*
X1115161Y8036814D01*
X1128979Y8034070D01*
G37*
G36*
X10247376Y8248650D02*
G01*
X10322610Y8248650D01*
X10319969Y8253933D01*
X10310164Y8269427D01*
X10298734Y8283803D01*
X10285933Y8296960D01*
X10271861Y8308695D01*
X10256621Y8318957D01*
X10247376Y8323884D01*
G37*
G36*
X6945375Y8248650D02*
G01*
X7020610Y8248650D01*
X7017969Y8253933D01*
X7008164Y8269427D01*
X6996734Y8283803D01*
X6983933Y8296960D01*
X6969861Y8308695D01*
X6954621Y8318957D01*
X6945375Y8323884D01*
G37*
G36*
X13549376Y8248650D02*
G01*
X13624610Y8248650D01*
X13621969Y8253933D01*
X13612164Y8269427D01*
X13600734Y8283803D01*
X13587933Y8296960D01*
X13573861Y8308695D01*
X13558621Y8318957D01*
X13549376Y8323884D01*
G37*
G36*
X6704939Y8248650D02*
G01*
X6780275Y8248650D01*
X6780275Y8324037D01*
X6779056Y8323478D01*
X6763308Y8314029D01*
X6748627Y8303006D01*
X6735114Y8290559D01*
X6723024Y8276742D01*
X6712407Y8261807D01*
G37*
G36*
X10006939Y8248650D02*
G01*
X10082276Y8248650D01*
X10082276Y8324037D01*
X10081056Y8323478D01*
X10065308Y8314029D01*
X10050627Y8303006D01*
X10037114Y8290559D01*
X10025024Y8276742D01*
X10014407Y8261807D01*
G37*
G36*
X13308939Y8248650D02*
G01*
X13384276Y8248650D01*
X13384276Y8324037D01*
X13383056Y8323478D01*
X13367308Y8314029D01*
X13352627Y8303006D01*
X13339114Y8290559D01*
X13327024Y8276742D01*
X13316407Y8261807D01*
G37*

%LPD*%
D10*
X6362700Y8166100D02*
G01*
X5842000Y7645400D01*
X5613400Y7645400D01*
D11*
X6350000Y6972300D02*
G01*
X6095745Y6972554D01*
X6350000Y5702300D02*
G01*
X6096000Y5702300D01*
X9156445Y5689854D02*
G01*
X9156445Y5270500D01*
X8560617Y5270500D01*
X9156445Y5689854D02*
G01*
X9156445Y5270500D01*
X11853209Y5346700D02*
G01*
X11514543Y5346700D01*
X9664700Y5689600D02*
G01*
X9410700Y5689600D01*
X12954000Y5702300D02*
G01*
X12700000Y5702300D01*
X12445745Y6972554D02*
G01*
X12445745Y6693154D01*
X12712700Y6426200D01*
X12712700Y5715000D01*
X12700000Y5702300D01*
X12954000Y6972300D02*
G01*
X12699745Y6972554D01*
X12699745Y6972554D02*
G01*
X12699745Y7200900D01*
X12585445Y7315200D01*
X11760200Y7315200D01*
X11696700Y7378700D01*
X11696700Y7658100D01*
X12966700Y8166100D02*
G01*
X12458700Y7658100D01*
X12204700Y7658100D01*
X9664700Y8166100D02*
G01*
X9105900Y7607300D01*
X8915400Y7607300D01*
X8407400Y7607300D02*
G01*
X8407400Y7594600D01*
X8712200Y7289800D01*
X9385300Y7289800D01*
X9385300Y6985000D01*
X9410445Y6959854D01*
X9664700Y6959600D02*
G01*
X9410445Y6959854D01*
X12445745Y5702554D02*
G01*
X12420600Y5677407D01*
X12420600Y4615891D01*
X12420600Y4245889D02*
G01*
X12420600Y4615891D01*
X12420600Y3805910D02*
G01*
X12420600Y3435908D01*
X12420600Y3435908D02*
G01*
X13295934Y3435908D01*
X13423900Y3563873D01*
D12*
X10751820Y6995160D02*
G01*
X11280140Y6995160D01*
X11684000Y6591300D01*
X7449820Y6944360D02*
G01*
X8028940Y6944360D01*
X8394700Y6578600D01*
X4160520Y7058660D02*
G01*
X4612640Y7058660D01*
X5080000Y6591300D01*
D13*
X8394700Y2971800D02*
G01*
X8394700Y2794000D01*
X8102600Y2501900D01*
X7886700Y2501900D01*
X7874000Y2489200D01*
X7874000Y3251200D02*
G01*
X6248400Y3251200D01*
X5600700Y3898900D01*
X4521200Y3898900D01*
X4368800Y3746500D01*
X4254500Y3746500D01*
X4241800Y3759200D01*
X7874000Y3505200D02*
G01*
X6388100Y3505200D01*
X5384800Y4508500D01*
X3759200Y4508500D01*
X3683000Y4584700D01*
X7874000Y2743200D02*
G01*
X8102600Y2743200D01*
X8102600Y5003800D01*
X5029200Y5003800D01*
X5003800Y4978400D01*
X3855720Y1800860D02*
G01*
X3454400Y1800860D01*
X3454400Y3098800D01*
X3276600Y3276600D01*
X3276600Y8013700D01*
X3390900Y8128000D01*
X3670300Y8128000D01*
X3683000Y8140700D01*
X3911600Y4699000D02*
G01*
X3746500Y4699000D01*
X3733800Y4711700D01*
X3403600Y4711700D01*
D14*
X1143000Y4076700D02*
G01*
X1612900Y4076700D01*
X3352800Y2336800D01*
X3352800Y1714500D01*
X3594100Y1473200D01*
X6400800Y1473200D01*
X7188200Y2260600D01*
X7188200Y2870200D01*
X7429500Y3111500D01*
D12*
X7449820Y6944360D02*
G01*
X7084059Y6944360D01*
X6731000Y6591300D01*
X5080000Y6591300D01*
X8394700Y6578600D02*
G01*
X10337800Y6578600D01*
X10337800Y6985000D01*
X10741659Y6985000D01*
X10751820Y6995160D01*
D11*
X5105400Y7645400D02*
G01*
X5105400Y7620000D01*
X5461000Y7264400D01*
X6096000Y7264400D01*
X6095745Y6972554D01*
D13*
X7874000Y4013200D02*
G01*
X6642100Y4013200D01*
X6578600Y4076700D01*
X6515100Y4076700D01*
X5765800Y4826000D01*
X3911600Y4826000D01*
X3911600Y4699000D01*
D11*
X12445745Y5702554D02*
G01*
X12445745Y5346700D01*
X11853209Y5346700D01*
X11514543Y5346700D02*
G01*
X9156445Y5346700D01*
X8560617Y5270500D02*
G01*
X5867400Y5270500D01*
X5841745Y5296154D01*
X5841745Y5702554D01*
D13*
X1193800Y1866900D02*
G01*
X1155700Y1905000D01*
X863600Y1905000D01*
X838200Y1930400D01*
X838200Y5588000D01*
X850900Y5600700D01*
X1143000Y5600700D01*
X10274300Y4018279D02*
G01*
X10269220Y4013200D01*
X8267700Y4013200D01*
X10274300Y4218939D02*
G01*
X10187940Y4305300D01*
X8242300Y4305300D01*
X10274300Y4417060D02*
G01*
X10220959Y4470400D01*
X9588500Y4470400D01*
X9563100Y4495800D01*
X8699500Y4495800D01*
X8445500Y4749800D01*
X8229600Y4749800D01*
D15*
G01*
X6362700Y8166100D03*
G01*
X6862825Y8166100D03*
G01*
X13423900Y4064000D03*
G01*
X13423900Y3563873D03*
D16*
G01*
X10274300Y4018279D03*
D17*
G01*
X10274300Y4218939D03*
G01*
X10274300Y4417060D03*
G01*
X10274300Y4617720D03*
D18*
G01*
X5003800Y4330700D03*
G01*
X4241800Y4330700D03*
G01*
X4241800Y4686300D03*
G01*
X5003800Y4686300D03*
G01*
X5003800Y5270500D03*
G01*
X4241800Y5270500D03*
G01*
X4241800Y4978400D03*
G01*
X5003800Y4978400D03*
G01*
X5003800Y3479800D03*
G01*
X4241800Y3479800D03*
G01*
X4241800Y3162300D03*
G01*
X5003800Y3162300D03*
D19*
G01*
X12420600Y3435908D03*
G01*
X12420600Y3805910D03*
G01*
X12420600Y4245889D03*
G01*
X12420600Y4615891D03*
D20*
G01*
X6350000Y6972300D03*
G01*
X6095745Y6972554D03*
G01*
X5841745Y6972554D03*
G01*
X5841745Y5702554D03*
G01*
X6350000Y5702300D03*
G01*
X6096000Y5702300D03*
D21*
G01*
X5080000Y6083300D03*
G01*
X5080000Y6333236D03*
G01*
X5080000Y6591300D03*
D20*
G01*
X12954000Y6972300D03*
G01*
X12699745Y6972554D03*
G01*
X12445745Y6972554D03*
G01*
X12445745Y5702554D03*
G01*
X12954000Y5702300D03*
G01*
X12700000Y5702300D03*
D21*
G01*
X11684000Y6083300D03*
G01*
X11684000Y6333236D03*
G01*
X11684000Y6591300D03*
D20*
G01*
X9664700Y6959600D03*
G01*
X9410445Y6959854D03*
G01*
X9156445Y6959854D03*
G01*
X9156445Y5689854D03*
G01*
X9664700Y5689600D03*
G01*
X9410700Y5689600D03*
D21*
G01*
X8394700Y6070600D03*
G01*
X8394700Y6320536D03*
G01*
X8394700Y6578600D03*
D18*
G01*
X5003800Y4051300D03*
G01*
X4241800Y4051300D03*
G01*
X4241800Y3759200D03*
G01*
X5003800Y3759200D03*
D22*
G01*
X7874000Y3759200D03*
G01*
X7874000Y3505200D03*
G01*
X7874000Y3251200D03*
G01*
X7874000Y2997200D03*
G01*
X7874000Y2743200D03*
G01*
X7874000Y2489200D03*
G01*
X7874000Y4013200D03*
G01*
X7874000Y4267200D03*
G01*
X7874000Y4521200D03*
G01*
X7874000Y4775200D03*
D23*
G01*
X3855720Y1800860D03*
G01*
X3855720Y2054860D03*
G01*
X10751820Y6741160D03*
G01*
X10751820Y6995160D03*
G01*
X7449820Y6690360D03*
G01*
X7449820Y6944360D03*
G01*
X4160520Y6804660D03*
G01*
X4160520Y7058660D03*
D24*
G01*
X5613400Y7645400D03*
D25*
G01*
X5105400Y7645400D03*
D24*
G01*
X12204700Y7658100D03*
D25*
G01*
X11696700Y7658100D03*
D24*
G01*
X8915400Y7607300D03*
D25*
G01*
X8407400Y7607300D03*
D15*
G01*
X12966700Y8166100D03*
G01*
X13466825Y8166100D03*
G01*
X9664700Y8166100D03*
G01*
X10164825Y8166100D03*
D26*
G01*
X2997200Y2082800D03*
D27*
G01*
X2997200Y1574800D03*
G01*
X2997200Y1828800D03*
D22*
G01*
X1193800Y1866900D03*
G01*
X1193800Y1562100D03*
G01*
X1193800Y2171700D03*
D28*
G01*
X1193800Y1206500D03*
G01*
X1193800Y2501900D03*
D29*
G01*
X3683000Y8140700D03*
G01*
X3683000Y7886700D03*
G01*
X3683000Y7632700D03*
G01*
X3683000Y7378700D03*
G01*
X3683000Y7124700D03*
D30*
G01*
X3683000Y6870700D03*
D29*
G01*
X3683000Y6616700D03*
G01*
X3683000Y6362700D03*
G01*
X1143000Y6362700D03*
G01*
X1143000Y6616700D03*
G01*
X1143000Y6870700D03*
G01*
X1143000Y7124700D03*
G01*
X1143000Y7378700D03*
G01*
X1143000Y7632700D03*
G01*
X1143000Y7886700D03*
G01*
X1143000Y8140700D03*
G01*
X1143000Y6108700D03*
G01*
X1143000Y5854700D03*
G01*
X1143000Y5600700D03*
G01*
X1143000Y5346700D03*
D30*
G01*
X1143000Y5092700D03*
D29*
G01*
X1143000Y4838700D03*
G01*
X1143000Y4584700D03*
G01*
X1143000Y4330700D03*
D31*
G01*
X3683000Y4330700D03*
D29*
G01*
X3683000Y4584700D03*
G01*
X3683000Y4838700D03*
G01*
X3683000Y5092700D03*
G01*
X3683000Y5346700D03*
G01*
X3683000Y5600700D03*
G01*
X3683000Y5854700D03*
G01*
X3683000Y6108700D03*
D31*
G01*
X3683000Y3822700D03*
G01*
X3683000Y3568700D03*
D32*
G01*
X1143000Y3568700D03*
D31*
G01*
X1143000Y3822700D03*
G01*
X1143000Y4076700D03*
G01*
X3683000Y4076700D03*
D33*
G01*
X8394700Y2971800D03*
G01*
X3403600Y4711700D03*
G01*
X7429500Y3111500D03*
G01*
X7556500Y5295900D03*
G01*
X8560612Y5270500D03*
G01*
X11514556Y5346700D03*
G01*
X11853214Y5346700D03*
G01*
X8242300Y4305300D03*
G01*
X8267700Y4013200D03*
G01*
X8229600Y4749800D03*
M02*
