G04 Layer: TopSolderMaskLayer*
G04 EasyEDA v6.5.40, 2024-02-16 14:27:15*
G04 e6df629b51dc495ebfef8267a6aecd5e,cfde26286956488f8bb48462f070ee61,10*
G04 Gerber Generator version 0.2*
G04 Scale: 100 percent, Rotated: No, Reflected: No *
G04 Dimensions in millimeters *
G04 leading zeros omitted , absolute positions ,4 integer and 5 decimal *
%FSLAX45Y45*%
%MOMM*%

%AMMACRO1*1,1,$1,$2,$3*1,1,$1,$4,$5*1,1,$1,0-$2,0-$3*1,1,$1,0-$4,0-$5*20,1,$1,$2,$3,$4,$5,0*20,1,$1,$4,$5,0-$2,0-$3,0*20,1,$1,0-$2,0-$3,0-$4,0-$5,0*20,1,$1,0-$4,0-$5,$2,$3,0*4,1,4,$2,$3,$4,$5,0-$2,0-$3,0-$4,0-$5,$2,$3,0*%
%ADD10C,2.1016*%
%ADD11C,3.1496*%
%ADD12R,1.3716X1.3716*%
%ADD13C,1.3716*%
%ADD14C,1.9812*%
%ADD15O,2.6000202X1.6000222*%
%ADD16C,2.4016*%
%ADD17C,2.5032*%
%ADD18C,2.2016*%
%ADD19C,1.6256*%
%ADD20C,1.2954*%
%ADD21O,2.101596X2.601595*%
%ADD22MACRO1,0.1016X-1.0008X1.2497X1.0008X1.2497*%
%ADD23MACRO1,0.1016X1.25X1X1.25X-1*%
%ADD24O,2.601595X2.101596*%
%ADD25C,2.3016*%
%ADD26C,1.8364*%
%ADD27R,1.8364X1.8364*%
%ADD28C,1.8362*%
%ADD29R,1.8362X1.8362*%

%LPD*%
D10*
X11853209Y5346700D02*
G01*
X11514543Y5346700D01*
X11514543Y5346700D02*
G01*
X9156445Y5346700D01*
X9156445Y5689854D02*
G01*
X9156445Y5270500D01*
X8560617Y5270500D01*
X8560617Y5270500D02*
G01*
X5867400Y5270500D01*
X5841745Y5296154D01*
X5841745Y5702554D01*
X8560617Y5270500D02*
G01*
X5867400Y5270500D01*
X5841745Y5296154D01*
X5841745Y5702554D01*
X12445745Y5702554D02*
G01*
X12445745Y5346700D01*
X11853209Y5346700D01*
D11*
G01*
X6362700Y8166100D03*
G01*
X6862825Y8166100D03*
G01*
X13423900Y4064000D03*
G01*
X13423900Y3563873D03*
D12*
G01*
X10274300Y4018279D03*
D13*
G01*
X10274300Y4218939D03*
G01*
X10274300Y4417060D03*
G01*
X10274300Y4617720D03*
D14*
G01*
X5003800Y4330700D03*
G01*
X4241800Y4330700D03*
G01*
X4241800Y4686300D03*
G01*
X5003800Y4686300D03*
G01*
X5003800Y5270500D03*
G01*
X4241800Y5270500D03*
G01*
X4241800Y4978400D03*
G01*
X5003800Y4978400D03*
G01*
X5003800Y3479800D03*
G01*
X4241800Y3479800D03*
G01*
X4241800Y3162300D03*
G01*
X5003800Y3162300D03*
D15*
G01*
X12420600Y3435908D03*
G01*
X12420600Y3805910D03*
G01*
X12420600Y4245889D03*
G01*
X12420600Y4615891D03*
D16*
G01*
X6350000Y6972300D03*
G01*
X6095745Y6972554D03*
G01*
X5841745Y6972554D03*
G01*
X5841745Y5702554D03*
D17*
G01*
X6350000Y5702300D03*
G01*
X6096000Y5702300D03*
D18*
G01*
X5080000Y6083300D03*
G01*
X5080000Y6333236D03*
G01*
X5080000Y6591300D03*
D16*
G01*
X12954000Y6972300D03*
G01*
X12699745Y6972554D03*
G01*
X12445745Y6972554D03*
G01*
X12445745Y5702554D03*
D17*
G01*
X12954000Y5702300D03*
G01*
X12700000Y5702300D03*
D18*
G01*
X11684000Y6083300D03*
G01*
X11684000Y6333236D03*
G01*
X11684000Y6591300D03*
D16*
G01*
X9664700Y6959600D03*
G01*
X9410445Y6959854D03*
G01*
X9156445Y6959854D03*
G01*
X9156445Y5689854D03*
D17*
G01*
X9664700Y5689600D03*
G01*
X9410700Y5689600D03*
D18*
G01*
X8394700Y6070600D03*
G01*
X8394700Y6320536D03*
G01*
X8394700Y6578600D03*
D14*
G01*
X5003800Y4051300D03*
G01*
X4241800Y4051300D03*
G01*
X4241800Y3759200D03*
G01*
X5003800Y3759200D03*
D19*
G01*
X7874000Y3759200D03*
G01*
X7874000Y3505200D03*
G01*
X7874000Y3251200D03*
G01*
X7874000Y2997200D03*
G01*
X7874000Y2743200D03*
G01*
X7874000Y2489200D03*
G01*
X7874000Y4013200D03*
G01*
X7874000Y4267200D03*
G01*
X7874000Y4521200D03*
G01*
X7874000Y4775200D03*
D20*
G01*
X3855720Y1800860D03*
G01*
X3855720Y2054860D03*
G01*
X10751820Y6741160D03*
G01*
X10751820Y6995160D03*
G01*
X7449820Y6690360D03*
G01*
X7449820Y6944360D03*
G01*
X4160520Y6804660D03*
G01*
X4160520Y7058660D03*
D21*
G01*
X5613400Y7645400D03*
D22*
G01*
X5105400Y7645400D03*
D21*
G01*
X12204700Y7658100D03*
D22*
G01*
X11696700Y7658100D03*
D21*
G01*
X8915400Y7607300D03*
D22*
G01*
X8407400Y7607300D03*
D11*
G01*
X12966700Y8166100D03*
G01*
X13466825Y8166100D03*
G01*
X9664700Y8166100D03*
G01*
X10164825Y8166100D03*
D23*
G01*
X2997200Y2082800D03*
D24*
G01*
X2997200Y1574800D03*
G01*
X2997200Y1828800D03*
D19*
G01*
X1193800Y1866900D03*
G01*
X1193800Y1562100D03*
G01*
X1193800Y2171700D03*
D25*
G01*
X1193800Y1206500D03*
G01*
X1193800Y2501900D03*
D26*
G01*
X3683000Y8140700D03*
G01*
X3683000Y7886700D03*
G01*
X3683000Y7632700D03*
G01*
X3683000Y7378700D03*
G01*
X3683000Y7124700D03*
D27*
G01*
X3683000Y6870700D03*
D26*
G01*
X3683000Y6616700D03*
G01*
X3683000Y6362700D03*
G01*
X1143000Y6362700D03*
G01*
X1143000Y6616700D03*
G01*
X1143000Y6870700D03*
G01*
X1143000Y7124700D03*
G01*
X1143000Y7378700D03*
G01*
X1143000Y7632700D03*
G01*
X1143000Y7886700D03*
G01*
X1143000Y8140700D03*
G01*
X1143000Y6108700D03*
G01*
X1143000Y5854700D03*
G01*
X1143000Y5600700D03*
G01*
X1143000Y5346700D03*
D27*
G01*
X1143000Y5092700D03*
D26*
G01*
X1143000Y4838700D03*
G01*
X1143000Y4584700D03*
G01*
X1143000Y4330700D03*
D28*
G01*
X3683000Y4330700D03*
D26*
G01*
X3683000Y4584700D03*
G01*
X3683000Y4838700D03*
G01*
X3683000Y5092700D03*
G01*
X3683000Y5346700D03*
G01*
X3683000Y5600700D03*
G01*
X3683000Y5854700D03*
G01*
X3683000Y6108700D03*
D28*
G01*
X3683000Y3822700D03*
G01*
X3683000Y3568700D03*
D29*
G01*
X1143000Y3568700D03*
D28*
G01*
X1143000Y3822700D03*
G01*
X1143000Y4076700D03*
G01*
X3683000Y4076700D03*
M02*
